<svg xmlns="http://www.w3.org/2000/svg" version="1.1" xmlns:xlink="http://www.w3.org/1999/xlink" width="512" height="512" x="0" y="0" viewBox="0 0 68 68" style="enable-background:new 0 0 512 512" xml:space="preserve"><g><path d="m24.3 23.6-.1 1.5c-.2 1.8-1.2 3.3-2.8 4l-10 5c-1.4.7-2.9.7-4.3.1l-2.1-1c.2.7.7 1.6.4 2.9-.1.3-.2.7-.2 1h.1c7.2 2.2 12.8 6.7 16.6 13.3l.2.4c1-.2 1.9-.4 3.3-.2 4.2.8 8.2 1.3 11.9 1.6l.9-.9c2.7-2.7 4.7-4.3 5.9-4.9 1.1-.5 2.6-.6 4.1-.8 2.2-.2 4.7-.5 6.3-1.8 1.5-1.2 1.9-3.2 2.1-4.6-2.8-.2-6.1.2-9.8-.5l.4-.7c.2-.4.1-.8-.3-1s-.8-.1-1 .3l-.6 1c-1.2-.4-2.4-.8-3.6-1.4.3-.4.7-.7 1-1.1.3-.3.2-.8-.1-1.1s-.8-.2-1.1.1c-.4.5-.8 1-1.3 1.4-1.5-.7-3-1.6-4.4-2.5.5-.4 1-.7 1.5-1.1.3-.3.4-.7.1-1.1-.3-.3-.7-.4-1.1-.1-.6.5-1.3.9-1.9 1.4-1.1-.8-2.2-1.6-3.2-2.5.6-.3 1.3-.7 1.9-1.1.3-.2.4-.7.2-1s-.7-.4-1-.2c-.7.5-1.5.9-2.2 1.2L28.9 28c-.5-.5-.9-1.2-1-1.9-.2-1.5-.3-3.4-.3-5.4L25.3 22c-.5.3-.9.9-1 1.6zm19.9 16.5h.2l-.6 1c-.2.4-.1.8.3 1s.8.1 1-.3l.6-1c.2.3.4.7.4 1.1 0 1.1-.8 1.9-1.9 1.9s-1.9-.8-1.9-1.9c-.1-1 .8-1.8 1.9-1.8zm-5.8-2.8c.2 0 .5 0 .7.1-.3.3-.6.5-.9.8s-.4.7-.1 1.1c.3.3.7.4 1.1.1.3-.3.7-.6 1-.9.1.2.1.5.1.7 0 1.1-.8 1.9-1.9 1.9-1 0-1.9-.8-1.9-1.9 0-1 .9-1.9 1.9-1.9zm-6.1-2.9c-.4.2-.7.5-1.1.7s-.5.7-.2 1c.2.3.7.5 1 .2.4-.3.8-.6 1.3-.8 0 .2.1.3.1.5 0 1-.8 1.9-1.9 1.9-1 0-1.9-.8-1.9-1.9s.9-1.9 1.9-1.9c.3 0 .6.1.8.3zM27.8 30l-1.2.3c-.4.1-.7.5-.6.9s.5.7.9.6l1.2-.3c-.2.8-.9 1.4-1.8 1.4-1 0-1.9-.8-1.9-1.9 0-1 .9-1.9 1.9-1.9.6.1 1.1.4 1.5.9z" fill="#000000" opacity="1" data-original="#000000"></path><path d="M20.6 51.1c-3.7-6.6-9.1-10.6-15.7-12.6-.7 3.4-.9 6.6-.5 9.6 3.7 3.5 9.3 4.3 16.2 3zM55.5 44.9c-3.2 2.7-8.4 1.8-10.8 2.9-1.4.6-4 3.1-5.5 4.6 12.2.7 21.6-1.6 25-9.1-1.7-2.6-3.8-3.6-6.1-4-.1 1.6-.7 4-2.6 5.6zM7.7 32.8c1 .4 2.1.4 3 0l10-5c1.1-.5 1.8-1.6 1.9-2.8l.1-1.6c.1-1.1.7-2.1 1.7-2.7l3-1.8c0-.8-.1-1.5-.1-2.3-.1-1.6-.9-2.7-2-3.2l-1-5.2c-.2-1.1-1.2-1.8-2.3-1.6-4.7.9-7.8 5.4-6.9 10.1l.3 1.8c-2.9 1.9-5.3 3-8.9 4.5-1.1.5-1.9 1.5-2.1 2.6-.3 1.9-.4 3.8-.1 5.5z" fill="#000000" opacity="1" data-original="#000000"></path><path d="M64.8 45.4C61.4 51.1 54.1 54 43.1 54c-5.1 0-11.2-.6-18-1.8-.7-.1-1.5-.1-2.3 0-6.5 1.5-13.8 1.8-19-2.6-1 3.1-2.7 10.1 3 11.3.6.1 1.1.2 1.7.3l1-1.8h1.9l.3 2c.9 0 1.8 0 2.7-.1l1.2-2.2h1.9l.3 2c1.1-.1 2.2-.3 3.2-.4l1.2-2.1h2.2l.2 1.7c1-.1 1.6-.3 2.5-.4l1-2.1 5.2.1.4 1.4h2.8l.7-1.2h2.7l.2 1.2c1.2 0 1.8 0 3.2-.1l.6-1.4H46l.1 1.3c1.4-.1 1.5-.2 3-.3l.6-1.5h2.2l.1 1.3c1.8-.2 2-.5 3.7-.8l.2-1.7h2.2l.6 1.1c3.1-.9 5.3-2.1 6-3.8.9-2.7.6-5.9.1-8z" fill="#000000" opacity="1" data-original="#000000"></path></g></svg>