<svg xmlns="http://www.w3.org/2000/svg" version="1.1" xmlns:xlink="http://www.w3.org/1999/xlink" width="512" height="512" x="0" y="0" viewBox="0 0 512 512" style="enable-background:new 0 0 512 512" xml:space="preserve"><g><path fill="#d3bcc9" d="M302 125.4v66.7L128 320 19.5 341.2c-8.4 1.6-14.5 9-14.5 17.6v30.9h502V256l-15.4-128L346 91.1c-22.3-5.6-44 11.3-44 34.3zM507 432H47.4C24 432 5 413.1 5 389.7h502z" opacity="1" data-original="#d3bcc9"></path><path fill="#ebdee5" d="M222.3 418h-189C17.7 418 5 405.3 5 389.7h245v.6c0 15.3-12.4 27.7-27.7 27.7z" opacity="1" data-original="#ebdee5"></path><path fill="#d85064" d="M496.4 167.9 346 128V91.1c-22.3-5.7-44 11.2-44 34.3v66.7L192 273l-64 47 4.7 14.7c3.6 11.2-4.8 22.6-16.5 22.6H37.8c-7 0-13.3-4.2-16-10.6l-2.3-5.5c-8.4 1.6-14.5 9-14.5 17.6v30.9h212.7l-17.4-47.1c-4.9-13.4-.4-28.4 11.1-36.8l82.2-60.5c5.5-4 12.1-6.2 19-6.2h1.5c17.7 0 32-14.3 32-32l69.5 42.5c6.9 4.2 15 5.7 22.9 4.3l66.9-11.8z" opacity="1" data-original="#d85064"></path><path fill="#f27986" d="m507 272.8-42.7 8.1c-31 5.9-58.5 23.5-76.9 49.2L345 389.7h162z" opacity="1" data-original="#f27986"></path><path fill="#d85064" d="m507 272.8-42.7 8.1c-31 5.9-58.5 23.5-76.9 49.2L345 389.7h162z" opacity="1" data-original="#d85064"></path><path fill="#bfa3b5" d="M464 418h10v14h-10zM402 418h10v14h-10zM340 418h10v14h-10zM278 418h10v14h-10zM216 418h10v14h-10zM154 418h10v14h-10z" opacity="1" data-original="#bfa3b5"></path><path fill="#ffffff" d="M86.3 396.3H34.7c-4.1 0-7.5 3.4-7.5 7.5s3.4 7.5 7.5 7.5h51.5c4.1 0 7.5-3.4 7.5-7.5.1-4.1-3.3-7.5-7.4-7.5z" opacity="1" data-original="#ffffff"></path><path fill="#ebdee5" d="M397.5 358c41.5 0 75.5-34 75.5-75.5V224l-12.7-104-114.2-28.9c-22.3-5.7-44.1 11.2-44.1 34.3v66.7L128 320 19.5 341.3C11.5 342.9 5.6 350 5 358z" opacity="1" data-original="#ebdee5"></path><path fill="#f27986" d="m473 224-7.9-64.4L346 128V91.1c-22.3-5.7-44 11.2-44 34.3v66.7L192 273l-64 47 4.7 14.6c3.6 11.2-4.8 22.4-16.5 22.4H37.8c-7 0-13.3-4.1-16-10.5l-2.3-5.2C11.5 342.8 5.6 350 5 358h200.8l-5.6-15.3c-4.9-13.4-.4-28.5 11.1-36.9l82.2-60.5c5.5-4 12.1-6.3 19-6.3h1.5c17.7 0 32-14.3 32-32l69.5 42.5c6.9 4.2 15.2 5.7 23.1 4.3l34.5-6.1V224z" opacity="1" data-original="#f27986"></path><g fill="#f7b7c2"><path d="m139 331 64-47.1L313 203v-66.7c0-19.2 15.1-34.1 33-35.3V91c-22.3-5.7-44 11.2-44 34.3V192l-110 80.9-64 47.1 4.7 14.6zM346 143.3l121.3 33.5-2.2-17.2L346 127.9z" fill="#f7b7c2" opacity="1" data-original="#f7b7c2"></path></g><path fill="#f27986" d="M464.5 280.8c-31 5.9-58.6 23.7-76.9 49.4L367.8 358h29.7c41.5 0 75.5-34 75.5-75.5v-3.2z" opacity="1" data-original="#f27986"></path><path fill="#ebdee5" d="M302 80v112.1l-32 23.5V112c0-17.7 14.3-32 32-32z" opacity="1" data-original="#ebdee5"></path><path fill="#d3bcc9" d="M302 80c-5 0-9.8 1.2-14 3.2v108.9l-18 13.2v10.3l32-23.5z" opacity="1" data-original="#d3bcc9"></path><g fill="#a59aa0"><path d="m431 218-40.6-10.9c-11.3-3-18.1-14.7-15-26 3-11.3 14.7-18.1 26-15L442 177c11.3 3 18.1 14.7 15 26-3 11.3-14.6 18-26 15zM184.4 278.5l5-3.7 4.6-3.4-3.8-1.7c-6.3-2.5-13.5-1.7-19.2 2.1s-9 10.2-9 17v27h10v-27c0-3.6 1.7-6.8 4.6-8.8 2.4-1.4 5.1-1.9 7.8-1.5zM218.7 253.3l5.1-3.8 5-3.5-3-1c-6.4-2.8-13.7-2.2-19.5 1.6s-9.3 10.3-9.3 17.2V291h10v-27.2c0-3.6 1.7-6.9 4.8-8.9 2.1-1.3 4.5-1.9 6.9-1.6zM259.4 223.4l5-3.7-6.6-2.1c-6.3-2-13-.9-18.4 3s-8.4 10-8.4 16.6V266h10v-28.7c0-3.4 1.6-6.5 4.3-8.5 2.6-1.9 5.9-2.5 9-1.7z" fill="#a59aa0" opacity="1" data-original="#a59aa0"></path><path d="M272 217.2c-1.7-2.2-2.4-5-2-7.6v-16.5l-3.3 2.8c-7.9 7-9.1 19-2.7 27.3l10.3 13.5 7.9-6.1z" fill="#a59aa0" opacity="1" data-original="#a59aa0"></path></g><path fill="#7f757b" d="M346 91v37l150.4 39.9-4.8-39.9z" opacity="1" data-original="#7f757b"></path><path fill="#a59aa0" d="M460.2 120 346 91v37l118.9 31.6z" opacity="1" data-original="#a59aa0"></path><path fill="#d3bcc9" d="M270 157.7h32v9.5h-32z" opacity="1" data-original="#d3bcc9"></path><path fill="#a59aa0" d="M288.3 152h-8.4c-5.5 0-9.9-4.4-9.9-9.9v-14.6l-3.7 3.9c-5 5.6-6.1 13.3-2.9 20.1 3.1 6.5 9.8 10.5 17 10.5h41.7v-10z" opacity="1" data-original="#a59aa0"></path><path fill="#d3bcc9" d="M270 193v10l10 5.2 10.4-7.6z" opacity="1" data-original="#d3bcc9"></path><path fill="#a59aa0" d="M278.7 188.7c-4.9-2.2-8.4-6.5-9.5-11.8-.7-3.3-.2-6.7.8-9.7v-16.9l-4.3 5.3c-5.8 6.4-8.1 15-6.3 23.4s7.4 15.3 15.3 18.9l43.3 19.4 4.1-9.1z" opacity="1" data-original="#a59aa0"></path></g></svg>