<svg xmlns="http://www.w3.org/2000/svg" version="1.1" xmlns:xlink="http://www.w3.org/1999/xlink" width="512" height="512" x="0" y="0" viewBox="0 0 64 64" style="enable-background:new 0 0 512 512" xml:space="preserve"><g><path fill="#37474f" d="M55.075 52.082c.075-1.034-.159-2.016-.71-2.824-.639-.936-1.629-1.544-2.794-1.713-8.113-1.061-10.417-4.823-10.435-4.854-.032-.056-3.204-5.755-5.537-14.262-1.229-4.495-.897-9.486-.604-13.89.275-4.132.513-7.701-.481-10.274l-.045-.117-.095-.082C32.598 2.543 27.537 2 23.394 2c-5.447 0-12.529.934-14.562 3.566l-.062.103c-.485 1.092.268 4.651 1.642 10.846 1.255 5.659 2.678 12.073 2.253 14.405-.317 1.116-.657 2.076-.985 3.004-.933 2.638-1.67 4.722-.982 7.923 0 0 .13.293.208.33 2.335 18.147 2.37 18.192 2.54 18.35.26.248 1.316.741 1.316.741.872.284 1.969.282 3.561-.029.402-.086.402-.086.523-3.002.096-2.323.284-6.836.479-8.354 4.428 2.211 9.908 7.205 11.774 9.76.549.55 2.691 2.345 7.215 2.345 3.794 0 8.138-1.274 12.924-3.789l1.133-.609c.422-.242 1.704-.98 2.248-1.316.986-.755.496-4.218.456-4.192zM12.623 34.257c.318-.899.679-1.918 1.015-3.111.472-2.578-.912-8.815-2.25-14.848-.958-4.318-2.041-9.202-1.724-10.175C11.195 4.253 16.688 3 23.394 3c4.79 0 8.859.699 10.233 1.749.86 2.363.632 5.78.37 9.725-.298 4.482-.636 9.563.637 14.221 2.368 8.633 5.597 14.43 5.632 14.492.099.172 2.521 4.22 11.167 5.35.878.127 1.626.584 2.105 1.287.536.786.696 1.801.449 2.858-.637 2.732-11.192 6.629-16.46 6.628-.527 0-.984-.04-1.358-.119-2.143-.451-2.692-1.126-3.895-2.604-1.165-1.431-2.925-3.594-7.202-6.819-4.3-2.986-7.088-4.362-9.124-5.367-1.947-.961-3.139-1.549-4.299-2.886-.583-2.855.072-4.707.974-7.258zm41.432 21.194c-.423.259-1.408.828-1.948 1.139l-.358.198c-5.03 2.788-9.55 4.201-13.434 4.201-4.246 0-6.166-1.708-6.457-1.992-1.998-2.748-7.916-8.115-12.644-10.274L19 48.676c-.657 0-.758 0-1.152 9.52-.036.86-.07 1.685-.094 2.132-.999.172-1.762.193-2.369.07 0 0-.941-.353-1.134-.498-.194-1.234-1.274-9.506-2.192-16.612.966.777 2.041 1.314 3.447 2.009 2.008.991 4.757 2.349 8.98 5.281 4.164 3.14 5.878 5.246 7.012 6.64 1.273 1.564 1.975 2.427 4.464 2.951.442.093.969.14 1.564.14 4.771 0 14.342-3.206 16.856-6.323.011.701-.077 1.271-.327 1.465z" opacity="1" data-original="#37474f"></path></g></svg>