<svg xmlns="http://www.w3.org/2000/svg" version="1.1" xmlns:xlink="http://www.w3.org/1999/xlink" width="512" height="512" x="0" y="0" viewBox="0 0 53 53" style="enable-background:new 0 0 512 512" xml:space="preserve"><g><path d="M35.361 7.662c-.068-.02-.146-.03-.214-.039-.02-.01-.03-.01-.03-.01h-.02a70.055 70.055 0 0 0-.672-.117c-2.109-.132-4.003-.053-5.726.183v20.258H16.262v14.865a34.418 34.418 0 0 1 5.765 3.361c2.126 1.532 4.916 1.844 7.345.85 4.956-2.024 9.55-6.944 14.11-12.139a3.175 3.175 0 0 1 1.737-1.004c.58-.122 1.154-.253 1.73-.387a4.613 4.613 0 0 0 3.57-4.488v-2.692c0-9.033-6.3-16.875-15.158-18.64z" fill="#000000" opacity="1" data-original="#000000"></path><path d="M26.472 48.08a8.12 8.12 0 0 1-4.738-1.51 33.981 33.981 0 0 0-5.68-3.312.502.502 0 0 1-.292-.456V27.937a.5.5 0 0 1 .5-.5h11.936V7.68a.5.5 0 0 1 .432-.495c1.835-.25 3.794-.314 5.826-.186.049.006.286.044.73.123.043 0 .074.006.104.017.068.011.129.022.186.037C44.483 8.979 51.02 17.02 51.02 26.303v2.693a5.095 5.095 0 0 1-3.957 4.973c-.58.136-1.158.267-1.742.39a2.655 2.655 0 0 0-1.463.846c-4.64 5.284-9.223 10.199-14.296 12.27a8.166 8.166 0 0 1-3.09.605zm-9.71-5.597c1.917.9 3.785 2.001 5.556 3.275 1.967 1.418 4.598 1.721 6.865.792 4.873-1.99 9.366-6.814 13.923-12.005a3.653 3.653 0 0 1 2.01-1.164 81.414 81.414 0 0 0 1.72-.385 4.099 4.099 0 0 0 3.184-4v-2.693c0-8.812-6.206-16.446-14.756-18.15a.597.597 0 0 1-.04-.01c-.04-.011-.084-.016-.124-.022-.02-.002-.041-.007-.064-.012-.01 0-.018-.003-.026-.004-.432-.077-.663-.114-.665-.115a28.773 28.773 0 0 0-5.147.13v19.817a.5.5 0 0 1-.5.5H16.762z" fill="#000000" opacity="1" data-original="#000000"></path><path fill="#283e42" d="M41.254 34.076c-4.79 5.48-9.604 10.81-14.81 12.938-2.428.99-5.222.682-7.342-.848-4.89-3.517-10.111-5.48-15.64-6.087a1.09 1.09 0 0 1-.774-1.72l6.877-9.547z" opacity="1" data-original="#283e42"></path><path d="M23.542 48.08a8.1 8.1 0 0 1-4.733-1.509c-4.684-3.37-9.866-5.387-15.403-5.995a1.57 1.57 0 0 1-1.283-.927 1.573 1.573 0 0 1 .16-1.583L9.16 28.52a.495.495 0 0 1 .488-.2l31.688 5.263a.5.5 0 0 1 .295.822c-5.164 5.908-9.857 10.97-14.996 13.072a8.204 8.204 0 0 1-3.092.603zM9.79 29.356 3.094 38.65a.58.58 0 0 0-.059.588.576.576 0 0 0 .476.344c5.715.627 11.056 2.706 15.883 6.178 1.96 1.415 4.59 1.717 6.862.792 4.744-1.94 9.183-6.61 14.03-12.13z" fill="#000000" opacity="1" data-original="#000000"></path><ellipse cx="31.982" cy="7.62" fill="#283e42" rx="2.193" ry="2.674" transform="rotate(-83.74 31.977 7.624)" opacity="1" data-original="#283e42"></ellipse><path d="M32.097 10.32c-.135 0-.272-.008-.41-.022-1.739-.192-3.023-1.548-2.86-3.025.08-.734.496-1.38 1.171-1.82.644-.42 1.452-.6 2.278-.51 1.74.192 3.023 1.547 2.862 3.024-.15 1.359-1.474 2.353-3.041 2.353zm-.239-4.4c-.483 0-.94.128-1.314.37-.42.274-.677.662-.724 1.093-.101.928.786 1.79 1.977 1.92 1.184.14 2.244-.516 2.347-1.446.101-.928-.786-1.789-1.977-1.92a2.737 2.737 0 0 0-.309-.017zm2.783 1.992h.01z" fill="#000000" opacity="1" data-original="#000000"></path><path fill="#ffffff" d="M47.598 26.302v2.69a4.613 4.613 0 0 1-3.575 4.49c-1.96.466-3.959.85-6.013 1.11-7.16.906-15.067.262-24.749-4.014a72.61 72.61 0 0 1-3.697-1.764S8.416 6.044 31.494 7.5c0 0 .243.038.682.112h.018s.01 0 .028.01c.066.009.14.018.215.037 8.85 1.764 15.161 9.616 15.161 18.643z" opacity="1" data-original="#ffffff"></path><path d="M32.484 35.446c-6.408 0-12.7-1.44-19.424-4.411a73.682 73.682 0 0 1-3.723-1.775.498.498 0 0 1-.271-.42c-.022-.42-.443-10.323 6.042-16.728 3.883-3.834 9.407-5.552 16.417-5.111l.734.118a.29.29 0 0 1 .107.018c.064.01.128.021.192.037 8.995 1.793 15.54 9.84 15.54 19.128v2.689a5.093 5.093 0 0 1-3.962 4.978c-2.113.502-4.097.869-6.062 1.12a44.6 44.6 0 0 1-5.59.357zm-22.426-6.942c1.155.585 2.3 1.128 3.406 1.617 8.49 3.75 16.268 5.014 24.484 3.975a56.309 56.309 0 0 0 5.958-1.101A4.097 4.097 0 0 0 47.1 28.99v-2.689c0-8.813-6.207-16.448-14.76-18.153-.076-.018-.13-.024-.177-.031a.358.358 0 0 1-.061-.012h-.008l-.677-.112c-6.661-.42-11.928 1.203-15.6 4.825-5.574 5.5-5.775 14.024-5.758 15.685z" fill="#000000" opacity="1" data-original="#000000"></path><path fill="#5ae4a7" d="M38.01 34.593c-7.16.905-15.067.26-24.749-4.015 0 0-1.092-22.322 18.915-22.966h.018s.01 0 .028.01c.588.27 10.587 5.134 5.788 26.97z" opacity="1" data-original="#5ae4a7"></path><path d="M32.484 35.446c-6.408 0-12.7-1.44-19.424-4.411a.498.498 0 0 1-.297-.433c-.023-.443-.46-10.936 5.88-17.811 3.305-3.585 7.853-5.496 13.517-5.679.073.009.218.026.294.067 1.103.506 10.845 5.675 6.045 27.52a.5.5 0 0 1-.426.39c-1.88.237-3.74.357-5.589.357zm5.527-.853h.01zm-24.257-4.345c8.258 3.6 15.854 4.842 23.844 3.891 4.367-20.382-4.483-25.506-5.504-26.023-5.339.191-9.614 1.991-12.712 5.349-5.47 5.927-5.649 15.008-5.628 16.783z" fill="#000000" opacity="1" data-original="#000000"></path></g></svg>