<svg xmlns="http://www.w3.org/2000/svg" version="1.1" xmlns:xlink="http://www.w3.org/1999/xlink" width="512" height="512" x="0" y="0" viewBox="0 0 512 512" style="enable-background:new 0 0 512 512" xml:space="preserve"><g><path fill="#ff6284" d="M365.363 61.691a40.053 40.053 0 0 0-16.523-18.07C276.46 2.261 292.336 11.336 290 10H190c-2.32 1.324 13.496-7.71-58.84 33.621a40.066 40.066 0 0 0-16.52 18.07l-86.019 187.68L30 250l60 40c64.324-128.64 61.285-122.488 63.91-128.012-7.62 36.067-4.312 77.297 11.692 111.184C131.98 316.55 110 388.539 110 470c0 6.738.152 25.41.441 32h259.122c.289-6.59.437-25.262.437-32 0-81.46-21.977-153.45-55.598-196.828 16.094-34.05 19.262-75.348 11.688-111.184 2.965 6.239 1.097 2.383 63.91 128.012l60-40 1.383-.629zm0 0" opacity="1" data-original="#ff6284"></path><g fill="#6e6e6e"><path d="M451.383 249.371 470 290l-60 40-20-40 60-40zM290 10l42.332 24.191L310 90l10 20-80 60zM190 10l50 160-80-60 10-20-22.328-55.809zM90 290l-20 40-60-40 18.621-40.629L30 250zm0 0" fill="#6e6e6e" opacity="1" data-original="#6e6e6e"></path></g><path d="M250 220c-5.52 0-10 4.48-10 10s4.48 10 10 10c5.523 0 10-4.48 10-10s-4.477-10-10-10zM250 280c-5.52 0-10 4.48-10 10s4.48 10 10 10c5.523 0 10-4.48 10-10s-4.477-10-10-10zM250 340c-5.52 0-10 4.48-10 10s4.48 10 10 10c5.523 0 10-4.48 10-10s-4.477-10-10-10zm0 0" fill="#000000" opacity="1" data-original="#000000"></path><path d="M479.094 285.836 374.449 57.516c-4.39-9.559-11.527-17.368-20.648-22.578L294.965 1.316a10.041 10.041 0 0 0-4.887-1.312c-.027 0-.05-.004-.078-.004H190c-.023 0-.05.004-.078.004a10.127 10.127 0 0 0-4.883 1.312L126.2 34.937c-9.117 5.211-16.254 13.02-20.648 22.586L.91 285.836a10.002 10.002 0 0 0 3.542 12.484l60 40c5.004 3.336 11.805 1.528 14.492-3.847L140.34 211.68c1.25 21.351 5.926 41.875 13.73 60.21C120.13 318.817 100 392.263 100 470c0 6.117.14 25.36.453 32.441a9.998 9.998 0 0 0 9.988 9.559h259.121a9.998 9.998 0 0 0 9.989-9.559c.312-7.082.449-26.324.449-32.441 0-77.738-20.125-151.184-54.066-198.11 7.804-18.324 12.48-38.847 13.726-60.21l61.399 122.793c2.687 5.375 9.488 7.183 14.488 3.847l60-40a9.999 9.999 0 0 0 3.547-12.484zM300.719 86.286a9.997 9.997 0 0 0 .34 8.187l6.265 12.535-48.535 36.402 37.05-118.558 23.977 13.699zm-121.434 0L160.188 38.55l23.976-13.7 37.05 118.56-48.534-36.403 6.265-12.535a9.997 9.997 0 0 0 .34-8.188zM276.398 20 240 136.473 203.602 20zM66.125 315.395l-43.48-28.985 10.285-22.437 44.18 29.453zM120 470c0-76.184 20.004-147.477 53.504-190.703a10.002 10.002 0 0 0 1.14-10.399c-15.085-31.945-18.113-70.941-10.949-104.84a9.998 9.998 0 0 0-6.578-11.542 9.996 9.996 0 0 0-12.234 5.18c-2.762 5.808-.746 1.671-58.758 117.699l-44.754-29.836 82.36-179.696c2.636-5.746 6.921-10.433 12.39-13.558l6.535-3.735 16.395 40.973-7.992 15.984A10.002 10.002 0 0 0 154.004 118l69.535 52.152C208.711 183.344 200 202.512 200 222.5V492h-79.805c-.129-7.91-.195-17.652-.195-22zm215.121-312.305a9.998 9.998 0 0 0-18.813 6.363c7.126 33.72 4.208 72.778-10.945 104.84a9.994 9.994 0 0 0 1.137 10.399C340 322.523 360 393.817 360 470c0 4.348-.063 14.09-.191 22H220V222.5c0-15.656 7.477-30.61 20-40l86-64.5c.027-.02.047-.04.074-.059 3.809-2.906 5.004-8.144 2.871-12.414l-7.992-15.98 16.395-40.977 6.53 3.73a29.902 29.902 0 0 1 12.395 13.555l82.36 179.707-44.754 29.836c-55.45-110.902-55.95-111.796-58.758-117.703zm78.758 157.7-10.984-21.97 44.18-29.452 10.284 22.437zm0 0" fill="#000000" opacity="1" data-original="#000000"></path><path d="M280 350c0 5.523 4.48 10 10 10h20c5.523 0 10-4.477 10-10s-4.477-10-10-10h-20c-5.52 0-10 4.477-10 10zm0 0" fill="#000000" opacity="1" data-original="#000000"></path></g></svg>