<svg xmlns="http://www.w3.org/2000/svg" version="1.1" xmlns:xlink="http://www.w3.org/1999/xlink" width="512" height="512" x="0" y="0" viewBox="0 0 682.667 682.667" style="enable-background:new 0 0 512 512" xml:space="preserve"><g><defs><clipPath id="a" clipPathUnits="userSpaceOnUse"><path d="M0 512h512V0H0Z" fill="#000000" opacity="1" data-original="#000000"></path></clipPath></defs><g clip-path="url(#a)" transform="matrix(1.33333 0 0 -1.33333 0 682.667)"><path d="m0 0-8.396-40.827c-1.149-5.592 2.607-11.01 8.246-11.896l30.821-4.839a10.003 10.003 0 0 1 11.257 7.465L52.107-9.193z" style="fill-opacity:1;fill-rule:nonzero;stroke:none" transform="translate(20.656 65.184)" fill="#d8ecfe" data-original="#d8ecfe"></path><path d="m0 0-8.396-40.827c-1.149-5.592 2.607-11.01 8.246-11.896l30.821-4.839a10.003 10.003 0 0 1 11.257 7.465L52.107-9.193z" style="stroke-width:15;stroke-linecap:round;stroke-linejoin:round;stroke-miterlimit:10;stroke-dasharray:none;stroke-opacity:1" transform="translate(20.656 65.184)" fill="none" stroke="#000000" stroke-width="15" stroke-linecap="round" stroke-linejoin="round" stroke-miterlimit="10" stroke-dasharray="none" stroke-opacity="" data-original="#000000"></path><path d="m0 0 8.395-40.827c1.15-5.592-2.606-11.01-8.246-11.896l-30.82-4.839a10.003 10.003 0 0 0-11.257 7.465L-52.107-9.193z" style="fill-opacity:1;fill-rule:nonzero;stroke:none" transform="translate(491.342 65.184)" fill="#eaf6ff" data-original="#eaf6ff"></path><path d="m0 0-23.22-3.65c3.57 2.11 5.61 6.32 4.72 10.64l-8.6 40.98 26.95 4.75 8.4-40.82C9.4 6.3 5.64.89 0 0" style="fill-opacity:1;fill-rule:nonzero;stroke:none" transform="translate(491.49 12.46)" fill="#c4e2ff" data-original="#c4e2ff"></path><path d="m0 0 8.395-40.827c1.15-5.592-2.606-11.01-8.246-11.896l-30.82-4.839a10.003 10.003 0 0 0-11.257 7.465L-52.107-9.193z" style="stroke-width:15;stroke-linecap:round;stroke-linejoin:round;stroke-miterlimit:10;stroke-dasharray:none;stroke-opacity:1" transform="translate(491.342 65.184)" fill="none" stroke="#000000" stroke-width="15" stroke-linecap="round" stroke-linejoin="round" stroke-miterlimit="10" stroke-dasharray="none" stroke-opacity="" data-original="#000000"></path><path d="m0 0 54-23.205a20.006 20.006 0 0 0 11.884-15.404l52.168-346.928c.814-5.414-2.876-10.477-8.279-11.359l-43.783-7.147c-10.964-1.79-21.286 5.696-22.99 16.674L-.823-104.976z" style="fill-opacity:1;fill-rule:nonzero;stroke:none" transform="translate(379.328 453.05)" fill="#b4daff" data-original="#b4daff"></path><path d="m0 0-43.78-7.141A19.916 19.916 0 0 0-58.3-3.9L-34.36 0c5.4.89 9.09 5.949 8.28 11.359L-78.25 358.29a20.01 20.01 0 0 1-11.88 15.409l-19.75 8.49.11 14.71 54-23.2a20.01 20.01 0 0 0 11.88-15.409L8.28 11.359C9.09 5.949 5.4.89 0 0" style="fill-opacity:1;fill-rule:nonzero;stroke:none" transform="translate(489.1 56.15)" fill="#8bc9fe" data-original="#8bc9fe"></path><path d="m0 0-37.846 251.679a20.005 20.005 0 0 1-11.883 15.404l-54 23.205-.824-104.976 43.824-282.393c1.703-10.978 12.025-18.464 22.989-16.674l43.783 7.148c5.404.881 9.094 5.944 8.28 11.358l-8.969 59.64a64.842 64.842 0 0 1-.494-.069" style="stroke-width:15;stroke-linecap:round;stroke-linejoin:round;stroke-miterlimit:10;stroke-dasharray:none;stroke-opacity:1" transform="translate(483.057 162.763)" fill="none" stroke="#000000" stroke-width="15" stroke-linecap="round" stroke-linejoin="round" stroke-miterlimit="10" stroke-dasharray="none" stroke-opacity="" data-original="#000000"></path><path d="m0 0-54-23.205a20.006 20.006 0 0 1-11.884-15.404l-52.168-346.928c-.814-5.414 2.876-10.477 8.279-11.359l43.783-7.147c10.964-1.79 21.286 5.696 22.99 16.674L.823-104.976z" style="fill-opacity:1;fill-rule:nonzero;stroke:none" transform="translate(132.67 453.05)" fill="#b4daff" data-original="#b4daff"></path><path d="m0 0-54-23.205a20.006 20.006 0 0 1-11.884-15.404l-52.168-346.928c-.814-5.414 2.876-10.477 8.279-11.359l43.783-7.147c10.964-1.79 21.286 5.696 22.99 16.674L.823-104.976z" style="stroke-width:15;stroke-linecap:round;stroke-linejoin:round;stroke-miterlimit:10;stroke-dasharray:none;stroke-opacity:1" transform="translate(132.67 453.05)" fill="none" stroke="#000000" stroke-width="15" stroke-linecap="round" stroke-linejoin="round" stroke-miterlimit="10" stroke-dasharray="none" stroke-opacity="" data-original="#000000"></path><path d="M0 0v357.232c0 4.542-3.06 8.514-7.452 9.672l-129.253 34.075c-1.671.44-3.428.44-5.099 0l-129.253-34.075a10.003 10.003 0 0 1-7.452-9.672V0c0-5.524 4.478-10.002 10.002-10.002h258.506C-4.478-10.002 0-5.524 0 0" style="fill-opacity:1;fill-rule:nonzero;stroke:none" transform="translate(395.253 88.102)" fill="#b4daff" data-original="#b4daff"></path><path d="M0 0c.57-34.35-18.67-78.21-31.12-102.88a24.913 24.913 0 0 0-9.21-10.04c-3.86-2.38-8.36-3.69-13.11-3.69-5.22 0-10.22 1.6-14.48 4.62l-35.28 25.07-17.57 4.31-17.57-4.31-35.28-25.07a24.917 24.917 0 0 0-14.48-4.62c-9.49 0-18.04 5.26-22.32 13.73C-222.87-78.21-242.11-34.35-241.54 0l118.22 31.16c1.67.44 3.43.44 5.1 0z" style="fill-opacity:1;fill-rule:nonzero;stroke:none" transform="translate(376.769 457.92)" fill="#8bc9fe" data-original="#8bc9fe"></path><path d="M0 0v-32.358C0-37.883-4.478-42.36-10.001-42.36h-124.332V0Z" style="fill-opacity:1;fill-rule:nonzero;stroke:none" transform="translate(395.253 120.46)" fill="#eaf6ff" data-original="#eaf6ff"></path><path d="M0 0v20.631c0 4.542-3.06 8.514-7.452 9.672l-29.236 7.707" style="stroke-width:15;stroke-linecap:round;stroke-linejoin:round;stroke-miterlimit:10;stroke-dasharray:none;stroke-opacity:1" transform="translate(395.253 424.703)" fill="none" stroke="#000000" stroke-width="15" stroke-linecap="round" stroke-linejoin="round" stroke-miterlimit="10" stroke-dasharray="none" stroke-opacity="" data-original="#000000"></path><path d="M0 0h115c5.524 0 10.002 4.478 10.002 10.002v279.543" style="stroke-width:15;stroke-linecap:round;stroke-linejoin:round;stroke-miterlimit:10;stroke-dasharray:none;stroke-opacity:1" transform="translate(270.252 78.1)" fill="none" stroke="#000000" stroke-width="15" stroke-linecap="round" stroke-linejoin="round" stroke-miterlimit="10" stroke-dasharray="none" stroke-opacity="" data-original="#000000"></path><path d="M0 0v-422.351h-124.33c-5.53 0-10 4.481-10 10V-43.12c0 4.55 3.06 8.519 7.45 9.68l11.03 2.91z" style="fill-opacity:1;fill-rule:nonzero;stroke:none" transform="translate(251.08 488.45)" fill="#b4daff" data-original="#b4daff"></path><path d="M0 0v-114.351l-12.65-3.099-35.28-25.071a24.924 24.924 0 0 0-14.48-4.62c-9.49 0-18.04 5.261-22.32 13.731-12.45 24.67-31.69 68.53-31.12 102.88z" style="fill-opacity:1;fill-rule:nonzero;stroke:none" transform="translate(251.08 488.45)" fill="#8bc9fe" data-original="#8bc9fe"></path><path d="M0 0v-32.358C0-37.883 4.478-42.36 10.002-42.36h124.332V0Z" style="fill-opacity:1;fill-rule:nonzero;stroke:none" transform="translate(116.745 108.458)" fill="#eaf6ff" data-original="#eaf6ff"></path><path d="M0 0h-134.334" style="stroke-width:15;stroke-linecap:round;stroke-linejoin:round;stroke-miterlimit:10;stroke-dasharray:none;stroke-opacity:1" transform="translate(251.079 108.458)" fill="none" stroke="#000000" stroke-width="15" stroke-linecap="round" stroke-linejoin="round" stroke-miterlimit="10" stroke-dasharray="none" stroke-opacity="" data-original="#000000"></path><path d="M0 0h134.333" style="stroke-width:15;stroke-linecap:round;stroke-linejoin:round;stroke-miterlimit:10;stroke-dasharray:none;stroke-opacity:1" transform="translate(260.92 120.46)" fill="none" stroke="#000000" stroke-width="15" stroke-linecap="round" stroke-linejoin="round" stroke-miterlimit="10" stroke-dasharray="none" stroke-opacity="" data-original="#000000"></path><path d="M0 0v-291.545c0-5.524 4.478-10.002 10.002-10.002h124.332" style="stroke-width:15;stroke-linecap:round;stroke-linejoin:round;stroke-miterlimit:10;stroke-dasharray:none;stroke-opacity:1" transform="translate(116.745 367.644)" fill="none" stroke="#000000" stroke-width="15" stroke-linecap="round" stroke-linejoin="round" stroke-miterlimit="10" stroke-dasharray="none" stroke-opacity="" data-original="#000000"></path><path d="m0 0-126.882-33.449a10.003 10.003 0 0 1-7.452-9.672v-23.631" style="stroke-width:15;stroke-linecap:round;stroke-linejoin:round;stroke-miterlimit:10;stroke-dasharray:none;stroke-opacity:1" transform="translate(251.079 488.455)" fill="none" stroke="#000000" stroke-width="15" stroke-linecap="round" stroke-linejoin="round" stroke-miterlimit="10" stroke-dasharray="none" stroke-opacity="" data-original="#000000"></path><path d="M0 0v-319.801c0-5.519-4.48-10-10.01-10h-29.94V0Z" style="fill-opacity:1;fill-rule:nonzero;stroke:none" transform="translate(268.749 395.9)" fill="#d8ecfe" data-original="#d8ecfe"></path><path d="M0 0v-23.721l-12.75 3.13-17.57-4.309-9.63-6.84V0Z" style="fill-opacity:1;fill-rule:nonzero;stroke:none" transform="translate(268.749 395.9)" fill="#c4e2ff" data-original="#c4e2ff"></path><path d="M0 0v-162.258h29.941c5.523 0 10.001 4.478 10.001 10.002v319.799H0V36.29" style="stroke-width:15;stroke-linecap:round;stroke-linejoin:round;stroke-miterlimit:10;stroke-dasharray:none;stroke-opacity:1" transform="translate(228.803 228.356)" fill="none" stroke="#000000" stroke-width="15" stroke-linecap="round" stroke-linejoin="round" stroke-miterlimit="10" stroke-dasharray="none" stroke-opacity="" data-original="#000000"></path><path d="M0 0s22.805 11.472 67.729 11.472S135.458 0 135.458 0s14.149-97.13-67.729-97.13S0 0 0 0" style="fill-opacity:1;fill-rule:nonzero;stroke:none" transform="translate(188.27 493.028)" fill="#26a5fe" data-original="#26a5fe"></path><path d="M0 0c-23.45 0-39.02 7.97-49.3 19.34 5.69-1.32 12.03-2.04 19.07-2.04 66.55 0 69.66 64.17 68.49 88.189 19.58-3.389 29.47-8.359 29.47-8.359S81.88 0 0 0" style="fill-opacity:1;fill-rule:nonzero;stroke:none" transform="translate(255.999 395.9)" fill="#0694fc" data-original="#0694fc"></path><path d="M0 0c-3.951 1.801-26.485 11.183-67.102 11.183-40.617 0-63.151-9.382-67.102-11.183-3.1 19.744-.629 36.707-.629 36.707s22.803 11.472 67.731 11.472S.63 36.707.63 36.707 3.1 19.744 0 0" style="fill-opacity:1;fill-rule:nonzero;stroke:none" transform="translate(323.101 456.321)" fill="#8bc9fe" data-original="#8bc9fe"></path><path d="M0 0c-2.61 1.189-13.3 5.68-31.95 8.59 3.4 14.109 3.53 27.87 3.11 36.479C-9.26 41.68.63 36.71.63 36.71S3.1 19.75 0 0" style="fill-opacity:1;fill-rule:nonzero;stroke:none" transform="translate(323.1 456.32)" fill="#60b8ff" data-original="#60b8ff"></path><path d="M0 0c-3.951 1.801-26.485 11.183-67.102 11.183-40.617 0-63.151-9.382-67.102-11.183" style="stroke-width:15;stroke-linecap:round;stroke-linejoin:round;stroke-miterlimit:10;stroke-dasharray:none;stroke-opacity:1" transform="translate(323.101 456.321)" fill="none" stroke="#000000" stroke-width="15" stroke-linecap="round" stroke-linejoin="round" stroke-miterlimit="10" stroke-dasharray="none" stroke-opacity="" data-original="#000000"></path><path d="M0 0s22.805 11.472 67.729 11.472S135.458 0 135.458 0s14.149-97.13-67.729-97.13S0 0 0 0Z" style="stroke-width:15;stroke-linecap:round;stroke-linejoin:round;stroke-miterlimit:10;stroke-dasharray:none;stroke-opacity:1" transform="translate(188.27 493.028)" fill="none" stroke="#000000" stroke-width="15" stroke-linecap="round" stroke-linejoin="round" stroke-miterlimit="10" stroke-dasharray="none" stroke-opacity="" data-original="#000000"></path><path d="M0 0s-3.379-60.868 67.729-97.13l-26.041-6.383-38.396-27.278c-2.493-1.771-5.978-.915-7.355 1.815C-12.517-112.219-37.858-58.5-32.295-26.9c0 0 16.664 19.591 32.295 26.9" style="fill-opacity:1;fill-rule:nonzero;stroke:none" transform="translate(188.27 493.028)" fill="#d8ecfe" data-original="#d8ecfe"></path><path d="M0 0s-3.379-60.868 67.729-97.13l-26.041-6.383-38.396-27.278c-2.493-1.771-5.978-.915-7.355 1.815C-12.517-112.219-37.858-58.5-32.295-26.9c0 0 16.664 19.591 32.295 26.9z" style="stroke-width:15;stroke-linecap:round;stroke-linejoin:round;stroke-miterlimit:10;stroke-dasharray:none;stroke-opacity:1" transform="translate(188.27 493.028)" fill="none" stroke="#000000" stroke-width="15" stroke-linecap="round" stroke-linejoin="round" stroke-miterlimit="10" stroke-dasharray="none" stroke-opacity="" data-original="#000000"></path><path d="M0 0s3.379-60.868-67.729-97.13l26.041-6.383 38.395-27.278c2.493-1.771 5.979-.915 7.356 1.815C12.517-112.219 37.858-58.5 32.294-26.9 32.294-26.9 15.631-7.309 0 0" style="fill-opacity:1;fill-rule:nonzero;stroke:none" transform="translate(323.728 493.028)" fill="#d8ecfe" data-original="#d8ecfe"></path><path d="M0 0c-8.007-6.908-17.669-13.532-29.353-19.49l26.042-6.383L35.084-53.15c2.493-1.772 5.979-.916 7.356 1.814C50.894-34.579 76.235 19.14 70.671 50.739c.001 0-16.663 19.592-32.294 26.901 0 0 1.303-23.558-14.829-50.092" style="stroke-width:15;stroke-linecap:round;stroke-linejoin:round;stroke-miterlimit:10;stroke-dasharray:none;stroke-opacity:1" transform="translate(285.352 415.389)" fill="none" stroke="#000000" stroke-width="15" stroke-linecap="round" stroke-linejoin="round" stroke-miterlimit="10" stroke-dasharray="none" stroke-opacity="" data-original="#000000"></path><path d="M0 0h.104" style="stroke-width:15;stroke-linecap:round;stroke-linejoin:round;stroke-miterlimit:10;stroke-dasharray:none;stroke-opacity:1" transform="translate(248.723 336.095)" fill="none" stroke="#000000" stroke-width="15" stroke-linecap="round" stroke-linejoin="round" stroke-miterlimit="10" stroke-dasharray="none" stroke-opacity="" data-original="#000000"></path><path d="M0 0h.104" style="stroke-width:15;stroke-linecap:round;stroke-linejoin:round;stroke-miterlimit:10;stroke-dasharray:none;stroke-opacity:1" transform="translate(248.723 270.198)" fill="none" stroke="#000000" stroke-width="15" stroke-linecap="round" stroke-linejoin="round" stroke-miterlimit="10" stroke-dasharray="none" stroke-opacity="" data-original="#000000"></path><path d="m0 0 .104-.001" style="stroke-width:15;stroke-linecap:round;stroke-linejoin:round;stroke-miterlimit:10;stroke-dasharray:none;stroke-opacity:1" transform="translate(248.723 204.303)" fill="none" stroke="#000000" stroke-width="15" stroke-linecap="round" stroke-linejoin="round" stroke-miterlimit="10" stroke-dasharray="none" stroke-opacity="" data-original="#000000"></path><path d="M0 0h.104" style="stroke-width:15;stroke-linecap:round;stroke-linejoin:round;stroke-miterlimit:10;stroke-dasharray:none;stroke-opacity:1" transform="translate(248.723 138.406)" fill="none" stroke="#000000" stroke-width="15" stroke-linecap="round" stroke-linejoin="round" stroke-miterlimit="10" stroke-dasharray="none" stroke-opacity="" data-original="#000000"></path><path d="m0 0-24.213-7.461a5.01 5.01 0 0 0-2.945 0L-51.371 0a5.001 5.001 0 0 0-3.528 4.779v17.4a5.002 5.002 0 0 0 5.001 5.001h48.425a5.002 5.002 0 0 0 5.001-5.001v-17.4A5.001 5.001 0 0 0 0 0" style="fill-opacity:1;fill-rule:nonzero;stroke:none" transform="translate(197.22 310.139)" fill="#d8ecfe" data-original="#d8ecfe"></path><path d="m0 0-24.213-7.461a5.01 5.01 0 0 0-2.945 0L-51.371 0a5.001 5.001 0 0 0-3.528 4.779v17.4a5.002 5.002 0 0 0 5.001 5.001h48.425a5.002 5.002 0 0 0 5.001-5.001v-17.4A5.001 5.001 0 0 0 0 0Z" style="stroke-width:15;stroke-linecap:round;stroke-linejoin:round;stroke-miterlimit:10;stroke-dasharray:none;stroke-opacity:1" transform="translate(197.22 310.139)" fill="none" stroke="#000000" stroke-width="15" stroke-linecap="round" stroke-linejoin="round" stroke-miterlimit="10" stroke-dasharray="none" stroke-opacity="" data-original="#000000"></path><path d="m0 0-24.213-7.461a5.01 5.01 0 0 0-2.945 0L-51.371 0a5.001 5.001 0 0 0-3.528 4.779v17.4a5.002 5.002 0 0 0 5.001 5.001h48.425a5.002 5.002 0 0 0 5.001-5.001v-17.4A5.001 5.001 0 0 0 0 0" style="fill-opacity:1;fill-rule:nonzero;stroke:none" transform="translate(366.15 310.139)" fill="#d8ecfe" data-original="#d8ecfe"></path><path d="m0 0-24.213-7.461a5.01 5.01 0 0 0-2.945 0L-51.371 0a5.001 5.001 0 0 0-3.528 4.779v17.4a5.002 5.002 0 0 0 5.001 5.001h48.425a5.002 5.002 0 0 0 5.001-5.001v-17.4A5.001 5.001 0 0 0 0 0Z" style="stroke-width:15;stroke-linecap:round;stroke-linejoin:round;stroke-miterlimit:10;stroke-dasharray:none;stroke-opacity:1" transform="translate(366.15 310.139)" fill="none" stroke="#000000" stroke-width="15" stroke-linecap="round" stroke-linejoin="round" stroke-miterlimit="10" stroke-dasharray="none" stroke-opacity="" data-original="#000000"></path><path d="M0 0h112.059" style="stroke-width:15;stroke-linecap:round;stroke-linejoin:round;stroke-miterlimit:10;stroke-dasharray:none;stroke-opacity:1" transform="translate(116.745 337.318)" fill="none" stroke="#000000" stroke-width="15" stroke-linecap="round" stroke-linejoin="round" stroke-miterlimit="10" stroke-dasharray="none" stroke-opacity="" data-original="#000000"></path><path d="M0 0h123.62" style="stroke-width:15;stroke-linecap:round;stroke-linejoin:round;stroke-miterlimit:10;stroke-dasharray:none;stroke-opacity:1" transform="translate(271.633 337.318)" fill="none" stroke="#000000" stroke-width="15" stroke-linecap="round" stroke-linejoin="round" stroke-miterlimit="10" stroke-dasharray="none" stroke-opacity="" data-original="#000000"></path><path d="M0 0v-131.793" style="stroke-width:15;stroke-linecap:round;stroke-linejoin:round;stroke-miterlimit:10;stroke-dasharray:none;stroke-opacity:1" transform="translate(171.535 243.164)" fill="none" stroke="#000000" stroke-width="15" stroke-linecap="round" stroke-linejoin="round" stroke-miterlimit="10" stroke-dasharray="none" stroke-opacity="" data-original="#000000"></path><path d="M0 0v-122.792" style="stroke-width:15;stroke-linecap:round;stroke-linejoin:round;stroke-miterlimit:10;stroke-dasharray:none;stroke-opacity:1" transform="translate(340.464 243.164)" fill="none" stroke="#000000" stroke-width="15" stroke-linecap="round" stroke-linejoin="round" stroke-miterlimit="10" stroke-dasharray="none" stroke-opacity="" data-original="#000000"></path><path d="M0 0h-28.292a5 5 0 0 0-5 5v16.979a5 5 0 0 0 5 5H0a5 5 0 0 0 5-5V5a5 5 0 0 0-5-5" style="fill-opacity:1;fill-rule:nonzero;stroke:none" transform="translate(270.272 444.59)" fill="#eff5f6" data-original="#eff5f6"></path><path d="M0 0h-28.292a5 5 0 0 0-5 5v16.979a5 5 0 0 0 5 5H0a5 5 0 0 0 5-5V5a5 5 0 0 0-5-5Z" style="stroke-width:15;stroke-linecap:round;stroke-linejoin:round;stroke-miterlimit:10;stroke-dasharray:none;stroke-opacity:1" transform="translate(270.272 444.59)" fill="none" stroke="#000000" stroke-width="15" stroke-linecap="round" stroke-linejoin="round" stroke-miterlimit="10" stroke-dasharray="none" stroke-opacity="" data-original="#000000"></path></g></g></svg>