<svg xmlns="http://www.w3.org/2000/svg" version="1.1" xmlns:xlink="http://www.w3.org/1999/xlink" width="512" height="512" x="0" y="0" viewBox="0 0 64 64" style="enable-background:new 0 0 512 512" xml:space="preserve"><g><path fill="#8fcbf7" d="M46.15 12.5C49.96 14.26 55 17.77 55 24c0 0 4 4 1 9 0 0 4 6 0 10 0 0 4 2 2 7-.18.46-.43.86-.73 1.22-.13.15-.27.29-.41.43-2.11 2-6 2.4-8.5 2.42-.16-1.28-.41-2.5-.65-3.51 2.82-1.74.74-8.43-.69-12.1l-.01-.01c2.54-1.77.76-7.45-.38-10.5 5.22-.71 1.57-10.68-.48-15.45z" opacity="1" data-original="#8fcbf7"></path><path fill="#3482f1" d="M50.87 51.35c.18.74.36 1.59.5 2.5-1.08.16-2.13.21-3.01.22-.16-1.28-.41-2.5-.65-3.51 2.82-1.74.74-8.43-.69-12.1l-.01-.01c2.54-1.77.76-7.45-.38-10.5 5.22-.71 1.57-10.68-.48-15.45 1.19.55 2.5 1.27 3.74 2.19 2.05 5.08 4.65 13.4-.1 14.05 1.14 3.05 2.92 8.73.38 10.5l.01.01c1.43 3.67 3.51 10.36.69 12.1z" opacity="1" data-original="#3482f1"></path><path fill="#d8ecf1" d="M48.36 54.07c2.5-.02 6.39-.42 8.5-2.42.14-.14.28-.28.41-.43.78 1.23 1.15 2.89-.27 4.78-1.78 2.38-5.7 2.64-8.56 2.45.18-1.38.11-2.92-.08-4.38zM7.14 51.65c2.11 2 6 2.4 8.5 2.42-.19 1.46-.26 3-.08 4.38-2.86.19-6.78-.07-8.56-2.45-1.42-1.89-1.05-3.55-.27-4.78.13.15.27.29.41.43z" opacity="1" data-original="#d8ecf1"></path><path fill="#8fcbf7" d="M8 43c-4-4 0-10 0-10-3-5 1-9 1-9 0-6.23 5.04-9.74 8.85-11.5-2.05 4.77-5.7 14.74-.48 15.45-1.14 3.05-2.92 8.73-.38 10.5l-.01.01c-1.43 3.67-3.51 10.36-.69 12.1a33.16 33.16 0 0 0-.65 3.51c-2.5-.02-6.39-.42-8.5-2.42-.14-.14-.28-.28-.41-.43-.3-.36-.55-.76-.73-1.22-2-5 2-7 2-7z" opacity="1" data-original="#8fcbf7"></path><path fill="#3482f1" d="M17.37 27.95c-1.14 3.05-2.92 8.73-.38 10.5l-.01.01c-1.43 3.67-3.51 10.36-.69 12.1a33.16 33.16 0 0 0-.65 3.51c-.9-.01-1.99-.06-3.1-.23.16-1.12.38-2.17.59-3.06-2.82-1.74-.74-8.44.69-12.11l.01-.01c-2.54-1.76-.76-7.45.38-10.5-4.49-.61-2.41-8.09-.44-13.2 1.33-1.05 2.78-1.86 4.08-2.46-2.05 4.77-5.7 14.74-.48 15.45z" opacity="1" data-original="#3482f1"></path><path fill="#d8ecf1" d="M34 6.95V12h-4V6.95c.63.03 1.3.05 2 .05s1.37-.02 2-.05z" opacity="1" data-original="#d8ecf1"></path><path fill="#8fcbf7" d="M22 4c.87 1.75 3.64 2.73 8 2.95v7c-4.36-.22-7.13-1.2-8-2.95z" opacity="1" data-original="#8fcbf7"></path><path fill="#3482f1" d="M30 11.97v1.98c-4.36-.22-7.13-1.2-8-2.95V4c.42.85 1.28 1.51 2.55 2v3.26c.69 1.38 2.55 2.28 5.45 2.71z" opacity="1" data-original="#3482f1"></path><path fill="#1b56ae" d="M32 1c5.52 0 10 1.34 10 3-.87 1.75-3.64 2.73-8 2.95-.63.03-1.3.05-2 .05s-1.37-.02-2-.05c-4.36-.22-7.13-1.2-8-2.95 0-1.66 4.48-3 10-3z" opacity="1" data-original="#1b56ae"></path><path fill="#3482f1" d="M42 4c-.04.09-.09.18-.16.26-1.83-.61-4.5-1-7.46-1-5.18 0-9.44 1.18-9.95 2.69C23.22 5.47 22.41 4.82 22 4c0-1.66 4.48-3 10-3s10 1.34 10 3z" opacity="1" data-original="#3482f1"></path><path fill="#8fcbf7" d="M42 4v7c-.87 1.75-3.64 2.73-8 2.95v-7c4.36-.22 7.13-1.2 8-2.95z" opacity="1" data-original="#8fcbf7"></path><path fill="#3482f1" d="M42 4v7c-.87 1.75-3.64 2.73-8 2.95v-1.72c2.87-.43 4.72-1.33 5.4-2.71v-3.5C40.7 5.53 41.57 4.86 42 4zM34 13.95V63h-4V12h4z" opacity="1" data-original="#3482f1"></path><path fill="#d8ecf1" d="M34 13.95c4.36-.22 7.13-1.2 8-2.95 0 0 1.85.43 4.15 1.5 2.05 4.77 5.7 14.74.48 15.45-.2.04-.41.05-.63.05H34z" opacity="1" data-original="#d8ecf1"></path><path fill="#8fcbf7" d="M46.63 27.95c-.2.04-.41.05-.63.05H34v-3.28h7.7c.22 0 .43-.01.63-.05 4.58-.62 2.33-8.37.32-13.49.74.21 2.03.63 3.5 1.32 2.05 4.77 5.7 14.74.48 15.45z" opacity="1" data-original="#8fcbf7"></path><path fill="#d8ecf1" d="M22 11c.87 1.75 3.64 2.73 8 2.95V28H18c-.22 0-.43-.01-.63-.05-5.22-.71-1.57-10.68.48-15.45C20.15 11.43 22 11 22 11z" opacity="1" data-original="#d8ecf1"></path><path fill="#8fcbf7" d="M20 23c-1.778-3.555 1.183-7.111 3.268-10.667-.575-.381-1.013-.82-1.268-1.333 0 0-1.85.43-4.15 1.5-2.05 4.77-5.7 14.74-.48 15.45.2.04.41.05.63.05h12v-2.964c-3.178-2.281-8.202.661-10-2.036z" opacity="1" data-original="#8fcbf7"></path><path fill="#d8ecf1" d="M30 28v11H19c-.86 0-1.52-.2-2.01-.55-2.54-1.77-.76-7.45.38-10.5.2.04.41.05.63.05z" opacity="1" data-original="#d8ecf1"></path><path fill="#8fcbf7" d="M30 35.68V39H19c-.86 0-1.52-.2-2.01-.55-2.54-1.77-.76-7.45.38-10.5.2.04.41.05.63.05h2.29c-.74 2.81-1.05 5.9.71 7.13.49.35 1.15.55 2.01.55z" opacity="1" data-original="#8fcbf7"></path><path fill="#d8ecf1" d="M46.63 27.95c1.14 3.05 2.92 8.73.38 10.5-.49.35-1.15.55-2.01.55H34V28h12c.22 0 .43-.01.63-.05z" opacity="1" data-original="#d8ecf1"></path><path fill="#8fcbf7" d="M47.01 38.45c-.49.35-1.15.55-2.01.55H34v-2.84h7c.86 0 1.52-.2 2.01-.55 1.86-1.3 1.4-4.69.58-7.61H46c.22 0 .43-.01.63-.05 1.14 3.05 2.92 8.73.38 10.5z" opacity="1" data-original="#8fcbf7"></path><path fill="#d8ecf1" d="M47.02 38.46c1.43 3.67 3.51 10.36.69 12.1-.44.29-1 .44-1.71.44H34V39h11c.86 0 1.52-.2 2.01-.55z" opacity="1" data-original="#d8ecf1"></path><path fill="#8fcbf7" d="M47.71 50.56c-.44.29-1 .44-1.71.44H34v-3.15h8c.71 0 1.27-.15 1.71-.44 2.02-1.24 1.53-5.01.57-8.41H45c.86 0 1.52-.2 2.01-.55l.01.01c1.43 3.67 3.51 10.36.69 12.1z" opacity="1" data-original="#8fcbf7"></path><path fill="#d8ecf1" d="M30 39v12H18c-.71 0-1.27-.15-1.71-.44-2.82-1.74-.74-8.43.69-12.1l.01-.01c.49.35 1.15.55 2.01.55z" opacity="1" data-original="#d8ecf1"></path><path fill="#8fcbf7" d="M30 47.81V51H18c-.71 0-1.27-.15-1.71-.44-2.82-1.74-.74-8.43.69-12.1l.01-.01c.49.35 1.15.55 2.01.55h.71c-.95 3.39-1.43 7.13.58 8.37.44.29 1 .44 1.71.44z" opacity="1" data-original="#8fcbf7"></path><path fill="#d8ecf1" d="M30 51v12H20c-2.93 0-4.11-2-4.44-4.55-.18-1.38-.11-2.92.08-4.38.16-1.28.41-2.5.65-3.51.44.29 1 .44 1.71.44z" opacity="1" data-original="#d8ecf1"></path><path fill="#8fcbf7" d="M30 59.72V63H20c-2.93 0-4.11-2-4.44-4.55-.18-1.38-.11-2.92.08-4.38.16-1.28.41-2.5.65-3.51.44.29 1 .44 1.71.44h.43c-.18 1.4-.23 2.86-.06 4.17.33 2.55 1.51 4.55 4.44 4.55z" opacity="1" data-original="#8fcbf7"></path><path fill="#d8ecf1" d="M48.36 54.07c.19 1.46.26 3 .08 4.38C48.11 61 46.93 63 44 63H34V51h12c.71 0 1.27-.15 1.71-.44.24 1.01.49 2.23.65 3.51z" opacity="1" data-original="#d8ecf1"></path><path fill="#8fcbf7" d="M48.44 58.45C48.11 61 46.93 63 44 63H34v-3.28h7.15c2.93 0 4.11-2 4.44-4.55.17-1.31.12-2.77-.06-4.17H46c.71 0 1.27-.15 1.71-.44.24 1.01.49 2.23.65 3.51.19 1.46.26 3 .08 4.38z" opacity="1" data-original="#8fcbf7"></path><g fill="#0e2b57"><path d="M18.139 20.767c-.39 1.627-.467 2.659-.462 3.238a1 1 0 0 0 1 .992l3.323.001a1 1 0 0 0 0-2h-2.252c.058-.448.16-1.03.336-1.764a1 1 0 0 0-1.945-.467zM19.664 36h.033a1 1 0 0 0 .998-.968c.016-.485.117-1.358.51-2.763a1 1 0 0 0-1.925-.538c-.358 1.282-.555 2.371-.582 3.237A1 1 0 0 0 19.664 36z" fill="#0e2b57" opacity="1" data-original="#0e2b57"></path><path d="M5.071 50.371c.13.323.295.629.485.923-.842 1.751-.629 3.611.644 5.305 1.729 2.312 5.003 2.901 7.89 2.901.221 0 .425-.016.64-.022.226 1.027.602 1.952 1.189 2.696C16.875 63.386 18.248 64 20 64h24c1.752 0 3.125-.614 4.082-1.826.587-.743.963-1.669 1.189-2.696.215.006.42.022.64.022 2.887 0 6.16-.589 7.889-2.9 1.273-1.695 1.487-3.556.645-5.307.189-.293.355-.599.484-.922 1.497-3.744.042-6.292-1.451-7.571 2.347-3.285 1.016-7.525-.318-9.828 2.071-4.011.309-7.686-1.165-9.373C55.712 14.581 45.893 11.071 43 10.232V4c0-2.748-5.702-4-11-4S21 1.252 21 4v6.232c-2.893.839-12.712 4.349-12.994 13.368-1.474 1.687-3.236 5.362-1.165 9.373-1.334 2.302-2.665 6.543-.318 9.828-1.494 1.279-2.949 3.827-1.452 7.57zM7.8 55.399c-.647-.861-.872-1.679-.698-2.509 2.037 1.504 4.949 2.025 7.427 2.147-.069.83-.094 1.657-.056 2.455-2.23.041-5.307-.266-6.673-2.093zM18.055 29H29v9H19c-1.304 0-1.696-.567-1.826-.753-.515-.742-1.05-2.799.881-8.247zM23 10.703l-.001-4.353c1.385.809 3.391 1.322 6.001 1.535v4.989c-3.196-.278-5.294-1.035-6-2.171zm18 .001c-.706 1.136-2.804 1.893-6 2.17V7.885c2.61-.213 4.615-.726 6-1.534zM45.945 29c1.931 5.448 1.396 7.505.882 8.247-.131.186-.523.753-1.827.753H35v-9zm1.674 20.301c-.205.3-.596.699-1.619.699H35V40h10c.561 0 1.037-.079 1.454-.201 1.674 4.603 2.113 8.118 1.165 9.502zM33 62h-2V13h2zm0-51h-2V7.987a40.682 40.682 0 0 0 2 0zM17.546 39.799c.417.122.893.201 1.454.201h10v10H18c-1.023 0-1.414-.399-1.619-.699-.948-1.384-.509-4.899 1.165-9.502zm-.059 21.136c-1.188-1.505-1.338-4.772-.46-9.035.296.059.613.1.973.1h11v10h-9c-1.125 0-1.946-.349-2.513-1.065zm29.026 0C45.946 61.651 45.125 62 44 62h-9V52h11c.36 0 .677-.041.973-.1.878 4.263.728 7.53-.46 9.035zm9.686-5.534c-1.365 1.825-4.441 2.132-6.673 2.092.038-.798.014-1.624-.056-2.455 2.479-.122 5.392-.643 7.427-2.147.175.83-.05 1.648-.698 2.51zm-2.211-31.68c-.615.782-1.436 1.718-2.538 2.444a1 1 0 1 0 1.1 1.67c1.02-.672 1.82-1.469 2.461-2.211.852 1.298 1.94 3.848.132 6.861-.048.08-.082.164-.106.251-1.307 1.217-2.439 2.008-3.355 2.316a1 1 0 0 0 .636 1.895c1.047-.351 2.196-1.082 3.489-2.207.82 1.751 1.87 5.083-.46 7.488-1.094.721-2.068 1.18-2.892 1.353a1 1 0 0 0 .411 1.958c.945-.198 1.998-.664 3.128-1.358.814.613 2.351 2.266 1.078 5.448a3.565 3.565 0 0 1-.898 1.295c-1.685 1.596-4.794 2.028-6.949 2.123a35.22 35.22 0 0 0-.398-2.089 3.54 3.54 0 0 0 .443-.527c1.74-2.54.439-7.637-1.077-11.699.104-.116.198-.232.277-.344 1.277-1.84 1.086-5.055-.547-9.766a3.621 3.621 0 0 0 1.565-1.32c1.729-2.626.427-7.883-1.36-12.583 2.91 1.834 5.74 4.716 5.86 9.002zm-8.605-10.464c2.687 6.345 3.6 11.172 2.433 12.944-.225.343-.659.799-1.816.799H35V14.875c3.763-.301 6.225-1.189 7.437-2.718.648.194 1.713.549 2.946 1.1zM32 2c5.401 0 8.366 1.244 8.909 1.859C40.213 4.773 38.139 6 32 6c-6.126 0-8.204-1.222-8.905-2.135C23.653 3.236 26.616 2 32 2zM21.563 12.157c1.212 1.529 3.675 2.417 7.437 2.718V27H18c-1.157 0-1.591-.456-1.816-.799-1.167-1.772-.254-6.598 2.433-12.944a24.764 24.764 0 0 1 2.946-1.1zM8.045 44.149c1.194.743 2.196 1.202 3.09 1.389a1 1 0 0 0 .411-1.958c-.784-.165-1.733-.632-2.988-1.473l-.01-.004c-2.21-2.424-1.171-5.67-.354-7.384 1.309 1.144 2.459 1.881 3.489 2.227a1 1 0 0 0 .635-1.894c-.899-.302-2.037-1.105-3.371-2.353a.973.973 0 0 0-.09-.214c-1.794-2.991-.711-5.551.137-6.856.64.74 1.437 1.536 2.456 2.206a.997.997 0 0 0 1.385-.285 1 1 0 0 0-.285-1.385c-1.102-.726-1.924-1.663-2.538-2.445.121-4.285 2.951-7.167 5.861-9.003-1.787 4.701-3.09 9.957-1.36 12.583.306.465.801.979 1.565 1.32-1.633 4.712-1.824 7.926-.547 9.766.078.113.173.229.277.344-1.516 4.062-2.817 9.159-1.077 11.699.118.172.265.352.443.527a35.22 35.22 0 0 0-.398 2.089c-2.155-.095-5.264-.527-6.952-2.126a3.576 3.576 0 0 1-.896-1.293c-1.29-3.223.299-4.877 1.117-5.477z" fill="#0e2b57" opacity="1" data-original="#0e2b57"></path></g></g></svg>