<svg xmlns="http://www.w3.org/2000/svg" version="1.1" xmlns:xlink="http://www.w3.org/1999/xlink" width="512" height="512" x="0" y="0" viewBox="0 0 511.232 511.232" style="enable-background:new 0 0 512 512" xml:space="preserve"><g><path fill="#ffc3e5" d="m354.616 11.539-12.46 74.61h-173.22v-71.32l24.99 2.57 1.88 1.04c37.27 20.61 82.47 20.82 119.93.57l3.93-2.12z" opacity="1" data-original="#ffc3e5"></path><path fill="#ffd1eb" d="M349.006 487.969c.03.3.05.61.08.91.71 7.99-5.62 14.85-13.64 14.85h-159.66c-8.02 0-14.35-6.86-13.64-14.85.03-.3.05-.61.08-.91l-1.27-.12h-76.31c-7.03 0-12.35-6.41-11.01-13.31 18.16-93.8 51.69-179.55 98.93-258.1l2.39-21.35v-83.3l-27.74 13.87a10.28 10.28 0 0 1-12.48-2.6l-35.51-42.53c-3.53-4.23-3.1-10.5.98-14.2l58.41-54.79c2.76-2.59 6.41-4.04 10.21-4.04h10.4c4.86 0 9.43 2.37 12.22 6.36l37.01 52.78a24.14 24.14 0 0 0 19.78 10.28h16.76c7.88 0 15.26-3.83 19.78-10.28l37.01-52.78c2.79-3.99 7.36-6.36 12.22-6.36h10.4c3.8 0 7.45 1.45 10.21 4.04l58.41 54.79c4.08 3.7 4.51 9.97.98 14.2l-35.51 42.53a10.28 10.28 0 0 1-12.48 2.6l-27.74-13.87v72.21l.39 32.44c47.24 78.55 80.77 164.3 98.93 258.1 1.34 6.9-3.98 13.31-11.01 13.31h-76.31z" opacity="1" data-original="#ffd1eb"></path><path fill="#ffc3e5" d="m338.666 216.439-.39-32.44v-15.001H221.294c-8.599 0-15.686-6.403-16.798-14.697v-52.242c0-9.63-10.134-15.893-18.748-11.587l-8.992 4.496a10.28 10.28 0 0 1-12.48-2.6l-12.07-14.456c-6.806-8.152-6.073-20.198 1.673-27.463l37.173-34.869c.321-.301.657-.584 1.001-.854l-.607-.866a14.933 14.933 0 0 0-12.228-6.36h-10.392c-3.8 0-7.45 1.45-10.21 4.04l-58.41 54.79c-4.08 3.7-4.51 9.97-.98 14.2l35.51 42.53a10.28 10.28 0 0 0 12.48 2.6l27.74-13.87V184l-2.39 32.44c-47.24 78.55-80.77 164.3-98.93 258.1-1.34 6.9 3.98 13.31 11.01 13.31h31.158c.033-.423.09-.849.173-1.277 17.164-88.654 48.058-170.118 91.28-245.108l.056-.097a19.818 19.818 0 0 1 17.175-9.931h115.179c2.503 0 4.939-.336 7.237-.985a814.8 814.8 0 0 0-8.238-14.013z" opacity="1" data-original="#ffc3e5"></path><path fill="#fbe88c" d="M339.667 183.998H172.565c-6.413 0-11.613 5.199-11.613 11.613v9.214c0 6.413 5.199 11.613 11.613 11.613h167.102c6.413 0 11.613-5.199 11.613-11.613v-9.214c-.001-6.414-5.2-11.613-11.613-11.613z" opacity="1" data-original="#fbe88c"></path><path fill="#ffc3e5" d="M162.226 487.969h186.78l1.27-.12h18.778c-.016-.247-.024-.493-.046-.74 0 0-.067-.782-.088-1.004-6.092-67.564-41.365-136.007-63.333-203.556h-99.94c-21.969 67.549-57.241 135.991-63.333 203.556-.021.223-.088 1.004-.088 1.004-.022.247-.03.493-.046.74h18.778z" opacity="1" data-original="#ffc3e5"></path><path fill="#ffd1eb" d="M349.086 488.879c.71 7.99-5.62 14.85-13.64 14.85h-159.66c-8.02 0-14.35-6.86-13.64-14.85.03-.3.05-.61.08-.91 6.17-68.48 20.64-136.94 43.42-205.42h99.94c22.78 68.48 37.25 136.94 43.42 205.42.03.3.05.61.08.91z" opacity="1" data-original="#ffd1eb"></path><path d="M444.963 473.108c-12.136-62.66-31.541-123.408-57.677-180.556a7.5 7.5 0 0 0-13.641 6.238c25.642 56.067 44.682 115.676 56.592 177.17.285 1.471-.364 2.53-.776 3.03a3.678 3.678 0 0 1-2.876 1.357h-70.786c-6.539-66.48-21.01-133.777-43.098-200.165a7.5 7.5 0 1 0-14.233 4.735c22.592 67.904 37.11 136.75 43.151 204.625a6.05 6.05 0 0 1-1.586 4.668 6.148 6.148 0 0 1-4.586 2.021h-159.66a6.145 6.145 0 0 1-4.586-2.021 6.049 6.049 0 0 1-1.586-4.668c1.933-21.715 4.773-43.838 8.44-65.754a7.5 7.5 0 0 0-14.794-2.476 882.13 882.13 0 0 0-7.848 59.035H84.649a3.681 3.681 0 0 1-2.876-1.357c-.412-.5-1.062-1.559-.776-3.03 17.304-89.346 49.549-174.112 95.838-252.024h157.563a798.303 798.303 0 0 1 25.497 46.331 7.5 7.5 0 1 0 13.377-6.787 813.821 813.821 0 0 0-23.261-42.608c5.268-3.407 8.769-9.321 8.769-16.048v-9.214c0-8.4-5.454-15.536-13.001-18.093v-53.591l16.885 8.442a17.708 17.708 0 0 0 21.591-4.505l35.511-42.532a17.724 17.724 0 0 0-1.655-24.512l-58.359-54.75A22.359 22.359 0 0 0 344.407 0h-10.4a22.446 22.446 0 0 0-18.361 9.55l-1.107 1.579-2.371 1.282c-35.386 19.133-77.525 18.931-112.728-.538l-.366-.203-1.487-2.121A22.451 22.451 0 0 0 179.225 0h-10.4a22.343 22.343 0 0 0-15.343 6.071l-58.36 54.75a17.726 17.726 0 0 0-1.655 24.512l35.512 42.533a17.707 17.707 0 0 0 21.59 4.505l16.885-8.442v53.286c-8.061 2.243-14.001 9.632-14.001 18.398v9.214c0 6.422 3.194 12.101 8.065 15.568-45.876 78.269-77.919 163.237-95.249 252.716a18.61 18.61 0 0 0 3.932 15.427 18.666 18.666 0 0 0 14.447 6.812h70.622a21.164 21.164 0 0 0 4.863 8.989 21.266 21.266 0 0 0 15.653 6.895h159.657a21.266 21.266 0 0 0 15.653-6.895 21.159 21.159 0 0 0 4.863-8.989h70.622c5.61 0 10.876-2.483 14.447-6.812a18.61 18.61 0 0 0 3.935-15.43zM256.29 41.628c14.037 0 28.075-2.265 41.607-6.767l-19.265 27.472a16.667 16.667 0 0 1-13.633 7.091h-16.764a16.666 16.666 0 0 1-13.633-7.091l-19.057-27.175a131.695 131.695 0 0 0 40.745 6.47zm-112.43 77.326a2.764 2.764 0 0 1-3.368-.703L104.98 75.718a2.765 2.765 0 0 1 .266-3.831l.095-.088 58.403-54.79a7.4 7.4 0 0 1 5.08-2.01h10.4a7.434 7.434 0 0 1 6.08 3.162l37.015 52.783a31.68 31.68 0 0 0 25.915 13.479h16.764a31.68 31.68 0 0 0 25.915-13.479l37.015-52.783a7.434 7.434 0 0 1 6.08-3.162h10.4c1.895 0 3.699.714 5.081 2.01L407.89 71.8l.095.088a2.765 2.765 0 0 1 .266 3.831L372.74 118.25a2.765 2.765 0 0 1-3.369.703l-27.739-13.87a7.5 7.5 0 0 0-10.854 6.708v64.706H228.853a7.5 7.5 0 0 0 0 15h110.814a4.117 4.117 0 0 1 4.112 4.113v9.214a4.116 4.116 0 0 1-4.112 4.112H172.565a4.116 4.116 0 0 1-4.112-4.112v-9.214a4.117 4.117 0 0 1 4.112-4.113h24.325a7.5 7.5 0 0 0 0-15h-14.437v-64.706a7.501 7.501 0 0 0-10.854-6.708z" fill="#000000" opacity="1" data-original="#000000"></path><path d="M198.533 280.183c-12.038 36.18-21.918 72.999-29.369 109.436a7.501 7.501 0 0 0 14.696 3.005c7.331-35.853 17.056-72.09 28.905-107.705a7.499 7.499 0 0 0-4.749-9.484 7.499 7.499 0 0 0-9.483 4.748z" fill="#000000" opacity="1" data-original="#000000"></path></g></svg>