<svg xmlns="http://www.w3.org/2000/svg" version="1.1" xmlns:xlink="http://www.w3.org/1999/xlink" width="512" height="512" x="0" y="0" viewBox="0 0 60 60" style="enable-background:new 0 0 512 512" xml:space="preserve"><g><path fill="#ff9801" d="M6.82 37.99V38A56.022 56.022 0 0 1 8 49.28v.41a9.211 9.211 0 0 0 8.4 9.29A9 9 0 0 0 26 50c0-5.29-1.38-8.84-1.8-13.45l1.61-13.1A23.261 23.261 0 0 0 27 17c0-8.84-3.82-16-11-16C7 1 1 8.16 1 17a18.949 18.949 0 0 0 1.5 7.48c.1.23.19.45.29.68z" opacity="1" data-original="#ff9801"></path><path fill="#f57c00" d="M25.81 23.45A23.261 23.261 0 0 0 27 17c0-8.84-3.82-16-11-16a16.4 16.4 0 0 0-1.675.086C20.649 1.916 24 8.721 24 17a23.261 23.261 0 0 1-1.19 6.45l-1.61 13.1C21.62 41.16 23 44.71 23 50a9 9 0 0 1-7.514 8.87 8.544 8.544 0 0 0 .914.11A9 9 0 0 0 26 50c0-5.29-1.38-8.84-1.8-13.45z" opacity="1" data-original="#f57c00"></path><path fill="#e91e63" d="M26.557 30.77q-.42 1.305-.78 2.64a8.613 8.613 0 0 1-4.17 5.33 2.068 2.068 0 0 1-.959.24 2 2 0 0 1-1.77-1.05 1.975 1.975 0 0 1 .79-2.69 4.638 4.638 0 0 0 2.249-2.88c.26-.94.53-1.88.83-2.8a5.139 5.139 0 0 0-.79-4.7l-7.009-8.73-7.529 8.78a4.7 4.7 0 0 0-.84 4.61c.31.93.61 1.86.88 2.8a4.655 4.655 0 0 0 2.38 2.86 2.023 2.023 0 0 1 .92 2.7A1.985 1.985 0 0 1 8.979 39a1.954 1.954 0 0 1-.87-.21l-.06-.03a8.666 8.666 0 0 1-4.429-5.32c-.25-.88-.53-1.76-.83-2.64a8.77 8.77 0 0 1 1.6-8.49L13 12.26V8a2 2 0 1 1 4 0v4.3l8.069 10.06a9.018 9.018 0 0 1 1.488 8.41z" opacity="1" data-original="#e91e63"></path><path fill="#ff9801" d="M53.18 37.99V38A56.022 56.022 0 0 0 52 49.28v.41a9.211 9.211 0 0 1-8.4 9.29A9 9 0 0 1 34 50c0-5.29 1.38-8.84 1.8-13.45l-1.61-13.1A23.261 23.261 0 0 1 33 17c0-8.84 3.82-16 11-16 9 0 15 7.16 15 16a18.949 18.949 0 0 1-1.5 7.48c-.1.23-.19.45-.29.68z" opacity="1" data-original="#ff9801"></path><path fill="#f57c00" d="M44 1a10.206 10.206 0 0 0-1.325.086C50.736 1.916 56 8.721 56 17a18.949 18.949 0 0 1-1.5 7.48c-.1.23-.19.45-.29.68l-4.03 12.83V38A56.022 56.022 0 0 0 49 49.28v.41a9.265 9.265 0 0 1-7.486 9.18 9.011 9.011 0 0 0 2.086.11 9.211 9.211 0 0 0 8.4-9.29v-.41A56.022 56.022 0 0 1 53.18 38v-.01l4.03-12.83c.1-.23.19-.45.29-.68A18.949 18.949 0 0 0 59 17c0-8.84-6-16-15-16z" opacity="1" data-original="#f57c00"></path><path fill="#e91e63" d="M33.443 30.77q.42 1.305.78 2.64a8.613 8.613 0 0 0 4.17 5.33 2.068 2.068 0 0 0 .959.24 2 2 0 0 0 1.77-1.05 1.975 1.975 0 0 0-.79-2.69 4.638 4.638 0 0 1-2.249-2.88c-.26-.94-.53-1.88-.83-2.8a5.139 5.139 0 0 1 .79-4.7l7.009-8.73 7.529 8.78a4.7 4.7 0 0 1 .84 4.61c-.31.93-.61 1.86-.88 2.8a4.655 4.655 0 0 1-2.38 2.86 2.023 2.023 0 0 0-.92 2.7 1.985 1.985 0 0 0 1.78 1.12 1.954 1.954 0 0 0 .87-.21l.06-.03a8.666 8.666 0 0 0 4.429-5.32c.25-.88.53-1.76.83-2.64a8.77 8.77 0 0 0-1.6-8.49L47 12.26V8a2 2 0 1 0-4 0v4.3l-8.067 10.06a9.018 9.018 0 0 0-1.49 8.41z" opacity="1" data-original="#e91e63"></path><path d="M1.792 25.287a9.862 9.862 0 0 0 .114 5.9c.317.931.583 1.778.816 2.6a9.634 9.634 0 0 0 3.245 4.838 55.09 55.09 0 0 1 1.1 10.724v.41A10.184 10.184 0 0 0 16.4 60.044q.339.023.674.022a9.9 9.9 0 0 0 6.829-2.7 10.034 10.034 0 0 0 3.162-7.3 41.675 41.675 0 0 0-.992-8.383c-.31-1.6-.6-3.132-.771-4.8a9.883 9.883 0 0 0 1.506-3.144q.352-1.312.766-2.594v-.006a10.132 10.132 0 0 0-.632-7.722 22.751 22.751 0 0 0 1.121-6.349c0-10.168-4.822-17-12-17-9.271 0-16 7.15-16 17a20.074 20.074 0 0 0 1.583 7.879zM22.532 55.9a7.916 7.916 0 0 1-6 2.145 8.18 8.18 0 0 1-7.465-8.292v-.41a56.428 56.428 0 0 0-.826-9.409 2.9 2.9 0 0 0 .8.129 2.969 2.969 0 0 0 2.673-1.67 3.021 3.021 0 0 0-1.369-4.046 3.658 3.658 0 0 1-1.862-2.24c-.274-.954-.578-1.9-.894-2.844a3.712 3.712 0 0 1 .652-3.64l6.744-7.864 6.252 7.785a4.124 4.124 0 0 1 .622 3.769 66.074 66.074 0 0 0-.843 2.845 3.622 3.622 0 0 1-1.759 2.263 2.986 2.986 0 0 0-1.2 4.045 3.046 3.046 0 0 0 4.082 1.219 9.091 9.091 0 0 0 1.381-.925c.171 1.138.377 2.233.583 3.3a40.06 40.06 0 0 1 .956 8 7.92 7.92 0 0 1-2.527 5.84zm3.134-25.371c-.285.887-.552 1.79-.791 2.679a7.591 7.591 0 0 1-3.664 4.706 1.021 1.021 0 0 1-1.389-.394.972.972 0 0 1 .384-1.337 5.609 5.609 0 0 0 2.738-3.494 63.43 63.43 0 0 1 .819-2.764A6.151 6.151 0 0 0 22.8 24.3l-7.01-8.73a1 1 0 0 0-.763-.374 1.023 1.023 0 0 0-.776.349l-7.528 8.78a5.688 5.688 0 0 0-1.03 5.575c.305.917.6 1.834.87 2.768a5.661 5.661 0 0 0 2.888 3.469 1.021 1.021 0 0 1 .473 1.363.983.983 0 0 1-.883.563 1.047 1.047 0 0 1-.482-.135 7.652 7.652 0 0 1-3.915-4.7 53.75 53.75 0 0 0-.844-2.687 7.774 7.774 0 0 1 1.411-7.52l8.609-10.05a1 1 0 0 0 .241-.65V8.065a1 1 0 1 1 2 0v4.3a1 1 0 0 0 .22.625l8.071 10.062a8.03 8.03 0 0 1 1.314 7.48zm-9.6-28.467c7.381 0 10 8.081 10 15a17.011 17.011 0 0 1-.608 4.167l-7.398-9.215V8.065a3 3 0 1 0-6 0v3.891l-8.367 9.769a9.4 9.4 0 0 0-.74.99 18.393 18.393 0 0 1-.891-5.65c0-8.691 5.888-15 14-15zM44.062.065c-7.177 0-12 6.832-12 17a22.765 22.765 0 0 0 1.122 6.35 10.13 10.13 0 0 0-.632 7.721v.006c.275.855.53 1.719.767 2.6a9.89 9.89 0 0 0 1.505 3.14c-.172 1.67-.461 3.2-.771 4.8a41.671 41.671 0 0 0-.993 8.383 10.035 10.035 0 0 0 3.163 7.3 9.9 9.9 0 0 0 6.829 2.7c.223 0 .448-.007.673-.022a10.183 10.183 0 0 0 9.335-10.288v-.41a55.1 55.1 0 0 1 1.093-10.711 9.678 9.678 0 0 0 3.247-4.855c.23-.807.5-1.654.816-2.593a9.855 9.855 0 0 0 .114-5.9l.147-.346a20.064 20.064 0 0 0 1.581-7.876C60.062 7.215 53.334.065 44.062.065zm7 49.691a8.18 8.18 0 0 1-7.462 8.292 8 8 0 0 1-8.536-7.982 40.133 40.133 0 0 1 .956-8 77.71 77.71 0 0 0 .584-3.3 9.079 9.079 0 0 0 1.396.928 3.065 3.065 0 0 0 4.07-1.226 2.985 2.985 0 0 0-1.2-4.042 3.624 3.624 0 0 1-1.762-2.267 66.502 66.502 0 0 0-.841-2.836 4.124 4.124 0 0 1 .617-3.771l6.255-7.79 6.744 7.864a3.716 3.716 0 0 1 .651 3.643 70.14 70.14 0 0 0-.891 2.833 3.667 3.667 0 0 1-1.872 2.251 3.02 3.02 0 0 0-1.366 4.035 2.972 2.972 0 0 0 2.677 1.678 2.871 2.871 0 0 0 .806-.132 56.485 56.485 0 0 0-.827 9.412zm5.264-19.213c-.33.969-.607 1.849-.844 2.685a7.692 7.692 0 0 1-3.975 4.733.993.993 0 0 1-1.357-1.223 1.048 1.048 0 0 1 .518-.6 5.676 5.676 0 0 0 2.9-3.48c.266-.927.562-1.843.867-2.757a5.693 5.693 0 0 0-1.029-5.58l-7.529-8.78a1 1 0 0 0-.759-.349H45.1a1 1 0 0 0-.764.374L37.322 24.3a6.15 6.15 0 0 0-.957 5.631c.295.906.56 1.832.816 2.755a5.606 5.606 0 0 0 2.741 3.5.972.972 0 0 1 .382 1.335 1.039 1.039 0 0 1-1.377.4 7.6 7.6 0 0 1-3.676-4.709 56.69 56.69 0 0 0-.792-2.682 8.03 8.03 0 0 1 1.317-7.482l8.069-10.06a1 1 0 0 0 .219-.625v-4.3a1 1 0 1 1 2 0v4.261a1 1 0 0 0 .241.65l8.609 10.05a7.771 7.771 0 0 1 1.412 7.519zm.846-7.828a9.535 9.535 0 0 0-.739-.99l-8.37-9.769V8.065a3 3 0 1 0-6 0v3.949l-7.393 9.218a16.982 16.982 0 0 1-.609-4.167c0-6.919 2.62-15 10-15 8.113 0 14 6.309 14 15a18.383 18.383 0 0 1-.889 5.65z" fill="#000000" opacity="1" data-original="#000000"></path></g></svg>