<svg xmlns="http://www.w3.org/2000/svg" version="1.1" xmlns:xlink="http://www.w3.org/1999/xlink" width="512" height="512" x="0" y="0" viewBox="0 0 64 64" style="enable-background:new 0 0 512 512" xml:space="preserve"><g><path fill="#f4bd98" d="M3 46h6v5H3zM55 46h6v5h-6z" opacity="1" data-original="#f4bd98"></path><path fill="#ad7955" d="M19 11a7.3 7.3 0 0 0-6.8 4.663L3.805 37.337A26.767 26.767 0 0 0 2 47h8l10-21zM45 11a7.3 7.3 0 0 1 6.805 4.663L60.2 37.337A26.767 26.767 0 0 1 62 47h-8L44 26z" opacity="1" data-original="#ad7955"></path><path fill="#8a5632" d="M50 56a20.6 20.6 0 0 0-3.221-11.062l-2.3-3.608A9.479 9.479 0 0 1 43 36.239 9.483 9.483 0 0 1 44 32a18.928 18.928 0 0 0 2-8.468 35.65 35.65 0 0 0-.358-5.035L45 14H19l-.642 4.5A35.65 35.65 0 0 0 18 23.53 18.928 18.928 0 0 0 20 32a9.483 9.483 0 0 1 1 4.241 9.479 9.479 0 0 1-1.483 5.091l-2.3 3.608A20.6 20.6 0 0 0 14 56v2h36z" opacity="1" data-original="#8a5632"></path><path fill="#996542" d="M46 57.909a27.228 27.228 0 0 0-2.5-11.565l-1.786-3.772a12.531 12.531 0 0 1-1.153-5.323 12.779 12.779 0 0 1 .778-4.433 25.51 25.51 0 0 0 1.555-8.852 49.934 49.934 0 0 0-.278-5.265l-.5-4.7H21.889l-.5 4.7a49.934 49.934 0 0 0-.278 5.265 25.51 25.51 0 0 0 1.555 8.852 12.779 12.779 0 0 1 .778 4.433 12.531 12.531 0 0 1-1.153 5.323l-1.786 3.772A27.228 27.228 0 0 0 18 57.909V60h28z" opacity="1" data-original="#996542"></path><path fill="#f7ccb0" d="M43.419 39a9.341 9.341 0 0 1-.148-5H20.729a9.341 9.341 0 0 1-.148 5z" opacity="1" data-original="#f7ccb0"></path><path fill="#8a5632" d="M31 13h2v45h-2z" opacity="1" data-original="#8a5632"></path><path fill="#f4bd98" d="m32 15 1.833 2.292A7.22 7.22 0 0 0 39.469 20a7.222 7.222 0 0 0 4.508-1.581A8.057 8.057 0 0 0 47 12.128a7.552 7.552 0 0 0-2.212-5.34A16.345 16.345 0 0 0 33.229 2h-2.458a16.345 16.345 0 0 0-11.559 4.788A7.552 7.552 0 0 0 17 12.128a8.057 8.057 0 0 0 3.023 6.291A7.222 7.222 0 0 0 24.531 20a7.22 7.22 0 0 0 5.636-2.708z" opacity="1" data-original="#f4bd98"></path><path fill="#f7ccb0" d="m32 13.833 1.589 1.91A6.35 6.35 0 0 0 38.473 18a6.414 6.414 0 0 0 3.907-1.318A6.619 6.619 0 0 0 45 11.44a6.174 6.174 0 0 0-1.917-4.45A14.458 14.458 0 0 0 33.065 3h-2.13a14.458 14.458 0 0 0-10.018 3.99A6.174 6.174 0 0 0 19 11.44a6.619 6.619 0 0 0 2.62 5.242A6.414 6.414 0 0 0 25.527 18a6.35 6.35 0 0 0 4.884-2.257z" opacity="1" data-original="#f7ccb0"></path><path fill="#996542" d="m32 15 3.95-1.975A3.709 3.709 0 0 0 38 9.708 3.708 3.708 0 0 0 34.292 6h-4.584A3.708 3.708 0 0 0 26 9.708a3.709 3.709 0 0 0 2.05 3.317z" opacity="1" data-original="#996542"></path><rect width="42" height="6" x="11" y="56" fill="#f4bd98" rx="3" opacity="1" data-original="#f4bd98"></rect><path fill="#f7ccb0" d="M50 56H14a2.987 2.987 0 0 0-2.584 1.5A2.987 2.987 0 0 0 14 59h36a2.987 2.987 0 0 0 2.584-1.5A2.987 2.987 0 0 0 50 56z" opacity="1" data-original="#f7ccb0"></path></g></svg>