<svg xmlns="http://www.w3.org/2000/svg" version="1.1" xmlns:xlink="http://www.w3.org/1999/xlink" width="512" height="512" x="0" y="0" viewBox="0 0 511.756 511.756" style="enable-background:new 0 0 512 512" xml:space="preserve"><g><path d="M216.077 430.986h179.634c9.585 0 17.356 7.771 17.356 17.356v42.409c0 9.585-7.771 17.356-17.356 17.356H216.077a8.678 8.678 0 0 1-8.678-8.678v-59.765a8.678 8.678 0 0 1 8.678-8.678z" style="" transform="translate(-1)" fill="#3d324c" data-original="#3d324c"></path><path d="M395.962 430.986v-48.51l94.008-94c13.393-13.396 13.391-35.112-.004-48.505-13.396-13.393-35.112-13.391-48.505.004l-30.868 30.876a8.573 8.573 0 0 1-14.631-6.075v-193.7a25.74 25.74 0 0 0-27.587-25.643c-13.78 1.47-24.145 13.237-23.864 27.093V37.813a25.712 25.712 0 1 0-51.417 0v33.263a25.712 25.712 0 1 0-51.417 0v59.982a25.735 25.735 0 0 0-27.587-25.634c-13.768 1.5-24.102 13.281-23.795 27.127v166.417a137.2 137.2 0 0 0 6.075 40.327l28.203 91.691h171.389zM238.744 473.43a8.678 8.678 0 0 1 2.968-16.835h128.547c9.513.024 17.219 7.73 17.243 17.243v8.574a8.678 8.678 0 0 1-8.678 8.678 8.678 8.678 0 0 1-8.678-8.678v-8.574l-128.434.104a8.7 8.7 0 0 1-2.968-.512z" style="" transform="translate(-1)" fill="#df4d60" data-original="#df4d60"></path><path d="m284.581 431.012-60.008-.052-28.238-91.631a135.493 135.493 0 0 1-6.014-40.335v-22.068a93.892 93.892 0 0 1 53.934 16.488c47.259 32.534 40.083 87.274 40.326 137.598z" style="" transform="translate(-1)" fill="#802d40" data-original="#802d40"></path><path d="M221.605 439.143a8.675 8.675 0 0 1-5.328-5.606l-28.212-91.691a145.618 145.618 0 0 1-6.448-42.869V132.55c-.341-18.412 13.529-33.994 31.857-35.788a34.475 34.475 0 0 1 19.534 4.443v-30.13a34.393 34.393 0 0 1 51.409-29.879V37.82c0-18.989 15.393-34.382 34.382-34.382 18.989 0 34.382 15.393 34.382 34.382v3.541a32.853 32.853 0 0 1 14.536-4.591 34.433 34.433 0 0 1 36.89 34.287v193.736L435.3 233.84a42.976 42.976 0 0 1 60.806 60.745l-91.717 91.743c.252 7.081.252 20.029.252 44.666a8.678 8.678 0 0 1-8.678 8.678h-171.39a8.466 8.466 0 0 1-2.968-.529zm.199-324.087a17.159 17.159 0 0 0-7.055-.981c-9.216 1.206-16.029 9.184-15.777 18.475v166.417a128.71 128.71 0 0 0 5.684 37.775l26.32 85.565h156.308V382.58a8.675 8.675 0 0 1 2.534-6.239l94.008-94a25.617 25.617 0 1 0-36.24-36.213l-30.868 30.859a16.81 16.81 0 0 1-18.796 3.732 17.158 17.158 0 0 1-10.631-15.924V71.076a17.08 17.08 0 0 0-18.302-16.983c-9.21 1.192-16.031 9.148-15.803 18.432v127.089a8.678 8.678 0 0 1-8.678 8.678 8.678 8.678 0 0 1-8.678-8.678V37.822a17.145 17.145 0 0 0-4.964-12.01 16.875 16.875 0 0 0-12.036-4.999c-9.397.014-17.012 7.629-17.026 17.026v161.775a8.678 8.678 0 0 1-8.678 8.678 8.678 8.678 0 0 1-8.678-8.678V71.076c-.209-9.256-7.772-16.65-17.031-16.65s-16.822 7.394-17.031 16.65v154.251a8.857 8.857 0 0 1-.521 2.968 8.678 8.678 0 0 1-16.835-2.968v-94.269a17.131 17.131 0 0 0-11.238-16.002h.012z" style="" transform="translate(-1)" fill="#802d40" data-original="#802d40"></path><path d="m141.917 438.761 168.8-61.438c9.007-3.278 18.967 1.366 22.245 10.373l14.505 39.852c3.278 9.007-1.366 18.967-10.373 22.245l-168.8 61.438a8.679 8.679 0 0 1-11.123-5.187l-20.441-56.161a8.678 8.678 0 0 1 5.187-11.122z" style="" transform="translate(-1)" fill="#3d324c" data-original="#3d324c"></path><path d="m310.927 377.269-16.592-45.577 56.181-120.494a34.297 34.297 0 0 0-34.032-49.019 34.298 34.298 0 0 0-28.128 20.034l-18.475 39.554a8.574 8.574 0 0 1-15.82-.694l-66.24-182.028a25.737 25.737 0 0 0-34.712-14.657c-12.421 6.107-18.117 20.693-13.121 33.601l43.485 119.426-43.962-120.788-11.377-31.241a25.703 25.703 0 0 0-44.068-8.008 25.703 25.703 0 0 0-4.234 25.59L91.2 74.209l43.954 120.823L91.192 74.217a25.702 25.702 0 0 0-44.117-8.111 25.705 25.705 0 0 0-4.193 25.658l20.515 56.407 32.239 88.576-32.239-88.576a25.752 25.752 0 0 0-34.712-14.658c-12.428 6.101-18.129 20.691-13.13 33.601l56.953 156.42a137.203 137.203 0 0 0 19.473 35.814l57.873 76.522 161.073-58.601zM177.703 470.904a8.678 8.678 0 0 1-2.968-16.835l120.789-43.971c8.944-3.216 18.807 1.388 22.085 10.309l2.933 8.053a8.68 8.68 0 1 1-16.307 5.937l-2.933-8.053-120.624 44.032a8.695 8.695 0 0 1-2.975.528z" style="" transform="translate(-1)" fill="#e64c3c" data-original="#e64c3c"></path><path d="m206.271 415.365-56.407 20.48-57.882-76.453a135.48 135.48 0 0 1-19.439-35.84l-7.55-20.74a93.898 93.898 0 0 1 56.32-2.95c55.539 14.405 67.515 68.295 84.958 115.503z" style="" transform="translate(-1)" fill="#802d40" data-original="#802d40"></path><path d="M149.873 444.549a8.678 8.678 0 0 1-6.942-3.471L85.04 364.591a145.774 145.774 0 0 1-20.688-38.088L7.424 170.083c-6.59-17.182 1.132-36.543 17.738-44.475a34.415 34.415 0 0 1 19.873-2.517L34.707 94.767a34.39 34.39 0 0 1 38.096-45.655l-1.154-3.176c-6.346-17.803 2.867-37.39 20.628-43.854s37.408 2.619 43.989 20.336l1.215 3.332c3.245-4 7.386-7.181 12.088-9.285a34.426 34.426 0 0 1 46.392 19.604l66.274 182.046 18.224-39.589c10.067-21.47 35.59-30.771 57.11-20.81 21.47 10.039 30.782 35.548 20.827 57.058l-54.827 117.63c2.655 6.561 7.081 18.736 15.508 41.88a8.68 8.68 0 0 1-5.206 11.125L152.84 444.02a8.68 8.68 0 0 1-2.967.529zM39.211 139.935c-2.394.001-4.76.51-6.942 1.493-8.237 4.275-11.915 14.081-8.522 22.719L80.7 320.567a128.573 128.573 0 0 0 18.224 33.558l53.994 71.402 146.883-53.465c-4.651-12.774-13.165-36.187-13.59-37.315a8.674 8.674 0 0 1 .252-6.725l56.19-120.494a25.617 25.617 0 1 0-46.444-21.625l-18.449 39.502a16.826 16.826 0 0 1-16.384 9.936 17.182 17.182 0 0 1-15.447-11.333L179.673 42.013a17.077 17.077 0 0 0-23.005-9.702c-8.229 4.278-11.9 14.079-8.504 22.71l43.459 119.426a8.678 8.678 0 1 1-16.297 5.936l-55.34-152.038a17.139 17.139 0 0 0-8.817-9.546 16.824 16.824 0 0 0-13.017-.581c-8.828 3.226-13.381 12.988-10.179 21.825l11.368 31.241v.043l43.963 120.789a8.678 8.678 0 0 1-16.306 5.927L83.044 77.176c-3.273-8.76-12.997-13.243-21.785-10.044S47.906 80.016 51.031 88.831l52.753 144.922a8.68 8.68 0 1 1-16.307 5.937l-32.23-88.559a17.12 17.12 0 0 0-16.036-11.196z" style="" transform="translate(-1)" fill="#c03a2b" data-original="#c03a2b"></path></g></svg>