<svg xmlns="http://www.w3.org/2000/svg" version="1.1" xmlns:xlink="http://www.w3.org/1999/xlink" width="512" height="512" x="0" y="0" viewBox="0 0 511.996 511.996" style="enable-background:new 0 0 512 512" xml:space="preserve" class=""><g><path d="m202.071 19.308-4.628 4.547v41.537l12.25 19.213 19.888 16.368 7.279-7.868h6.417l2.146-2.329c-1.837-37.325-22.897-59.072-43.352-71.468zM337.193 41.447l-31.282 17.658-19.468 23.75-4.323 17.012 4.74 4.321v16.417l1.954 2.679c12.609-3.693 31.664-12.18 45.315-31.361 13.696-19.245 9.793-33.249 8.908-50.476h-5.844z" style="" fill="#60b9fe" data-original="#60b9fe" class=""></path><path d="M343.038 41.447c-.369-7.189-.217-14.937 1.965-23.866 1.515-6.2-4.321-11.683-10.371-9.65-23.216 7.802-65.421 29.294-68.055 82.844l2.184 3.079h6.767l9.259 8.442c9.334-35.295 37.891-52.713 58.251-60.849zM210.869 78.257c-15.867-22.296-8.112-37.557-8.798-58.949-8.892-5.388-17.67-9.013-24.704-11.377-6.05-2.033-11.887 3.45-10.372 9.65 7.412 30.326-8.538 47.066 10.874 74.343 13.651 19.181 32.706 27.668 45.315 31.361l2.343-3.596v-14.333l6.382-6.898c-7.388-4.868-14.782-11.408-21.04-20.201z" style="" fill="#1ca8ff" data-original="#1ca8ff" class=""></path><path d="m288.815 123.284-4.121 3.571-4.5 19.875 3.669 3.675c20.434 15.656 69.022 59.134 69.022 118.613 0 56.115-53.786 80.773-81.208 89.698a50.614 50.614 0 0 1-31.355 0c-15.493-5.042-39.4-15.11-57.27-33.032v8.421l14.641 40.5 28.75 35.5 10.94 5.957 4.36 9.956 14.256 2.17 49.111-10.333 55-31.333 37.458-31.917 8.375-8.375 4.037-6.795c2.95-11.959 4.59-24.853 4.59-38.856 0-122.654-125.755-177.295-125.755-177.295z" style="" fill="#60b9fe" data-original="#60b9fe" class=""></path><path d="M248.074 426.982c-35.778-34.576-54.854-71.581-65.021-101.298-13.758-13.8-23.938-32.255-23.938-56.665 0-59.479 48.587-102.957 69.022-118.613l1.807-4.3-2.375-19.75-4.384-3.071S97.43 177.925 97.43 300.579c0 14.004 1.639 26.898 4.59 38.857l9.758 17.71 34.333 31.376 69 33.444 32.963 5.016z" style="" fill="#1ca8ff" data-original="#1ca8ff" class=""></path><path d="M287.804 412.733a102.67 102.67 0 0 1-50.422 3.329l5.31 12.126 46.25 39.667 17.778 3.149c40.004-34.681 88.362-71.187 103.259-131.57-36.736 40.318-88.977 62.495-122.175 73.299z" style="" fill="#df40ff" data-original="#ffb640" class="" opacity="1"></path><path d="M282.353 493.48c7.449-7.555 15.714-14.973 24.368-22.476-28.816-16.798-51.491-35.655-69.339-54.942a102.834 102.834 0 0 1-13.189-3.329c-33.198-10.804-85.438-32.981-122.175-73.298 18.119 73.446 85.747 111.566 127.626 154.045 14.481 14.687 38.229 14.687 52.709 0z" style="" fill="#b244e6" data-original="#ff9b00" class="" opacity="1"></path><path d="M270.255 90.776h-28.512c-10.208 0-18.559 8.352-18.559 18.559v28.512c0 10.208 8.352 18.559 18.559 18.559h28.512c10.208 0 18.559-8.352 18.559-18.559v-28.512c.001-10.208-8.351-18.559-18.559-18.559z" style="" fill="#8bcaff" data-original="#8bcaff" class=""></path><path d="M270.254 90.776h-28.512c-10.208 0-18.559 8.352-18.559 18.559v28.512c0 10.208 8.352 18.559 18.559 18.559h28.512c10.208 0 18.559-8.352 18.559-18.559v-28.512c0-10.208-8.352-18.559-18.559-18.559z" style="stroke-width:15;stroke-linecap:round;stroke-linejoin:round;stroke-miterlimit:10;" fill="none" stroke="#000000" stroke-width="15" stroke-linecap="round" stroke-linejoin="round" stroke-miterlimit="10" data-original="#000000" class=""></path><path d="M334.63 7.931c-23.216 7.802-65.421 29.294-68.056 82.845h3.679c10.208 0 18.559 8.352 18.559 18.559v13.949c12.609-3.693 31.664-12.18 45.315-31.361 19.412-27.276 3.462-44.017 10.874-74.343 1.516-6.199-4.321-11.682-10.371-9.649zM223.182 109.335c0-10.208 8.352-18.559 18.559-18.559h3.679c-2.635-53.551-44.84-75.042-68.056-82.845-6.05-2.033-11.887 3.45-10.372 9.65 7.412 30.326-8.538 47.066 10.874 74.343 13.651 19.181 32.706 27.668 45.315 31.361v-13.95zM238.498 416.261a102.86 102.86 0 0 1-14.306-3.528c-33.198-10.804-85.438-32.981-122.175-73.298 18.119 73.446 85.747 111.566 127.626 154.045 14.48 14.688 38.228 14.688 52.708 0 41.88-42.479 109.508-80.599 127.627-154.045-36.737 40.317-88.978 62.494-122.176 73.299-4.7 1.53-9.482 2.693-14.305 3.528" style="stroke-width:15;stroke-linecap:round;stroke-linejoin:round;stroke-miterlimit:10;" fill="none" stroke="#000000" stroke-width="15" stroke-linecap="round" stroke-linejoin="round" stroke-miterlimit="10" data-original="#000000" class=""></path><path d="M160.679 250.567c8.472-49.976 49.198-86.175 67.455-100.162-3.061-3.312-4.952-7.72-4.952-12.558v-14.562 0S97.427 177.925 97.427 300.579c0 100.006 83.518 143.506 132.216 192.901 14.48 14.688 38.228 14.688 52.708 0 48.699-49.396 132.216-92.896 132.216-192.902 0-122.654-125.755-177.294-125.755-177.294h0v14.562c0 4.838-1.891 9.246-4.952 12.558 20.434 15.656 69.022 59.134 69.022 118.613 0 56.115-53.786 80.773-81.208 89.698a50.614 50.614 0 0 1-31.355 0c-24.561-7.993-70.264-28.613-79.535-73.148" style="stroke-width:15;stroke-linecap:round;stroke-linejoin:round;stroke-miterlimit:10;" fill="none" stroke="#000000" stroke-width="15" stroke-linecap="round" stroke-linejoin="round" stroke-miterlimit="10" data-original="#000000" class=""></path></g></svg>