<svg xmlns="http://www.w3.org/2000/svg" version="1.1" xmlns:xlink="http://www.w3.org/1999/xlink" width="512" height="512" x="0" y="0" viewBox="0 0 512 512" style="enable-background:new 0 0 512 512" xml:space="preserve"><g><path d="M310.338 149.658h-9.732L256 405.787l182.468-65.362c0-86.286-52.924-160.123-128.13-190.767z" style="" fill="#992a2a" data-original="#992a2a"></path><path d="M300.606 149.658h-98.945c-75.205 30.645-128.13 104.482-128.13 190.768L256 405.787l149.787-65.362c0-86.286-43.446-160.123-105.181-190.767z" style="" fill="#df3333" data-original="#df3333"></path><path d="M343.149 95.319c0-8.873-5.312-16.492-12.921-19.89 4.891-6.748 5.681-16.002 1.245-23.685-4.436-7.684-12.846-11.627-21.135-10.764.862-8.289-3.081-16.699-10.764-21.135-5.831-3.366-12.564-3.717-18.422-1.556l-.005 154.055c5.859 2.163 12.594 1.814 18.427-1.553 7.683-4.436 11.626-12.846 10.764-21.135 8.289.863 16.699-3.081 21.135-10.764 4.436-7.684 3.646-16.937-1.245-23.685 7.609-3.397 12.921-11.015 12.921-19.888z" style="" fill="#ccc9c0" data-original="#ccc9c0"></path><path d="M289.962 149.658c5.181.863 10.436-3.081 13.21-10.764 2.772-7.684 2.279-16.937-.778-23.685 4.755-3.399 8.074-11.017 8.074-19.89s-3.319-16.492-8.075-19.89c3.057-6.748 3.551-16.002.778-23.685-2.772-7.684-8.029-11.627-13.21-10.764.539-8.289-1.925-16.699-6.728-21.135a12.455 12.455 0 0 0-2.082-1.556 21.843 21.843 0 0 0-5.264 2.801C272.492 13.481 264.873 8.17 256 8.17s-16.492 5.311-19.89 12.921c-6.747-4.891-16.002-5.681-23.685-1.245s-11.626 12.846-10.764 21.135c-8.289-.863-16.699 3.081-21.135 10.764s-3.646 16.937 1.245 23.685c-7.609 3.398-12.921 11.017-12.921 19.89s5.312 16.491 12.921 19.89c-4.891 6.748-5.681 16.001-1.245 23.685 4.436 7.683 12.846 11.626 21.135 10.764-.862 8.289 3.081 16.699 10.764 21.135s16.937 3.646 23.685-1.245c3.398 7.609 11.017 12.921 19.89 12.921s16.492-5.312 19.89-12.921a21.832 21.832 0 0 0 5.258 2.799 12.416 12.416 0 0 0 2.086-1.553c4.802-4.44 7.266-12.848 6.728-21.137z" style="" fill="#e8e5da" data-original="#e8e5da"></path><path d="M438.468 340.426h-32.681V503.83h32.681c17.974 0 32.681-14.706 32.681-32.681v-98.043c0-17.974-14.706-32.68-32.681-32.68z" style="" fill="#df3333" data-original="#df3333"></path><path d="M438.468 471.149v-98.043c0-17.974-14.706-32.681-32.681-32.681H73.532c-17.974 0-32.681 14.706-32.681 32.681v98.043c0 17.974 14.706 32.681 32.681 32.681h332.255c17.975 0 32.681-14.707 32.681-32.681z" style="" fill="#e55c5c" data-original="#e55c5c"></path><path d="M163.793 413.957a8.17 8.17 0 0 0-8.17 8.17v49.021a8.17 8.17 0 0 0 16.34 0v-49.021a8.17 8.17 0 0 0-8.17-8.17z" fill="#000000" opacity="1" data-original="#000000"></path><path d="M446.509 333.054c-1.376-40.766-14.149-79.861-37.16-113.492-19.924-29.119-46.388-52.616-77.289-68.81a29.737 29.737 0 0 0 6.49-7.775c4.433-7.678 5.156-16.803 2.299-24.925 6.535-5.606 10.471-13.87 10.471-22.735s-3.936-17.13-10.471-22.735c2.857-8.122 2.133-17.248-2.299-24.925-4.397-7.616-11.935-12.851-20.435-14.451-1.586-8.463-6.776-16.005-14.454-20.439a29.915 29.915 0 0 0-14.936-4.011c-3.394 0-6.782.593-9.983 1.719C273.136 3.939 264.867 0 256 0s-17.136 3.939-22.74 10.479a30.15 30.15 0 0 0-9.983-1.719 29.915 29.915 0 0 0-14.936 4.011c-7.678 4.433-12.868 11.975-14.454 20.439-8.501 1.6-16.039 6.836-20.435 14.451-4.433 7.677-5.156 16.802-2.299 24.925-6.535 5.606-10.471 13.87-10.471 22.735 0 8.864 3.936 17.129 10.471 22.735-2.857 8.122-2.133 17.248 2.299 24.925a29.776 29.776 0 0 0 6.49 7.775c-30.901 16.193-57.366 39.691-77.289 68.81-23.012 33.632-35.784 72.726-37.16 113.492-18.689 3.743-32.812 20.277-32.812 40.05v98.043c0 22.526 18.325 40.851 40.851 40.851h364.936c22.526 0 40.851-18.325 40.851-40.851v-98.043c0-19.775-14.122-36.309-32.81-40.054zM177.021 95.319c0-5.357 3.172-10.237 8.082-12.43a8.17 8.17 0 0 0 3.284-12.255c-3.156-4.354-3.464-10.165-.785-14.804 2.421-4.192 6.944-6.797 11.805-6.797.47 0 .943.025 1.409.073a8.174 8.174 0 0 0 8.972-8.972c-.557-5.348 2.083-10.534 6.722-13.214a13.551 13.551 0 0 1 6.766-1.821c2.865 0 5.72.926 8.038 2.607a8.168 8.168 0 0 0 12.255-3.284c2.193-4.909 7.072-8.081 12.43-8.081 5.357 0 10.237 3.172 12.43 8.082a8.17 8.17 0 0 0 12.255 3.284 13.798 13.798 0 0 1 8.038-2.607c2.362 0 4.702.63 6.766 1.821 4.64 2.679 7.279 7.866 6.722 13.214a8.171 8.171 0 0 0 8.972 8.972c.465-.048.939-.073 1.409-.073 4.862 0 9.386 2.605 11.805 6.797 2.679 4.64 2.37 10.451-.785 14.804a8.168 8.168 0 0 0 3.284 12.255c4.91 2.193 8.082 7.071 8.082 12.43 0 5.357-3.173 10.237-8.082 12.43a8.172 8.172 0 0 0-3.284 12.255c3.156 4.353 3.464 10.165.785 14.804-2.421 4.192-6.944 6.795-11.803 6.795-.471 0-.944-.025-1.41-.073a8.302 8.302 0 0 0-1.8.013c-.052.007-.105.019-.157.025a8.4 8.4 0 0 0-.674.119c-.097.022-.191.05-.286.075a7.758 7.758 0 0 0-.526.155c-.106.036-.21.075-.315.114a9.495 9.495 0 0 0-.479.2c-.102.047-.204.094-.304.145a9.42 9.42 0 0 0-.472.261c-.088.052-.178.103-.265.159-.179.114-.35.24-.519.368-.057.044-.115.082-.171.126a8.11 8.11 0 0 0-1.239 1.239c-.045.056-.085.114-.127.172-.13.17-.255.342-.371.524-.058.09-.109.182-.163.273-.09.154-.179.307-.259.467a7.601 7.601 0 0 0-.16.343c-.039.088-.085.171-.122.261-.025.063-.042.126-.066.19a8.462 8.462 0 0 0-.447 1.736c-.013.094-.028.186-.038.281a8.12 8.12 0 0 0-.041.639c-.002.074-.008.147-.008.221 0 .27.012.537.038.803.002.02.001.038.002.057.556 5.349-2.083 10.535-6.722 13.214a13.551 13.551 0 0 1-6.766 1.821c-2.865 0-5.72-.926-8.038-2.607a8.173 8.173 0 0 0-12.256 3.284c-2.195 4.912-7.074 8.084-12.432 8.084-5.357 0-10.237-3.172-12.43-8.082a8.17 8.17 0 0 0-12.255-3.283 13.798 13.798 0 0 1-8.038 2.607c-2.362 0-4.702-.63-6.766-1.821-4.64-2.679-7.279-7.866-6.722-13.214.002-.02.001-.038.002-.057.026-.266.038-.534.038-.803 0-.074-.005-.147-.008-.221a9.172 9.172 0 0 0-.041-.639c-.01-.094-.025-.187-.038-.281a8.423 8.423 0 0 0-.177-.886 8.91 8.91 0 0 0-.27-.85c-.024-.063-.04-.126-.066-.19-.037-.09-.083-.173-.122-.261-.052-.115-.103-.23-.16-.343a8.092 8.092 0 0 0-.259-.467c-.054-.092-.106-.184-.163-.273a7.895 7.895 0 0 0-.374-.525c-.042-.057-.082-.115-.126-.171a8.025 8.025 0 0 0-1.236-1.236c-.062-.05-.127-.093-.19-.141a8.098 8.098 0 0 0-.496-.352c-.095-.062-.194-.118-.291-.175a7.49 7.49 0 0 0-1.212-.587 8.956 8.956 0 0 0-.357-.131 8.026 8.026 0 0 0-.468-.137c-.113-.031-.227-.064-.341-.089a8.25 8.25 0 0 0-.593-.105c-.078-.011-.156-.028-.235-.038a8.451 8.451 0 0 0-.871-.056 8.509 8.509 0 0 0-.874.042c-.509.05-.983.075-1.452.075-4.862 0-9.385-2.605-11.805-6.795-2.679-4.641-2.37-10.451.785-14.804a8.172 8.172 0 0 0-3.284-12.255c-4.91-2.193-8.084-7.072-8.084-12.43zm285.958 375.83c0 13.516-10.995 24.511-24.511 24.511H73.532c-13.516 0-24.511-10.995-24.511-24.511v-98.043c0-13.516 10.995-24.511 24.511-24.511h20.621v122.553a8.17 8.17 0 0 0 16.34 0V348.596h45.13v40.851a8.17 8.17 0 0 0 16.34 0v-40.851h45.131v122.553a8.17 8.17 0 0 0 16.34 0V348.596h45.131v122.553a8.17 8.17 0 0 0 16.34 0V348.596h45.131v122.553a8.17 8.17 0 0 0 16.34 0V348.596h6.225a8.17 8.17 0 0 0 0-16.34H81.872c2.989-73.925 46.392-139.33 113.094-170.737 2.291 6.768 6.96 12.645 13.374 16.349a29.915 29.915 0 0 0 14.936 4.011c3.394 0 6.782-.593 9.982-1.719 5.606 6.539 13.874 10.479 22.742 10.479 8.867 0 17.136-3.939 22.742-10.479a30.136 30.136 0 0 0 9.982 1.719 29.915 29.915 0 0 0 14.936-4.011c6.414-3.703 11.083-9.581 13.374-16.349 66.703 31.406 110.105 96.812 113.094 170.737h-34.845a8.17 8.17 0 0 0 0 16.34h6.225v122.553a8.17 8.17 0 0 0 16.34 0V348.596h20.621c13.516 0 24.511 10.995 24.511 24.511v98.042z" fill="#000000" opacity="1" data-original="#000000"></path></g></svg>