<svg xmlns="http://www.w3.org/2000/svg" version="1.1" xmlns:xlink="http://www.w3.org/1999/xlink" width="512" height="512" x="0" y="0" viewBox="0 0 682.667 682.667" style="enable-background:new 0 0 512 512" xml:space="preserve"><g><defs><clipPath id="a" clipPathUnits="userSpaceOnUse"><path d="M0 512h512V0H0Z" fill="#000000" opacity="1" data-original="#000000"></path></clipPath></defs><g clip-path="url(#a)" transform="matrix(1.33333 0 0 -1.33333 0 682.667)"><path d="M0 0h43.813c6.394 0 11.578 5.184 11.578 11.579V42.18h-66.969V11.579C-11.578 5.184-6.395 0 0 0" style="fill-opacity:1;fill-rule:nonzero;stroke:none" transform="translate(408.943 33.548)" fill="#e1f1da" data-original="#e1f1da"></path><path d="M0 0v-30.601C0-36.996-5.184-42.18-11.578-42.18h34.787c6.395 0 11.578 5.184 11.578 11.579V0Z" style="fill-opacity:1;fill-rule:nonzero;stroke:none" transform="translate(429.547 75.728)" fill="#ceeac3" data-original="#ceeac3"></path><path d="M0 0c0 48.708 18.872 96.911 38.009 141.702a69.588 69.588 0 0 0 15.009-24.842c33.909-98.007 36.707-252.353 36.707-268.046v-33.958c0-6.366-5.162-11.526-11.527-11.526H9.007L0-196.091Z" style="fill-opacity:1;fill-rule:nonzero;stroke:none" transform="translate(388.358 261.888)" fill="#bbe3a9" data-original="#bbe3a9"></path><path d="M0 0a69.574 69.574 0 0 1-15.009 24.842c-5.365-12.558-10.71-25.384-15.623-38.415C-.872-111.635 1.682-253.06 1.682-268.045v-33.958c0-6.367-5.161-11.527-11.527-11.527h35.026c6.366 0 11.526 5.16 11.526 11.527v33.958C36.707-252.353 33.909-98.007 0 0" style="fill-opacity:1;fill-rule:nonzero;stroke:none" transform="translate(441.376 378.748)" fill="#a8db8d" data-original="#a8db8d"></path><path d="M0 0h-43.813c-6.394 0-11.578 5.184-11.578 11.579V42.18h66.969V11.579C11.578 5.184 6.395 0 0 0" style="fill-opacity:1;fill-rule:nonzero;stroke:none" transform="translate(103.057 33.548)" fill="#e1f1da" data-original="#e1f1da"></path><path d="M0 0v-30.601C0-36.996-5.184-42.18-11.578-42.18h35.025c6.395 0 11.578 5.184 11.578 11.579V0Z" style="fill-opacity:1;fill-rule:nonzero;stroke:none" transform="translate(79.61 75.728)" fill="#ceeac3" data-original="#ceeac3"></path><path d="M0 0c0 48.708-18.872 96.911-38.009 141.702a69.588 69.588 0 0 1-15.009-24.842c-33.909-98.007-36.707-252.353-36.707-268.046v-33.958c0-6.366 5.162-11.526 11.527-11.526H0Z" style="fill-opacity:1;fill-rule:nonzero;stroke:none" transform="translate(123.642 261.888)" fill="#ceeac3" data-original="#ceeac3"></path><path d="M0 0a69.597 69.597 0 0 1-15.009-24.842 380.773 380.773 0 0 1-5.265-16.501A360.686 360.686 0 0 0-6.023-141.702V-338.373h44.032v196.671C38.009-92.994 19.137-44.791 0 0" style="fill-opacity:1;fill-rule:nonzero;stroke:none" transform="translate(85.633 403.59)" fill="#bbe3a9" data-original="#bbe3a9"></path><path d="M0 0h-207.503c-8.741 0-15.826 7.085-15.826 15.826v42.471H15.825V15.826C15.825 7.085 8.74 0 0 0" style="fill-opacity:1;fill-rule:nonzero;stroke:none" transform="translate(359.75 7.5)" fill="#e1f1da" data-original="#e1f1da"></path><path d="M0 0v-42.471c0-8.74-7.085-15.826-15.825-15.826h35.192c8.74 0 15.825 7.086 15.825 15.826V0Z" style="fill-opacity:1;fill-rule:nonzero;stroke:none" transform="translate(340.383 65.797)" fill="#ceeac3" data-original="#ceeac3"></path><path d="M0 0c0 48.708 9.865 96.911 29.002 141.702A69.137 69.137 0 0 1 6.77 157.563l-85.395 39.166h-125.477l-85.394-39.166a69.141 69.141 0 0 1-22.233-15.861A360.661 360.661 0 0 0-282.727 0v-202.541c0-10.345 8.387-18.732 18.733-18.732h241.942C-9.873-221.273 0-211.4 0-199.221v38.369z" style="fill-opacity:1;fill-rule:nonzero;stroke:none" transform="translate(397.361 261.888)" fill="#a8db8d" data-original="#a8db8d"></path><path d="m0 0-44.085 20.219A21.637 21.637 0 0 0-55.508 9.782l-6.213-2.447 26.904-12.339c.087-.038.173-.078.26-.117 13.41-6.061 20.217-21.163 16.219-35.325-8.455-29.954-23.25-87.333-23.25-122.121V-364.01c0-7.358-5.27-13.491-12.266-14.826h25.033c12.178 0 22.051 9.873 22.051 22.051v199.222c0 48.708 9.866 96.911 29.002 141.702A69.157 69.157 0 0 1 0 0" style="fill-opacity:1;fill-rule:nonzero;stroke:none" transform="translate(404.13 419.452)" fill="#8fd47c" data-original="#8fd47c"></path><path d="M0 0c10.422 4.105 16.007 15.468 12.891 26.228L9.299 38.625a37.682 37.682 0 0 1-25.58 25.67 271.1 271.1 0 0 1-152.684 0 37.682 37.682 0 0 1-25.58-25.67l-3.592-12.397c-3.117-10.76 2.469-22.123 12.891-26.228l82.127-32.344a28.653 28.653 0 0 1 20.994 0z" style="fill-opacity:1;fill-rule:nonzero;stroke:none" transform="translate(348.623 429.234)" fill="#a8db8d" data-original="#a8db8d"></path><path d="M0 0c.282-8.434 5.475-16.218 13.715-19.463l82.127-32.345a28.648 28.648 0 0 1 20.994.001l82.125 32.344C207.2-16.218 212.394-8.434 212.676 0l-15.814 1.475a974.571 974.571 0 0 1-181.052 0Z" style="fill-opacity:1;fill-rule:nonzero;stroke:none" transform="translate(149.662 448.697)" fill="#bbe3a9" data-original="#bbe3a9"></path><path d="M0 0a37.671 37.671 0 0 1-15.095-20.729l-3.592-12.396c-3.117-10.76 2.469-22.123 12.891-26.228l82.127-32.344a28.61 28.61 0 0 1 7.641-1.846C72.159-83.925 26.421-45.101 0 0" style="fill-opacity:1;fill-rule:nonzero;stroke:none" transform="translate(169.173 488.587)" fill="#8fd47c" data-original="#8fd47c"></path><path d="M0 0a37.671 37.671 0 0 1-15.094 20.728c-26.421-45.101-72.158-83.925-83.97-93.542 2.598.26 5.17.873 7.64 1.846l82.125 32.343C1.123-34.52 6.708-23.156 3.592-12.397z" style="fill-opacity:1;fill-rule:nonzero;stroke:none" transform="translate(357.922 467.858)" fill="#8fd47c" data-original="#8fd47c"></path><path d="M0 0c-8.975 6.394-27.233 21.198-37.298 41.923-2.101 4.326-6.467 7.089-11.275 7.089h-105.469c-4.809 0-9.174-2.763-11.275-7.089C-175.382 21.198-193.641 6.394-202.615 0a12.528 12.528 0 0 1-5.27-10.207V-63.79c0-6.916 5.607-12.522 12.523-12.522H-7.253c6.916 0 12.523 5.606 12.523 12.522v53.583C5.27-6.15 3.305-2.354 0 0" style="fill-opacity:1;fill-rule:nonzero;stroke:none" transform="translate(357.308 151.429)" fill="#8fd47c" data-original="#8fd47c"></path><path d="M0 0c-8.975 6.394-27.233 21.198-37.298 41.923-2.101 4.326-6.467 7.089-11.275 7.089h-35.026c4.809 0 9.174-2.763 11.276-7.089C-62.259 21.198-44 6.394-35.025 0a12.53 12.53 0 0 0 5.269-10.207V-63.79c0-6.916-5.606-12.522-12.522-12.522h35.025c6.916 0 12.523 5.606 12.523 12.522v53.583C5.27-6.15 3.305-2.354 0 0" style="fill-opacity:1;fill-rule:nonzero;stroke:none" transform="translate(357.308 151.429)" fill="#7bcc60" data-original="#7bcc60"></path><path d="M0 0v-86.702" style="stroke-width:15;stroke-linecap:round;stroke-linejoin:round;stroke-miterlimit:10;stroke-dasharray:none;stroke-opacity:1" transform="translate(234.68 401.153)" fill="none" stroke="#000000" stroke-width="15" stroke-linecap="round" stroke-linejoin="round" stroke-miterlimit="10" stroke-dasharray="none" stroke-opacity="" data-original="#000000"></path><path d="M0 0v-53.106" style="stroke-width:15;stroke-linecap:round;stroke-linejoin:round;stroke-miterlimit:10;stroke-dasharray:none;stroke-opacity:1" transform="translate(277.32 401.152)" fill="none" stroke="#000000" stroke-width="15" stroke-linecap="round" stroke-linejoin="round" stroke-miterlimit="10" stroke-dasharray="none" stroke-opacity="" data-original="#000000"></path><path d="M0 0v-52.548C0-62.894 8.387-71.28 18.732-71.28h241.943c12.179 0 22.052 9.873 22.052 22.051v199.222c0 48.708 9.865 96.911 29.002 141.702a69.172 69.172 0 0 1-22.233 15.861l-44.092 20.223" style="stroke-width:15;stroke-linecap:round;stroke-linejoin:round;stroke-miterlimit:10;stroke-dasharray:none;stroke-opacity:1" transform="translate(114.635 111.895)" fill="none" stroke="#000000" stroke-width="15" stroke-linecap="round" stroke-linejoin="round" stroke-miterlimit="10" stroke-dasharray="none" stroke-opacity="" data-original="#000000"></path><path d="m0 0-44.095-20.224a69.141 69.141 0 0 1-22.232-15.861 360.661 360.661 0 0 0 29.002-141.702v-114.749" style="stroke-width:15;stroke-linecap:round;stroke-linejoin:round;stroke-miterlimit:10;stroke-dasharray:none;stroke-opacity:1" transform="translate(151.96 439.675)" fill="none" stroke="#000000" stroke-width="15" stroke-linecap="round" stroke-linejoin="round" stroke-miterlimit="10" stroke-dasharray="none" stroke-opacity="" data-original="#000000"></path><path d="M0 0v0a37.671 37.671 0 0 1-15.095-20.729l-3.592-12.396c-3.117-10.76 2.469-22.123 12.891-26.228l82.127-32.344a28.61 28.61 0 0 1 7.641-1.846C72.159-83.925 26.421-45.101 0 0Z" style="stroke-width:15;stroke-linecap:round;stroke-linejoin:round;stroke-miterlimit:10;stroke-dasharray:none;stroke-opacity:1" transform="translate(169.173 488.587)" fill="none" stroke="#000000" stroke-width="15" stroke-linecap="round" stroke-linejoin="round" stroke-miterlimit="10" stroke-dasharray="none" stroke-opacity="" data-original="#000000"></path><path d="M0 0a37.671 37.671 0 0 1-15.094 20.728c-26.421-45.101-72.158-83.925-83.97-93.542 2.598.26 5.17.873 7.64 1.846l82.125 32.343C1.123-34.52 6.708-23.156 3.592-12.397z" style="stroke-width:15;stroke-linecap:round;stroke-linejoin:round;stroke-miterlimit:10;stroke-dasharray:none;stroke-opacity:1" transform="translate(357.922 467.858)" fill="none" stroke="#000000" stroke-width="15" stroke-linecap="round" stroke-linejoin="round" stroke-miterlimit="10" stroke-dasharray="none" stroke-opacity="" data-original="#000000"></path><path d="M0 0a28.653 28.653 0 0 1 20.994 0" style="stroke-width:15;stroke-linecap:round;stroke-linejoin:round;stroke-miterlimit:10;stroke-dasharray:none;stroke-opacity:1" transform="translate(245.504 396.89)" fill="none" stroke="#000000" stroke-width="15" stroke-linecap="round" stroke-linejoin="round" stroke-miterlimit="10" stroke-dasharray="none" stroke-opacity="" data-original="#000000"></path><path d="M0 0a37.588 37.588 0 0 1-10.479 4.957 271.114 271.114 0 0 1-152.683 0A37.587 37.587 0 0 1-173.639.001" style="stroke-width:15;stroke-linecap:round;stroke-linejoin:round;stroke-miterlimit:10;stroke-dasharray:none;stroke-opacity:1" transform="translate(342.82 488.572)" fill="none" stroke="#000000" stroke-width="15" stroke-linecap="round" stroke-linejoin="round" stroke-miterlimit="10" stroke-dasharray="none" stroke-opacity="" data-original="#000000"></path><path d="M0 0a974.491 974.491 0 0 1-122.141 0" style="stroke-width:15;stroke-linecap:round;stroke-linejoin:round;stroke-miterlimit:10;stroke-dasharray:none;stroke-opacity:1" transform="translate(317.071 452.455)" fill="none" stroke="#000000" stroke-width="15" stroke-linecap="round" stroke-linejoin="round" stroke-miterlimit="10" stroke-dasharray="none" stroke-opacity="" data-original="#000000"></path><path d="M0 0c-8.975 6.394-27.233 21.198-37.298 41.923-2.101 4.326-6.467 7.089-11.275 7.089h-105.469c-4.809 0-9.174-2.763-11.275-7.089C-175.382 21.198-193.641 6.394-202.615 0a12.528 12.528 0 0 1-5.27-10.207V-63.79c0-6.916 5.607-12.522 12.523-12.522H-7.253c6.916 0 12.523 5.606 12.523 12.522v53.583C5.27-6.15 3.305-2.354 0 0Z" style="stroke-width:15;stroke-linecap:round;stroke-linejoin:round;stroke-miterlimit:10;stroke-dasharray:none;stroke-opacity:1" transform="translate(357.308 151.429)" fill="none" stroke="#000000" stroke-width="15" stroke-linecap="round" stroke-linejoin="round" stroke-miterlimit="10" stroke-dasharray="none" stroke-opacity="" data-original="#000000"></path><path d="M0 0c-2.431 8.932-5.064 17.58-7.918 25.829a69.574 69.574 0 0 1-15.009 24.842l-.259-.608" style="stroke-width:15;stroke-linecap:round;stroke-linejoin:round;stroke-miterlimit:10;stroke-dasharray:none;stroke-opacity:1" transform="translate(449.294 352.919)" fill="none" stroke="#000000" stroke-width="15" stroke-linecap="round" stroke-linejoin="round" stroke-miterlimit="10" stroke-dasharray="none" stroke-opacity="" data-original="#000000"></path><path d="M0 0H69.195c6.367 0 11.527 5.161 11.527 11.527v33.958c0 12.729-1.841 116.684-20.633 207.802" style="stroke-width:15;stroke-linecap:round;stroke-linejoin:round;stroke-miterlimit:10;stroke-dasharray:none;stroke-opacity:1" transform="translate(397.361 65.218)" fill="none" stroke="#000000" stroke-width="15" stroke-linecap="round" stroke-linejoin="round" stroke-miterlimit="10" stroke-dasharray="none" stroke-opacity="" data-original="#000000"></path><path d="M0 0a69.597 69.597 0 0 1-15.009-24.842c-33.909-98.008-36.707-252.353-36.707-268.046v-33.958c0-6.366 5.16-11.527 11.527-11.527h69.191" style="stroke-width:15;stroke-linecap:round;stroke-linejoin:round;stroke-miterlimit:10;stroke-dasharray:none;stroke-opacity:1" transform="translate(85.633 403.59)" fill="none" stroke="#000000" stroke-width="15" stroke-linecap="round" stroke-linejoin="round" stroke-miterlimit="10" stroke-dasharray="none" stroke-opacity="" data-original="#000000"></path><path d="M0 0v-20.091c0-6.394 5.184-11.578 11.578-11.578h43.813c6.394 0 11.578 5.184 11.578 11.578v14.219" style="stroke-width:15;stroke-linecap:round;stroke-linejoin:round;stroke-miterlimit:10;stroke-dasharray:none;stroke-opacity:1" transform="translate(47.666 65.218)" fill="none" stroke="#000000" stroke-width="15" stroke-linecap="round" stroke-linejoin="round" stroke-miterlimit="10" stroke-dasharray="none" stroke-opacity="" data-original="#000000"></path><path d="M0 0v-17.29c0-8.74 7.085-15.825 15.825-15.825h207.504c8.74 0 15.825 7.085 15.825 15.825V.007c-.089-.001-.176-.007-.265-.007" style="stroke-width:15;stroke-linecap:round;stroke-linejoin:round;stroke-miterlimit:10;stroke-dasharray:none;stroke-opacity:1" transform="translate(136.42 40.615)" fill="none" stroke="#000000" stroke-width="15" stroke-linecap="round" stroke-linejoin="round" stroke-miterlimit="10" stroke-dasharray="none" stroke-opacity="" data-original="#000000"></path><path d="M0 0v-20.091c0-6.394 5.184-11.578 11.578-11.578h43.813c6.394 0 11.578 5.184 11.578 11.578V0" style="stroke-width:15;stroke-linecap:round;stroke-linejoin:round;stroke-miterlimit:10;stroke-dasharray:none;stroke-opacity:1" transform="translate(397.365 65.218)" fill="none" stroke="#000000" stroke-width="15" stroke-linecap="round" stroke-linejoin="round" stroke-miterlimit="10" stroke-dasharray="none" stroke-opacity="" data-original="#000000"></path></g></g></svg>