<svg xmlns="http://www.w3.org/2000/svg" version="1.1" xmlns:xlink="http://www.w3.org/1999/xlink" width="512" height="512" x="0" y="0" viewBox="0 0 512 493.83" style="enable-background:new 0 0 512 512" xml:space="preserve"><g><path fill="#3e84ff" d="M218.76 5.53h73.99v279.96h-73.99z" opacity="1" data-original="#3e84ff"></path><path fill="#232323" d="M292.75 290.92h-74a5.41 5.41 0 0 1-5.41-5.41v-280A5.41 5.41 0 0 1 218.75.1h74a5.41 5.41 0 0 1 5.41 5.41v280a5.41 5.41 0 0 1-5.41 5.41zm-68.58-10.82h63.17V10.92h-63.17z" opacity="1" data-original="#232323"></path><path fill="#3e84ff" d="M258 487c115.86 9 158.18-27.12 158.18-27.12l-25-160.71L455 425.87l51.58-23.55-120.2-333.91a30 30 0 0 0-15.08-16.82c-37-18-78.12-46.18-78.12-46.18l-39.24 274.33z" opacity="1" data-original="#3e84ff"></path><path fill="#232323" d="M293.72 493.84c-11.65 0-23.73-.48-36.17-1.44a5.41 5.41 0 0 1-5-5.29l-4-207.27a5.4 5.4 0 0 1 .05-.87L287.83 4.65a5.41 5.41 0 0 1 8.41-3.7c.41.28 41.26 28.14 77.44 45.78a35.24 35.24 0 0 1 17.8 19.85l120.2 333.91a5.41 5.41 0 0 1-2.84 6.75l-51.58 23.55a5.41 5.41 0 0 1-7.07-2.48l-48.46-96.06 19.76 126.8a5.41 5.41 0 0 1-1.83 4.95c-.47.4-11.71 9.83-37.53 18a255.85 255.85 0 0 1-50 10 369.48 369.48 0 0 1-38.41 1.84zm-30.44-11.92c94.21 6.37 137-17.75 147-24.5L385.76 300a5.41 5.41 0 0 1 10.17-3.27l61.57 122.06 42.32-19.32L381.3 70.24a24.48 24.48 0 0 0-12.36-13.79c-27.75-13.53-58.09-32.89-71.62-41.78l-38 265.4z" opacity="1" data-original="#232323"></path><path fill="#3e84ff" d="M362 99.59s-1.12 12.71.37 38.12l28.78 161.45" opacity="1" data-original="#3e84ff"></path><path fill="#232323" d="M391.1 304.58a5.41 5.41 0 0 1-5.32-4.46L357 138.66a5.36 5.36 0 0 1-.07-.63c-1.5-25.52-.41-38.38-.36-38.91a5.41 5.41 0 0 1 10.77 1c0 .29-1 12.78.37 37l28.72 161.1a5.41 5.41 0 0 1-5.33 6.36zM255.08 319.56a5.41 5.41 0 0 1-5.08-7.14l71.6-210.82-14-10.36a5.41 5.41 0 0 1-.9-7.86l15.68-18.46-2.82-36.13-29.29-18.87a5.41 5.41 0 0 1 5.84-9.1l31.56 20.3a5.41 5.41 0 0 1 2.47 4.13l3.2 41a5.41 5.41 0 0 1-1.27 3.93l-13.44 15.8 12.53 9.26a5.41 5.41 0 0 1 1.91 6.09L260.2 315.92a5.41 5.41 0 0 1-5.12 3.64zM327.94 380.07a5.41 5.41 0 0 1-5.36-4.68l-4.48-32.89a5.41 5.41 0 0 1 4.41-6.05l72.27-12.9a5.41 5.41 0 1 1 1.9 10.65l-67.17 12 3 22.24 67.56-11.14a5.41 5.41 0 1 1 1.8 10.62l-73 12a5.41 5.41 0 0 1-.93.15z" opacity="1" data-original="#232323"></path><path fill="#3e84ff" d="M267.68 486.8c-115.86 8.97-171.83-26.88-171.83-26.88l25-160.71L57 425.87 5.41 402.32 125.62 68.41a30 30 0 0 1 15.08-16.82c37-18 78.12-46.18 78.12-46.18l39.24 274.32z" opacity="1" data-original="#3e84ff"></path><path fill="#232323" d="M231.29 493.64c-13.69 0-27-.63-39.87-1.88a324.77 324.77 0 0 1-54.54-9.84c-28.93-8-43.35-17.1-43.95-17.49a5.41 5.41 0 0 1-2.42-5.38l19.76-126.8-48.46 96.05a5.41 5.41 0 0 1-7.07 2.48L3.16 407.24a5.41 5.41 0 0 1-2.84-6.75L120.53 66.58a35.24 35.24 0 0 1 17.8-19.85c36.2-17.65 77-45.5 77.44-45.78a5.41 5.41 0 0 1 8.41 3.7l39.23 274.27v.51l9.62 207.07a5.41 5.41 0 0 1-5 5.64c-12.43 1.02-24.73 1.5-36.74 1.5zm-129.52-36.61c5.45 2.92 18.32 9.09 38.59 14.63 24.71 6.75 65.64 13.86 121.64 10.13l-9.36-201.54-38-265.57c-13.49 8.88-43.83 28.24-71.58 41.77a24.48 24.48 0 0 0-12.36 13.79L12.18 399.47l42.32 19.32 61.57-122.05a5.41 5.41 0 0 1 10.17 3.27z" opacity="1" data-original="#232323"></path><path fill="#3e84ff" d="M150 99.59s1.12 12.71-.37 38.12l-28.74 161.46" opacity="1" data-original="#3e84ff"></path><path fill="#232323" d="M120.9 304.58a5.41 5.41 0 0 1-5.33-6.36l28.72-161.14c1.42-24.39.38-36.89.37-37a5.41 5.41 0 0 1 10.77-.95c0 .54 1.14 13.4-.36 38.91a5.41 5.41 0 0 1-.07.63l-28.78 161.45a5.41 5.41 0 0 1-5.32 4.46zM259.63 319.56a5.41 5.41 0 0 1-5.1-3.61L179 101.39a5.41 5.41 0 0 1 1.89-6.15l12.53-9.26-13.48-15.77a5.41 5.41 0 0 1-1.27-3.93l3.2-41a5.41 5.41 0 0 1 2.47-4.13L215.89.86a5.41 5.41 0 1 1 5.84 9.1l-29.3 18.81-2.81 36.15 15.74 18.48a5.41 5.41 0 0 1-.9 7.86l-14 10.33 74.25 210.79a5.41 5.41 0 0 1-5.1 7.21zM184.06 380.07a5.41 5.41 0 0 1-.88-.07l-73-12a5.41 5.41 0 0 1 1.76-10.67l67.56 11.14 3-22.24-67.17-12a5.41 5.41 0 1 1 1.9-10.65l72.27 12.9a5.41 5.41 0 0 1 4.41 6.05l-4.48 32.89a5.41 5.41 0 0 1-5.36 4.68z" opacity="1" data-original="#232323"></path><circle cx="200.57" cy="258.84" r="5.41" fill="#232323" opacity="1" data-original="#232323"></circle><circle cx="319.54" cy="258.84" r="5.41" fill="#232323" opacity="1" data-original="#232323"></circle><circle cx="230.07" cy="357.16" r="5.41" fill="#232323" opacity="1" data-original="#232323"></circle><circle cx="292.5" cy="357.16" r="5.41" fill="#232323" opacity="1" data-original="#232323"></circle><path fill="#3e84ff" d="M286.44 52.54h-60.88" opacity="1" data-original="#3e84ff"></path><path fill="#232323" d="M286.44 57.92h-60.88a5.41 5.41 0 0 1 0-10.82h60.89a5.41 5.41 0 0 1 0 10.82z" opacity="1" data-original="#232323"></path></g></svg>