<svg xmlns="http://www.w3.org/2000/svg" version="1.1" xmlns:xlink="http://www.w3.org/1999/xlink" width="512" height="512" x="0" y="0" viewBox="0 0 512 512" style="enable-background:new 0 0 512 512" xml:space="preserve"><g><path d="M41.172 455.317c13.509 3.62 24.48 2.959 24.48 2.959v-28l-50.387-13.501-3.895 14.536s-2.237 15.422 29.802 24.006z" style="" fill="#ffe07d" data-original="#ffe07d"></path><path d="m65.652 430.277-3.305 12.334a9.996 9.996 0 0 1-11.752 7.191A152.01 152.01 0 0 1 43.133 448c-24.145-6.47-31.763-16.688-31.763-16.689L7.5 445.753s7.617 10.219 31.763 16.689c24.146 6.47 35.852 1.429 35.852 1.429l7.765-28.978-17.228-4.616z" style="" fill="#ffd064" data-original="#ffd064"></path><path d="M52.342 422.905c6.597 1.768 16.645 3.032 22.19 3.93l38.155-65.694-10-139.285L24.5 278.238c-10.562 35.094-17 70.575-17 101.229 0 3.206.183 6.302.491 9.25 5.758 15.957 18.112 27.157 44.351 34.188z" style="" fill="#ffe07d" data-original="#ffe07d"></path><path d="M101.346 363.462 74.06 410.724a10.009 10.009 0 0 1-10.689 4.795 190.395 190.395 0 0 1-11.029-2.614c-26.239-7.031-38.675-17.343-44.351-24.188 1.704 16.322 7.273 28.059 7.273 28.059s7.617 10.219 31.763 16.689c24.146 6.47 35.852 1.429 35.852 1.429l39.807-68.947h13.755V211.833l-33.755 10.024v136.605c0 1.755-.462 3.48-1.34 5z" style="" fill="#ffd064" data-original="#ffd064"></path><path d="m102.686 231.857 11.129-63.602h-20L53.27 204.171c-11.196 23.14-21.075 48.501-28.77 74.067l78.186-46.381z" style="" fill="#e592b8" data-original="#e592b8"></path><path d="M136.442 211.833v-43.578h-22.626l-7.849 4.656c-5.298 3.143-7.637 8.275-6.114 17.666 1.797 11.083 2.834 24.865 2.834 41.28l33.755-20.024z" style="" fill="#e175a5" data-original="#e175a5"></path><path d="M470.828 455.317c13.509-3.62 22.68-9.678 22.68-9.678l-14-24.249-50.387 13.502 3.895 14.536c0 .001 5.774 14.474 37.812 5.889z" style="" fill="#ffe07d" data-original="#ffe07d"></path><path d="m479.508 421.391 3.305 12.334c1.378 5.143-1.506 10.465-6.573 12.101a150.967 150.967 0 0 1-7.373 2.173c-24.145 6.47-35.852 1.429-35.852 1.429l3.87 14.442s11.706 5.041 35.852-1.429c24.146-6.47 31.763-16.689 31.763-16.689l-7.765-28.978-17.227 4.617z" style="" fill="#ffd064" data-original="#ffd064"></path><path d="m470.921 262.471-75.363-50.638H136.442v154.113h252.872l28.084 48.644s13.799 15.942 42.26 8.316c27.53-7.377 34.842-15.129 34.842-43.438 0-59.037-23.579-116.997-23.579-116.997z" style="" fill="#ffe07d" data-original="#ffe07d"></path><path d="m487.5 278.238-16.579-15.767h-10c14.15 41.022 23.579 82.919 23.579 116.996 0 5.181-.475 10.08-1.19 14.52-1.141 7.083-6.033 13.001-12.765 15.482a125.043 125.043 0 0 1-10.887 3.436c-28.461 7.626-42.26 1.684-42.26 1.684l11.722 20.304s11.706 5.041 35.852-1.429c24.146-6.47 31.763-16.689 31.763-16.689s7.765-16.357 7.765-37.309c0-30.654-6.437-66.134-17-101.228z" style="" fill="#ffd064" data-original="#ffd064"></path><path d="m438.867 186.456-40.682-18.201h-22.626v43.578l85.363 50.638c9.032-9.033-2.192-58.3-22.055-76.015z" style="" fill="#e592b8" data-original="#e592b8"></path><path d="m458.73 204.171-19.863-17.715h-10c11.814 23.414 22.918 49.528 32.054 76.015l26.579 15.767c-7.694-25.566-17.574-50.928-28.77-74.067z" style="" fill="#e175a5" data-original="#e175a5"></path><path d="M256 484.442c70.476 0 103.795-8.16 103.795-20.184 0-2.841-10-26.609-10-26.609h-207.59v19.294c8.513 20.94 35.458 27.499 113.795 27.499z" style="" fill="#ffe07d" data-original="#ffe07d"></path><path d="M349.795 437.649v25.609c0 5.944-27.896 14.184-93.795 14.184-73.25 0-104.669-9.454-113.795-20.499v8.315c0 13.944 23.896 27.184 113.795 27.184s113.795-13.24 113.795-27.184v-27.609h-20z" style="" fill="#ffd064" data-original="#ffd064"></path><path d="M379.314 419.223c-.105-3.01 9.979-144.423 10-185.9H122.686v187.9c9.482 20.035 56.564 31.219 133.314 31.219 112.724 0 123.795-19.391 123.314-33.219z" style="" fill="#ffe07d" data-original="#ffe07d"></path><path d="M369.314 419.223c.481 13.828-34.143 23.219-113.314 23.219-27.365 0-116.291-4.196-133.314-21.219 0 24.074 27.995 41.219 133.314 41.219s133.314-17.145 133.314-41.219v-187.9s-20.005-.157-20.005 11.429-.1 171.46.005 174.471z" style="" fill="#ffd064" data-original="#ffd064"></path><path d="M369.309 244.751c0-28.737 17.819-70.18 28.875-76.497H113.815c5.333 11.943 8.871 34.588 8.871 64.911v.157L256 309.485l113.309-64.734z" style="" fill="#e592b8" data-original="#e592b8"></path><path d="m398.185 168.255-12.804 7.315c-11.056 6.316-16.067 15.083-16.067 57.596l-.005 11.586 20.005-11.429v-.157c0-30.324 3.537-52.969 8.871-64.911z" style="" fill="#e175a5" data-original="#e175a5"></path><path d="M362.538 98.369C335.858 85.548 323.5 79.558 323.5 79.558h-135s-48.248 23.3-59.037 28.37c-25.885 12.164-53.681 49.715-76.193 96.242l60.546-35.916L256 249.485l142.185-81.23 30.682 18.201c0-35.186-37.559-74.565-66.329-88.087z" style="" fill="#938dc8" data-original="#938dc8"></path><path d="m428.867 186.456 29.863 17.715c-22.512-46.527-50.308-84.078-76.193-96.242-3.582-1.683-11.295-5.377-19.999-9.56 18.882 8.875 43.881 43.598 66.329 88.087z" style="" fill="#7f78bd" data-original="#7f78bd"></path><path d="M256 99.558c43.756 0 57.5-16.626 57.5-22 0-3.769-10-38-10-38h-115v20c0 11.046 15.019 40 67.5 40z" style="" fill="#938dc8" data-original="#938dc8"></path><path d="M303.5 39.558v34c0 5.374-15.554 16-47.5 16-37.279 0-67.5-18.954-67.5-30v20c0 11.046 30.221 30 67.5 30s67.5-18.954 67.5-30v-40h-20z" style="" fill="#7f78bd" data-original="#7f78bd"></path><path d="M256 59.558c39.946 0 57.5-15.333 57.5-23 0-4.718-10-12.638-10-12.638-10.65-2.728-26.065-4.362-47.5-4.362-28.744 0-46.679 2.935-56.777 7.513 0 21.918 27.095 32.487 56.777 32.487z" style="" fill="#7f78bd" data-original="#7f78bd"></path><path d="M303.5 23.921v10.638c0 5-18.221 15-47.5 15-29.682 0-49.802-12.014-56.777-22.487-7.549 3.422-10.723 7.762-10.723 12.487 0 11.046 30.221 30 67.5 30s67.5-18.954 67.5-30c0-6.333-5.692-11.974-20-15.638z" style="" fill="#6a61b2" data-original="#6a61b2"></path><path d="M172.882 456.794c-38.121-6.94-50.196-19.761-50.196-35.571V233.166c0-30.323-3.537-52.968-8.871-64.911M398.185 168.255c-5.333 11.943-8.871 34.588-8.871 64.911v188.057c0 24.074-27.995 41.219-133.314 41.219-19.667 0-36.638-.598-51.233-1.727" style="stroke-width:15;stroke-linecap:round;stroke-linejoin:round;stroke-miterlimit:10;" fill="none" stroke="#000000" stroke-width="15" stroke-linecap="round" stroke-linejoin="round" stroke-miterlimit="10" data-original="#000000"></path><path d="M369.795 447.649v17.609c0 13.944-23.896 27.184-113.795 27.184s-113.795-13.24-113.795-27.184v-17.609M108.021 123.195C57.674 170.461 7.5 293.815 7.5 379.467c0 20.952 7.765 37.309 7.765 37.309M188.5 79.558s-43.61 21.06-53.361 25.643" style="stroke-width:15;stroke-linecap:round;stroke-linejoin:round;stroke-miterlimit:10;" fill="none" stroke="#000000" stroke-width="15" stroke-linecap="round" stroke-linejoin="round" stroke-miterlimit="10" data-original="#000000"></path><path d="M75.115 463.87s-11.706 5.041-35.852-1.429C15.117 455.972 7.5 445.753 7.5 445.753l7.765-28.978s7.617 10.219 31.763 16.689 35.852 1.429 35.852 1.429l-7.765 28.977zM188.5 39.558c0-11.046 17.267-20 67.5-20s67.5 8.954 67.5 20-30.221 30-67.5 30-67.5-18.954-67.5-30z" style="stroke-width:15;stroke-linecap:round;stroke-linejoin:round;stroke-miterlimit:10;" fill="none" stroke="#000000" stroke-width="15" stroke-linecap="round" stroke-linejoin="round" stroke-miterlimit="10" data-original="#000000"></path><path d="M323.5 39.558v40c0 11.046-30.221 30-67.5 30s-67.5-18.954-67.5-30v-40M82.879 434.893l39.807-68.948M429.121 434.893l-39.807-68.948M256 201.452v282.852M256 69.558v101.894M53.261 204.176l60.554-35.921 139.878 79.912M24.484 278.247l97.972-58.118M122.686 233.166l131.007 75.001" style="stroke-width:15;stroke-linecap:round;stroke-linejoin:round;stroke-miterlimit:10;" fill="none" stroke="#000000" stroke-width="15" stroke-linecap="round" stroke-linejoin="round" stroke-miterlimit="10" data-original="#000000"></path><path d="M323.5 79.558s48.248 23.3 59.037 28.37c56.43 26.519 121.963 173.65 121.963 271.538 0 20.952-7.765 37.309-7.765 37.309" style="stroke-width:15;stroke-linecap:round;stroke-linejoin:round;stroke-miterlimit:10;" fill="none" stroke="#000000" stroke-width="15" stroke-linecap="round" stroke-linejoin="round" stroke-miterlimit="10" data-original="#000000"></path><path d="M436.885 463.87s11.706 5.041 35.852-1.429c24.146-6.47 31.763-16.689 31.763-16.689l-7.765-28.978s-7.617 10.219-31.763 16.689c-24.146 6.47-35.852 1.429-35.852 1.429l7.765 28.978zM458.739 204.176l-60.554-35.921-139.878 79.912M418.905 237.546l-29.361-17.417M487.516 278.247l-40.883-24.252M389.314 233.166l-131.007 75.001" style="stroke-width:15;stroke-linecap:round;stroke-linejoin:round;stroke-miterlimit:10;" fill="none" stroke="#000000" stroke-width="15" stroke-linecap="round" stroke-linejoin="round" stroke-miterlimit="10" data-original="#000000"></path></g></svg>