<svg xmlns="http://www.w3.org/2000/svg" version="1.1" xmlns:xlink="http://www.w3.org/1999/xlink" width="512" height="512" x="0" y="0" viewBox="0 0 512 512" style="enable-background:new 0 0 512 512" xml:space="preserve"><g><path d="M396.287 147.59c-1.35-44.18-6.28-69.11-20.52-97.59V10h-240v40c-14.17 28.34-19.15 53.6-20.52 97.59-1.81 57.18 2.47 146.01.52 314.41v40h120V357.98c0-67.82 6.7-141.48 20-207.98 13.3 66.5 20 140.16 20 207.98V502h120v-40c-1.97-168.96 2.24-257.6.52-314.41z" style="" fill="#7ec2db" data-original="#7ec2db"></path><path d="M396.287 147.59h-.1c-34.72-8.74-60.42-40.16-60.42-77.59V50h40c14.24 28.48 19.17 53.41 20.52 97.59zM175.767 50v20c0 37.43-25.71 68.86-60.43 77.59h-.09c1.37-43.99 6.35-69.25 20.52-97.59h40z" style="" fill="#ffffff" data-original="#ffffff"></path><path d="M346.017 316c0 5.52 4.48 10 10 10s10-4.48 10-10-4.48-10-10-10-10 4.48-10 10z" fill="#000000" opacity="1" data-original="#000000"></path><path d="M376.017 0h-240c-5.522 0-10 4.477-10 10v37.675c-13.706 28.161-19.114 54.6-20.515 99.598-.806 25.461-.427 56.219.099 98.79.635 51.436 1.505 121.879.417 215.821l.002.055c0 .021-.003.041-.003.061v40c0 5.522 4.478 10 10 10h120c5.522 0 10-4.478 10-10V357.98c0-48.557 3.483-99.177 10-147.169 6.517 47.992 10 98.612 10 147.169V502c0 5.522 4.478 10 10 10h120c5.522 0 10-4.478 10-10v-40c0-.021-.003-.041-.003-.062l.002-.055c-1.109-95.151-.242-165.955.392-217.654.512-41.772.881-71.953.124-96.945-1.391-45.538-6.61-71.089-20.515-99.611V10c0-5.523-4.477-10-10-10zm-30 60h23.716c9.807 21.228 14.356 41.599 16.177 73.238-24.03-11.405-39.893-35.781-39.893-63.238V60zm20-20h-20V20h20v20zm-40 0h-140V20h140v20zm-60 20h20v50c0 13.036-8.361 24.152-20 28.28V60zm-100-40v20h-20V20h20zm-23.716 40h23.716v10c0 27.458-15.861 51.83-39.885 63.233 1.837-31.671 6.385-52.045 16.169-73.233zm83.716 432h-100v-20h100v20zm0-134.02V452h-99.891c.917-89.136.087-156.511-.526-206.184-.474-38.325-.827-67.019-.301-90.683 36.103-12.364 60.718-46.357 60.718-85.133V60h60v89.048c-12.896 64.875-20 139.022-20 208.932zm160 134.02h-100v-20h100v20zm.392-248.016c-.611 49.95-1.44 117.709-.502 208.016h-99.89v-94.02c0-66.513-6.434-136.856-18.165-199.407 21.875-5.331 38.165-25.08 38.165-48.573V60h20v10c0 38.769 24.608 72.761 60.709 85.131.487 23.199.143 51.32-.317 88.853z" fill="#000000" opacity="1" data-original="#000000"></path><path d="M356.017 346c-5.522 0-10 4.477-10 10v66c0 5.523 4.478 10 10 10s10-4.477 10-10v-66c0-5.523-4.477-10-10-10z" fill="#000000" opacity="1" data-original="#000000"></path></g></svg>