<svg xmlns="http://www.w3.org/2000/svg" version="1.1" xmlns:xlink="http://www.w3.org/1999/xlink" width="512" height="512" x="0" y="0" viewBox="0 0 491.5 491.5" style="enable-background:new 0 0 512 512" xml:space="preserve"><g><g fill="#7e57c2" fill-rule="evenodd" clip-rule="evenodd"><path d="M313.7 36.7c0-.7-.5-1.2-1.2-1.2H179c-.7 0-1.2.5-1.2 1.2V61h135.9zM315.2 70.6H176.3c-4.9 13.1-23.3 67.7-15.1 122.9 19.4 24.2 41.3 37.2 72.1 43.1 2.8-22.8 5.5-39.9 7.9-46 .7-1.8 2.5-3.1 4.5-3.1s3.8 1.2 4.5 3.1c2.4 6.2 5.2 23.2 7.9 46 30.9-5.9 52.7-19 72.2-43.1 8.2-55.2-10.2-109.7-15.1-122.9zM167.8 253.3c16.6 18 35.4 28.8 60.2 34.3 1.4-14.7 2.8-28.8 4.2-41.5-28.2-5.2-49.5-16-68-34.9.9 7.8 2.5 23.2 3.6 42.1zM167.4 326.9c-2.7 30 2.3 66.8 7.3 94h43.9c1.5-34.2 4.7-81 8.5-123.6-23.6-5.1-42.3-14.5-58.6-29.7.7 18.7.6 39.6-1.1 59.3zM263.5 287.6c24.8-5.5 43.6-16.3 60.2-34.3 1.1-18.9 2.7-34.3 3.6-42.1-18.6 18.9-39.8 29.7-68 34.9 1.4 12.7 2.9 26.8 4.2 41.5zM323 267.6c-16.4 15.2-35 24.6-58.6 29.7 3.8 42.6 7 89.4 8.5 123.6h43.9c5-27.2 10-64 7.3-94-1.7-19.7-1.8-40.6-1.1-59.3zM273.7 453.8c0 .8.4 1.3.7 1.6.2.2.8.7 1.6.7h31.6c1.1 0 1.9-.7 2.2-1.7 1.1-5.1 3.1-13.4 5.1-23.9h-41.7c.3 9 .5 16.9.5 23.3zM176.5 430.5c2.1 10.5 4 18.8 5.3 23.8.3 1 1.1 1.7 2.2 1.7h31.6c.8 0 1.3-.4 1.6-.7.3-.2.7-.8.7-1.6-.2-6.3 0-14.1.3-23.2z" fill="#7e57c2" opacity="1" data-original="#7e57c2"></path></g></g></svg>