<svg xmlns="http://www.w3.org/2000/svg" version="1.1" xmlns:xlink="http://www.w3.org/1999/xlink" width="512" height="512" x="0" y="0" viewBox="0 0 64 64" style="enable-background:new 0 0 512 512" xml:space="preserve"><g><path d="M59.704 37.718c-.224-.793-.32-2.002-1.265-2.273-.348-3.405-2.887-3.398-5.807-3.39-2.392.01-5.378.02-8.975-1.29-2.046-.747-4.198-1.782-6.399-3.063a1.325 1.325 0 0 0-.508-.708l-3.856-2.63a1.338 1.338 0 0 0-1.038-.198c-2.24-1.331-3.73-4.165-5.9-2.22-1.562 1.716-1.67 4.063-1.595 5.309.03.475.2.929.495 1.313l.62.803-19.281-5.68c-1.013-.303-2.114.137-2.62 1.042-2.277 4.077-1.357 9.11-.971 10.73a1.83 1.83 0 0 0-.525 1.122l-.317 3.364c-.078.834.467 1.664 1.27 1.93C8.655 43.737 17.468 43 17.84 42.968a.75.75 0 0 0 .684-.711l.093-1.89c6.642 2.196 13.075 3.019 13.114 3.024 8.274 1.316 22.604-2.604 26.92-3.823a1.537 1.537 0 0 0 1.053-1.85zm-11.717-4.385c-4.413.403-9.455-.435-12.96-1.23l1.858-2.89c3.572 2.03 7.32 3.696 11.102 4.12zm-12.202-5.182-3.755 5.897-4.575-2.026c.05-.09 4.712-6.338 4.712-6.338l3.618 2.467zm-8.729-5.187a.546.546 0 0 1 .753-.049c.649.543 1.651 1.347 2.874 2.25l-3.218 4.329-1.42-1.84a.892.892 0 0 1-.187-.489c-.048-.813-.028-2.853 1.198-4.201zm-22.171 2.5c.164-.291.542-.439.883-.334-.005.008 20.491 6.016 20.456 6.034-.563.716-.262 1.864.58 2.211l4.618 2.044c.65.292 1.428.071 1.823-.546l.921-1.432c5.752 1.323 13.585 2.578 19.24.12 2.522.028 3.374.244 3.54 1.997-2.858.745-9.809 2.241-15.864 3.343-8.387 1.417-15.51-.933-20.08-2.206-2.6-.722-12.704-1.46-16.975-1.748-.354-1.61-1.065-6.04.858-9.482zm27.062 16.442c-.069-.009-6.968-.89-13.783-3.277-.453-.173-.988.185-.997.672l-.108 2.219c-2.143.132-9.074.417-13.556-1.065-.133-.044-.26-.232-.248-.365l.317-3.364a.306.306 0 0 1 .313-.286c6.756.455 14.695 1.14 16.717 1.7 4.673 1.303 12.023 3.716 20.749 2.238 6.732-1.226 14.134-2.843 16.583-3.517l.303 1.266c-2.997.861-18.347 5.095-26.29 3.78z" fill="#000000" opacity="1" data-original="#000000"></path></g></svg>