<svg xmlns="http://www.w3.org/2000/svg" version="1.1" xmlns:xlink="http://www.w3.org/1999/xlink" width="512" height="512" x="0" y="0" viewBox="0 0 52 52" style="enable-background:new 0 0 512 512" xml:space="preserve"><g><path fill="#4c5c75" d="M48.582 32.544c.46.037.83.413 1.032.827.52 1.063.251 2.601-.55 3.471-.802.87-1.96 1.331-3.119 1.568-2.555.523-5.2.08-7.758-.437a26.432 26.432 0 0 1-1.951-.451c-1.04-.294-3.458-1.387-4.407-1.902z" opacity="1" data-original="#4c5c75"></path><path fill="#bf7d5a" d="M49.61 35.227c-.925 1.885-3.278 2.542-5.374 2.699a23.912 23.912 0 0 1-5.13-.235 30.581 30.581 0 0 1-5.074-1.226c-.959-.318-1.913-.676-2.812-1.137-.875-.449-1.636-1.089-2.278-1.834-1.768-2.054-7.047-7.626-11.144-10.727-2.367-1.791-3.678-3.717-3.817-3.989-.351-.684-.597-.915-.792-2.944a20.184 20.184 0 0 1 .312-6.446c.034-.145.168-.68.201-.814.022-.09.056-.167.09-.256.056-.159.203-.506.334-.67.011-.01.011-.022.022-.033.046-.068.231-.27.312-.334.058-.058.285-.2.446-.246.134-.044.28-.067.413-.067.093 0 .325.027.446.067.354.076.63.237 1.026.435 1.27.635 5.917 3.273 9.87 5.955.033.022.066.034.1.056.212.149 2.191 1.457 4.494 3.178.747.547 1.539 1.138 2.464 1.26h.09c.022 0 .022.011.044.011.725.079 1.483-.122 2.197.056 1.004.257 1.662 1.171 2.309 1.974 1.828 2.253 4.148 4.037 6.345 5.933 1.793 1.551 4.107 3.594 4.929 5.732.446 1.148.535 2.498-.022 3.602z" opacity="1" data-original="#bf7d5a"></path><path fill="#bf7d5a" d="M30.61 19.759c-1.264 1.2-1.978 3.091-1.413 4.739.243.698.698 1.31.95 2.008.196.526.211 1.224-.252 1.538-.259.173-.588.173-.878.079-.29-.095-.542-.267-.785-.44-2.824-2.048-5.147-4.346-6.818-6.975-2.283-3.154-5.06-7.68-7.712-12.137.023-.087.054-.165.086-.251.065-.195.202-.495.337-.675.008-.008.008-.016.024-.032.056-.09.22-.268.306-.33.145-.108.26-.197.455-.25a1.472 1.472 0 0 1 .855 0c.34.085.624.223 1.02.431.112.075 3.898 2.009 9.878 5.955.031.024.063.04.094.063 1.573 1.06 2.981 2.04 4.496 3.17.753.557 1.538 1.138 2.463 1.263a.382.382 0 0 0 .095.008c.015 0 .023.008.039.008-1.154.384-2.37.996-3.24 1.828z" opacity="1" data-original="#bf7d5a"></path><path fill="#aa6256" d="M32.1 17.986c-.753.376-1.412.831-1.922 1.318a.138.138 0 0 0-.032.039c-1.522 1.467-2.141 3.617-1.545 5.359.258.733.723 1.38.957 2.016.07.207.16.677-.016.808-.21.158-.741-.204-.949-.353-2.903-2.11-5.076-4.33-6.653-6.802-1.828-2.527-3.939-5.885-5.845-9.03-.597-.982-1.162-1.939-1.703-2.841.08-.256.213-.442.29-.557 0 0 .016-.024.063-.07l.078-.08.142-.109c.086-.037.194-.086.353-.086.058 0 .198.016.243.031.319.08.683.246.934.392 3.104 1.613 6.914 4.005 9.823 5.924 1.192.815 2.539 1.698 4.558 3.209.377.282.785.58 1.224.832z" opacity="1" data-original="#aa6256"></path><path fill="#8a4852" d="M29.542 27.526c-.21.158-.741-.204-.949-.353-2.903-2.11-5.076-4.33-6.653-6.802-1.828-2.527-3.939-5.885-5.845-9.03l.086-.064c.047-.023.086-.039.102-.047.536-.124.835.083 1.718.534.463.243.91.478 1.232.659 4.297 2.449 8.784 5.365 10.913 6.92-1.522 1.467-2.141 3.617-1.545 5.359.258.733.723 1.38.957 2.016.068.204.156.68-.016.808z" opacity="1" data-original="#8a4852"></path><path fill="#aa6256" d="m42.986 37.128-.187-.001.004-.235h.183c.146 0 .292-.001.439-.005l.006.235c-.148.004-.296.006-.445.006zm-.818-.019c-.21-.01-.419-.022-.63-.039l.019-.234c.207.016.415.029.622.038zm1.896-.017-.017-.235c.206-.014.413-.033.62-.056l.026.234c-.21.023-.42.042-.63.057zm-3.152-.08a27.813 27.813 0 0 1-.626-.074l.03-.234c.208.027.414.052.62.074zm4.407-.063-.036-.232c.204-.033.407-.07.61-.113l.05.23a12.52 12.52 0 0 1-.624.115zm-5.657-.1-.622-.1.039-.232.618.099zm6.896-.16-.06-.227c.075-.02.15-.04.225-.062a2.94 2.94 0 0 0 .356-.125l.092.217a3.268 3.268 0 0 1-.383.135c-.077.021-.154.043-.23.062zm-8.137-.044a45.31 45.31 0 0 1-.619-.112l.043-.231c.206.038.41.075.616.11zm-1.236-.232a30.94 30.94 0 0 1-.617-.13l.05-.23c.204.045.408.088.613.13zm10.556-.23-.13-.197c.161-.106.32-.228.484-.372l.155.177c-.172.15-.338.279-.509.392zm-11.786-.043c-.204-.05-.407-.102-.61-.157l.061-.228c.202.055.403.107.606.157zm-1.217-.331a18.04 18.04 0 0 1-.601-.193l.075-.223c.197.067.394.13.594.19zm-1.196-.406a16.003 16.003 0 0 1-.586-.236l.092-.217c.192.082.385.16.579.233zm15.168-.054-.17-.163a17.3 17.3 0 0 0 .423-.458l.174.157c-.14.158-.282.314-.427.464zm-16.33-.442c-.19-.091-.378-.187-.564-.287l.112-.207c.183.098.368.192.554.282zm17.164-.519-.194-.135c.115-.164.219-.341.308-.525l.211.103a4.128 4.128 0 0 1-.325.557zm-18.277-.081c-.294-.177-.434-.277-.534-.343l.133-.194c.1.066.247.169.522.335zm-1.049-.713c-.168-.128-.333-.26-.494-.395l.152-.18c.158.133.32.262.485.388zm-.97-.811a16.338 16.338 0 0 1-.457-.436l.166-.167c.147.146.298.289.45.429zm-.898-.887a22.317 22.317 0 0 1-.426-.465l.176-.157c.139.156.279.31.421.46zm-.84-.94a33.26 33.26 0 0 1-.402-.484l.183-.149c.132.162.265.322.399.48zm-.796-.975c-.13-.165-.258-.33-.386-.496l.187-.143c.126.165.255.33.384.493zm-.77-.993-.38-.5.188-.142.38.498zm-.76-.999-.382-.497.187-.143.382.497zM24.417 27c-.13-.163-.26-.326-.392-.488l.182-.148c.132.162.263.325.394.49zm-.794-.968c-.207-.245-.323-.37-.41-.47l.176-.157c.116.133.135.149.413.475zm-.832-.93c-.143-.151-.287-.3-.434-.449l.167-.166c.148.15.295.3.439.453zm-.88-.886c-.15-.144-.303-.286-.456-.426l.16-.174c.154.142.307.284.459.43zm-.924-.84c-.158-.136-.317-.27-.478-.402l.149-.182c.162.133.323.268.483.405zm-.965-.793c-.164-.127-.33-.253-.498-.377l.14-.19c.169.126.336.253.502.382zm-1.005-.74c-.162-.115-.35-.243-.516-.352l.13-.196c.162.107.342.23.521.354zm-1.04-.69c-.176-.111-.353-.22-.533-.326l.12-.202c.18.107.36.216.539.328zm-1.074-.636c-.183-.101-.366-.2-.55-.296l.108-.209c.187.097.371.197.555.299zm-1.108-.611a2.41 2.41 0 0 1-.487-.44l.18-.151c.127.15.27.28.44.397zm-.848-.98a6.798 6.798 0 0 1-.272-.577l.216-.092c.1.234.181.406.262.558zm-.512-1.16a13.771 13.771 0 0 1-.216-.595l.223-.075c.066.197.137.391.212.585zm-.406-1.198a13.057 13.057 0 0 1-.161-.612l.228-.055c.048.201.101.402.16.6zm-.296-1.23c-.04-.207-.076-.415-.107-.623l.233-.035c.031.205.066.41.105.613zm-.187-1.25c-.022-.21-.04-.42-.052-.63l.234-.015c.013.207.03.413.052.62zm-.078-1.263c-.004-.227-.003-.434.002-.632l.236.006a14.35 14.35 0 0 0-.002.622zm.266-1.248-.234-.016c.015-.21.034-.42.057-.63l.234.026c-.023.206-.042.413-.057.62zm.14-1.236-.233-.036c.033-.208.07-.416.113-.623l.23.048c-.042.203-.079.406-.11.611z" opacity="1" data-original="#aa6256"></path><path fill="#4c5c75" d="M37.519 38.931c.46.037.83.413 1.032.828.52 1.063.251 2.6-.55 3.47s-1.96 1.332-3.119 1.569c-2.555.522-5.2.079-7.758-.438a26.43 26.43 0 0 1-1.951-.451c-1.04-.293-3.458-1.387-4.407-1.902z" opacity="1" data-original="#4c5c75"></path><path fill="#dba660" d="M38.548 41.614c-.926 1.885-3.279 2.543-5.375 2.699a23.912 23.912 0 0 1-5.13-.234 30.581 30.581 0 0 1-5.074-1.227c-.959-.317-1.913-.675-2.812-1.136-.875-.45-1.636-1.09-2.278-1.835-1.768-2.054-7.047-7.626-11.144-10.726-2.367-1.792-3.678-3.718-3.817-3.99-.351-.684-.597-.915-.792-2.944-.28-2.443-.064-4.999.402-6.858.033-.134.078-.268.111-.402.022-.089.056-.167.09-.256.137-.385.352-.784.668-1.037.058-.058.285-.2.446-.246.134-.044.28-.066.413-.066.528 0 1.07.296 1.55.535 3.308 1.804 6.606 3.76 9.791 5.921.034.023.067.034.1.056.335.234.67.446 1.004.68a110.07 110.07 0 0 1 3.49 2.498c.748.547 1.54 1.138 2.465 1.26h.09c.022 0 .022.012.044.012.725.078 1.483-.123 2.197.055 1.004.257 1.662 1.171 2.309 1.974 2.608 3.214 6.171 5.43 9.21 8.62.837.904 1.618 1.885 2.064 3.045.446 1.149.535 2.498-.022 3.602z" opacity="1" data-original="#dba660"></path><path fill="#bf7d5a" d="M19.546 26.146c-1.263 1.2-1.977 3.091-1.412 4.739.243.698.698 1.31.95 2.008.196.526.211 1.224-.252 1.538-.542.362-1.176-.015-1.663-.36-2.824-2.048-5.147-4.347-6.818-6.976-2.283-3.154-5.06-7.68-7.712-12.137.023-.086.054-.165.086-.251.113-.34.382-.833.667-1.036.145-.109.26-.198.455-.251.133-.04.274-.063.408-.063.687 0 1.426.502 1.553.534 3.13 1.654 6.838 3.966 9.792 5.916.031.023.063.039.094.062.337.228.675.448 1.004.683 1.185.808 2.346 1.632 3.492 2.487.753.557 1.537 1.138 2.463 1.263.032.008.063.008.094.008.016 0 .024.008.04.008-1.154.384-2.37.996-3.24 1.828z" opacity="1" data-original="#bf7d5a"></path><path fill="#aa6256" d="M21.037 24.373c-.753.376-1.412.832-1.922 1.318a.138.138 0 0 0-.032.04c-1.522 1.466-2.141 3.616-1.545 5.358.258.733.723 1.38.957 2.016.016.047.031.087.031.134.056.19.105.561-.047.674-.21.159-.741-.204-.949-.353-2.903-2.11-5.076-4.33-6.653-6.802-1.828-2.526-3.939-5.884-5.846-9.03-.596-.981-1.16-1.938-1.702-2.84.04-.126.102-.252.165-.37.154-.231.107-.178.266-.337.1-.046.16-.196.495-.196.058 0 .198.016.243.031.514.129.896.387 1.067.455 2.984 1.569 6.873 4.003 9.69 5.861l.353.236c.243.164.486.321.73.494 1.247.855 2.385 1.663 3.475 2.48.377.282.785.58 1.224.83z" opacity="1" data-original="#aa6256"></path><path fill="#8a4852" d="M18.526 33.239c.035.153.123.548-.047.674-.21.159-.741-.204-.949-.353-2.903-2.11-5.076-4.33-6.653-6.802-1.828-2.526-3.939-5.884-5.846-9.03l.087-.063c.047-.024.086-.04.102-.047.243-.057.423-.078.879.117.1.05.94.468.839.416.463.243.91.479 1.232.66 3.153 1.796 8.13 4.887 10.913 6.92-1.522 1.466-2.141 3.616-1.545 5.358.258.733.723 1.38.957 2.016.016.047.021.088.031.134z" opacity="1" data-original="#8a4852"></path><path fill="#bf7d5a" d="m31.736 43.514.003-.235c.112 0 .249.005.623-.005l.006.235c-.376.01-.532.005-.632.005zm-.63-.017c-.21-.01-.42-.023-.63-.04l.018-.234c.207.016.415.029.622.038zM33 43.479l-.017-.234c.206-.015.413-.034.62-.057l.026.234c-.21.024-.42.042-.63.057zm-3.152-.08a27.788 27.788 0 0 1-.626-.074l.03-.234c.208.027.414.052.62.074zm4.407-.063-.036-.232c.203-.033.407-.07.61-.113l.05.23c-.208.044-.415.082-.624.115zm-5.657-.1-.622-.1.039-.232.618.1zm6.896-.16-.06-.227c.226-.06.385-.103.58-.187l.093.217a3.268 3.268 0 0 1-.384.135c-.076.022-.153.043-.229.062zm-8.137-.044a45.37 45.37 0 0 1-.619-.112l.043-.231c.206.039.41.075.616.11zm-1.236-.232a30.967 30.967 0 0 1-.617-.13l.05-.23c.204.046.408.088.613.13zm10.556-.23-.13-.196c.161-.107.32-.229.484-.373l.155.177a4.75 4.75 0 0 1-.509.392zm-11.786-.043c-.204-.05-.407-.102-.61-.157l.061-.227c.202.054.403.106.606.156zm-1.217-.331c-.202-.061-.403-.125-.601-.192l.075-.223c.197.066.394.13.594.19zm-1.196-.406a15.994 15.994 0 0 1-.586-.236l.092-.217c.192.082.385.16.579.233zm15.168-.053-.17-.164a17.3 17.3 0 0 0 .423-.458l.174.157c-.14.158-.282.314-.427.465zm-16.33-.443c-.19-.091-.378-.186-.564-.286l.112-.208c.183.098.368.192.554.282zm17.164-.519-.194-.134c.115-.165.219-.342.308-.525l.211.102a4.127 4.127 0 0 1-.325.557zm-18.277-.081c-.294-.177-.434-.277-.534-.343l.133-.194c.1.066.247.169.522.335zm-1.049-.712c-.168-.128-.333-.26-.494-.395l.152-.18c.158.132.32.261.485.387zm-.97-.812a16.349 16.349 0 0 1-.457-.436l.166-.167c.147.146.298.29.45.429zm-.898-.887a22.322 22.322 0 0 1-.426-.464l.176-.157c.139.155.279.308.421.46zm-.84-.94c-.135-.16-.268-.32-.402-.484l.183-.149c.132.162.265.323.399.48zm-.796-.975a61.14 61.14 0 0 1-.386-.495l.187-.144c.126.165.255.33.384.493zm-.77-.993-.38-.5.188-.142.38.499zm-.76-.998-.382-.498.187-.143.382.497zm-.767-.99c-.13-.163-.26-.326-.392-.487l.182-.149c.132.162.263.326.394.49zm-.794-.967c-.208-.246-.323-.371-.41-.472l.176-.156c.116.133.135.149.413.475zm-.832-.93c-.143-.152-.287-.302-.435-.45l.168-.166c.148.15.295.3.439.453zm-.88-.887c-.15-.144-.303-.286-.456-.426l.159-.174c.155.142.308.285.46.43zm-.924-.84c-.158-.136-.317-.27-.478-.402l.149-.182c.162.133.323.269.483.406zm-.965-.792c-.164-.128-.33-.254-.498-.378l.14-.189c.169.125.336.252.502.381zm-1.005-.741c-.162-.115-.35-.242-.516-.352l.13-.196c.162.107.342.23.521.355zm-1.04-.69c-.176-.111-.353-.22-.533-.326l.12-.202c.18.107.36.216.539.328zm-1.074-.636a23.76 23.76 0 0 0-.55-.296l.108-.208c.187.097.371.196.555.298zm-1.108-.61a2.41 2.41 0 0 1-.487-.44l.18-.152c.127.15.27.28.44.397zm-.848-.98a6.798 6.798 0 0 1-.272-.578l.216-.092c.1.235.181.407.262.558zm-.512-1.16a13.77 13.77 0 0 1-.216-.595l.223-.076c.066.197.137.392.212.585zm-.406-1.2a13.058 13.058 0 0 1-.161-.611l.228-.054c.048.2.101.401.16.6zm-.296-1.229c-.04-.207-.076-.414-.107-.623l.233-.034c.031.204.065.409.105.612zm-.187-1.25c-.022-.21-.04-.42-.052-.63l.234-.014c.013.206.03.413.052.619zm-.078-1.263a15.77 15.77 0 0 1 .002-.632l.236.006a13.891 13.891 0 0 0-.002.622zm.266-1.248-.234-.016c.015-.21.034-.42.057-.63l.234.027a15.18 15.18 0 0 0-.057.62zm.14-1.236-.233-.036c.033-.208.07-.416.113-.623l.23.048c-.042.203-.079.407-.11.611z" opacity="1" data-original="#bf7d5a"></path></g></svg>