<svg xmlns="http://www.w3.org/2000/svg" version="1.1" xmlns:xlink="http://www.w3.org/1999/xlink" width="512" height="512" x="0" y="0" viewBox="0 0 467.931 440.62" style="enable-background:new 0 0 512 512" xml:space="preserve"><g><g data-name="Calque 2"><g data-name="31- Gloves"><path fill="#ffa4d7" d="M382.221 201.905S469.259 56.475 366.19 9.79 141.2 136.49 164.213 264.351l123.114 98.479s101.819-43.62 157.548-110.2-10.811-106.077-62.654-50.725z" opacity="1" data-original="#ffa4d7"></path><ellipse cx="228.054" cy="294.814" fill="#51518e" rx="80.429" ry="114.197" transform="rotate(-52.91 227.885 294.636)" opacity="1" data-original="#51518e"></ellipse><ellipse cx="218.72" cy="310.41" fill="#3e3e7a" rx="46.656" ry="82.207" transform="rotate(-54.48 218.812 310.422)" opacity="1" data-original="#3e3e7a"></ellipse><path fill="#51518e" d="M307.912 114.312s62.731-8.328 47.459 35.16c-12 34.156-64.817 39.981-83.172 40.251a12.341 12.341 0 0 1-10.875-6.406c-9.61-16.923-31.959-64.623-6.083-105.35 32.079-50.488 52.671 36.345 52.671 36.345z" opacity="1" data-original="#51518e"></path><path fill="#ffc4e0" d="M208.017 190.369s0-172.32-110.567-153-125.883 235.1-41.881 329.9l153.644 12.978s63.9-94.817 77.3-182.756-62.701-83.37-78.496-7.122z" opacity="1" data-original="#ffc4e0"></path><ellipse cx="124.834" cy="356.604" fill="#51518e" rx="111.988" ry="82.016" opacity="1" data-original="#51518e"></ellipse><ellipse cx="124.834" cy="375.084" fill="#3e3e7a" rx="80.678" ry="47.54" opacity="1" data-original="#3e3e7a"></ellipse><path fill="#51518e" d="M101.06 158.776s48.736-42.764 57.813 2.637c7.129 35.659-34.509 70.667-49.863 81.351a11.863 11.863 0 0 1-12.414.789c-16.658-8.808-59.613-36.333-58.346-85.445 1.572-60.884 62.81.668 62.81.668z" opacity="1" data-original="#51518e"></path><path d="M457.769 182.053c-14.133-12.517-41.477-12.46-67.7 9.645 12.645-24.665 39.055-84.873 24.014-132.806-7.185-22.9-23.019-40.029-47.064-50.918-29.877-13.535-63.109-9.786-96.1 10.837-28.667 17.92-55.491 47.749-75.88 84.288-6.977-19.452-17.464-38.983-33.195-52.2C144.315 36.167 122.535 30.95 97.107 35.4c-30.134 5.266-55.23 25.3-72.573 57.925-32.123 60.434-32.749 155.147-1.6 225.656-7.726 11.319-12.088 24.103-12.088 37.619 0 46.327 51.135 84.016 113.988 84.016 48.427 0 89.89-22.375 106.377-53.834a117.991 117.991 0 0 0 30.23 4.134c27.584 0 50.733-11.051 62.847-31.287a61.832 61.832 0 0 0 6.814-16.555c34.794-19.291 82.765-50.3 115.3-89.169 29.068-34.72 24.29-60.405 11.367-71.852zM28.066 95.2C44.809 63.7 68.921 44.382 97.8 39.335c24.209-4.228 44.888.688 61.466 14.618 46.2 38.815 46.75 135.44 46.75 136.412a2 2 0 0 0 3.958.406c5.861-28.281 20.224-46.572 34.952-53.4a2.058 2.058 0 0 0 .388-.174 28.5 28.5 0 0 1 16.754-2.463c14.363 2.58 28.865 20.485 22.471 62.451a290.943 290.943 0 0 1-7.632 34.693v.012c-10.6 37.729-27.764 74.29-42.441 101.662-13.628-35.154-57.614-60.962-109.625-60.962-42.446 0-79.542 17.19-99.16 42.62C-4.075 245.966-3.2 154.027 28.066 95.2zm257.052 55.026c-4.669-10.778-12.605-17.677-22.347-19.428a31.454 31.454 0 0 0-16.825 1.883c-2.5-20.168 1.176-38.206 10.984-53.64 6.871-10.815 13.54-15.76 19.82-14.708 14.733 2.476 26.085 37.255 29.216 50.447a2 2 0 0 0 2.208 1.521c.326-.043 32.746-4.154 43.879 9.547 4.4 5.416 4.881 13.143 1.432 22.967-9.144 26-42.813 34.64-63.717 37.5 1-14.33-.568-26.664-4.65-36.092zm-48.9 188.5c7.923-14.583 16.694-32 24.854-50.969 24.075 23.48 33.956 50.993 24.027 67.588-7.5 12.529-25.076 17.032-47.237 12.2a62.547 62.547 0 0 0-1.644-28.821zm-111.38 97.9c-60.647 0-109.988-35.895-109.988-80.016s49.341-80.016 109.988-80.016 109.985 35.889 109.985 80.006-49.341 80.02-109.989 80.02zm196.022-79.042c-15.3 25.556-49.617 35.455-87.856 25.545a66.2 66.2 0 0 0 4.04-11.67 81.611 81.611 0 0 0 17.254 1.98c15.722 0 27.96-5.557 34.234-16.042 11.043-18.457.432-48.566-25.786-73.574a443.238 443.238 0 0 0 17.182-47.955c20.7 16.835 36.294 38.121 44.041 60.244 8.013 22.888 6.909 44.718-3.113 61.466zm122.478-106.243c-31.2 37.272-76.9 67.3-111.107 86.527 2.275-13.263.8-27.974-4.49-43.084-8.156-23.289-24.7-45.645-46.627-63.1a292.9 292.9 0 0 0 7.375-33.894q.575-3.769.936-7.39c21.755-2.866 57.859-11.886 67.834-40.258 3.942-11.228 3.234-20.252-2.106-26.82-11.054-13.6-38.408-11.908-45.725-11.185-2.315-8.957-13.575-48.647-32.013-51.747-8.02-1.35-16.045 4.2-23.861 16.507-10.516 16.546-14.343 35.881-11.422 57.475-13.023 6.565-25.5 21.1-32.672 42.8a320.861 320.861 0 0 0-5.419-41.212 242.5 242.5 0 0 0-7.247-27.748c20.267-37.4 47.319-67.927 76.242-86.006 31.8-19.881 63.731-23.542 92.331-10.586 22.962 10.4 38.068 26.708 44.9 48.472 18.32 58.381-27.055 136.236-29.7 140.69-.012.019-.02.04-.032.059s-.016.029-.024.043a1.971 1.971 0 0 0-.151.31l-.01.03a1.962 1.962 0 0 0-.092.35v.01a1.991 1.991 0 0 0 .557 1.732 1.957 1.957 0 0 0 .724.457l.017.005a1.93 1.93 0 0 0 .349.092c.021 0 .043 0 .065.006a2 2 0 0 0 .256.024h.052c.041 0 .082-.008.123-.012a1.905 1.905 0 0 0 .249-.032c.056-.012.111-.032.166-.049a2 2 0 0 0 .2-.066c.061-.026.118-.061.177-.093a1.822 1.822 0 0 0 .166-.095 2.017 2.017 0 0 0 .163-.133c.042-.035.088-.064.128-.1.006-.006.01-.015.017-.022l.028-.024c27.1-28.923 57.022-30.97 71.426-18.216 11.579 10.242 15.44 33.761-11.783 66.283z" fill="#000000" opacity="1" data-original="#000000"></path><path d="M124.834 325.544c-45.588 0-82.678 22.223-82.678 49.54s37.09 49.54 82.678 49.54 82.679-22.224 82.679-49.54-37.09-49.54-82.679-49.54zm0 95.08c-43.383 0-78.678-20.429-78.678-45.54s35.295-45.54 78.678-45.54 78.679 20.429 78.679 45.54-35.295 45.54-78.679 45.54zM95.662 245.322a13.863 13.863 0 0 0 6.484 1.612 14.018 14.018 0 0 0 8.007-2.528c6.052-4.211 58.889-42.33 50.681-83.386-2.319-11.6-7.4-18.8-15.11-21.413-16.24-5.5-38.686 11.639-44.564 16.469-6.565-6.312-35.289-32.541-52.473-25.71-7.858 3.125-12.042 12.442-12.436 27.69-1.283 49.73 41.12 77.594 59.411 87.266zM40.25 158.159c.348-13.5 3.684-21.6 9.914-24.076a12.955 12.955 0 0 1 4.815-.853c14.462 0 36.551 18.807 44.664 26.957a2 2 0 0 0 2.736.093c.256-.224 25.8-22.391 42.065-16.883 6.255 2.121 10.449 8.314 12.468 18.409 6.26 31.314-27.883 64.591-49.044 79.317a9.925 9.925 0 0 1-10.337.663c-17.631-9.323-58.507-36.135-57.281-83.627z" fill="#000000" opacity="1" data-original="#000000"></path></g></g></g></svg>