<svg xmlns="http://www.w3.org/2000/svg" version="1.1" xmlns:xlink="http://www.w3.org/1999/xlink" width="512" height="512" x="0" y="0" viewBox="0 0 512 512" style="enable-background:new 0 0 512 512" xml:space="preserve"><g><path fill="#464c4f" d="M152 24h208v48H152z" opacity="1" data-original="#464c4f"></path><path fill="#4f5659" d="m384 112-8 376h-96l-24-320-24 320h-96l-8-376 24-40h208z" opacity="1" data-original="#4f5659"></path><path fill="#464c4f" d="M256 72h32v80a16 16 0 0 1-16 16h-16V72z" opacity="1" data-original="#464c4f"></path><path d="M360 16H152a8 8 0 0 0-8 8v45.784l-22.86 38.1a8 8 0 0 0-1.14 4.286l8 376a8 8 0 0 0 8 7.83h96a8 8 0 0 0 7.978-7.4L256 274.966 272.022 488.6A8 8 0 0 0 280 496h96a8 8 0 0 0 8-7.83l8-376a8 8 0 0 0-1.138-4.286L368 69.784V24a8 8 0 0 0-8-8zm-96 64h16v72a8.009 8.009 0 0 1-8 8h-8zm-24-16V32h80v32zm-48 0V32h32v32zm144-32h16v32h-16zm-176 0h16v32h-16zm64.578 448h-32.353L200 200.222a8 8 0 1 0-16-.444L176.219 480h-32.387l-7.785-365.863L156.53 80H248v87.7zm143.59 0h-32.387L328 199.778a8 8 0 1 0-15.994.444L319.775 480h-32.353l-22.8-304H272a24.027 24.027 0 0 0 24-24V80h59.47l20.483 34.137z" fill="#000000" opacity="1" data-original="#000000"></path></g></svg>