<svg xmlns="http://www.w3.org/2000/svg" version="1.1" xmlns:xlink="http://www.w3.org/1999/xlink" width="512" height="512" x="0" y="0" viewBox="0 0 512 512" style="enable-background:new 0 0 512 512" xml:space="preserve"><g><path fill="#f6e781" d="M473.014 344.058a3.69 3.69 0 0 0 1.96-4.908L370.25 103.415a58.642 58.642 0 0 0-38.555-32.873c3.101-4.762 4.926-9.552 4.926-14.231C336.621 25.211 300.526 0 256 0s-80.621 25.211-80.621 56.311c0 4.679 1.826 9.469 4.926 14.231a58.642 58.642 0 0 0-38.555 32.873L37.026 339.15a3.69 3.69 0 0 0 1.96 4.908l95.937 39.738-8.791 124.253a3.691 3.691 0 0 0 3.681 3.951h252.372a3.69 3.69 0 0 0 3.681-3.951l-8.791-124.253z" opacity="1" data-original="#f6e781"></path><path fill="#f4dd45" d="M473.014 344.058a3.69 3.69 0 0 0 1.96-4.908L370.25 103.415a58.64 58.64 0 0 0-38.544-32.87c-1.51 2.318-3.322 4.63-5.373 6.919a58.746 58.746 0 0 1 2.71 5.348l31.685 71.324c.187.42-.484-8.272 13.759 193.061l-15.825 6.555a34.24 34.24 0 0 0-21.052 34.051l4.736 66.937c1.402 19.813-14.293 36.658-34.156 36.658H127.31l-1.178 16.653a3.691 3.691 0 0 0 3.681 3.951h252.372a3.69 3.69 0 0 0 3.681-3.951l-8.791-124.253c2.201-.913 97.379-40.337 95.939-39.74zm-89.846-139.41 37.877 85.261c7.816 17.593-.403 38.169-18.189 45.536l-11.16 4.623a1.683 1.683 0 0 1-2.323-1.436l-9.422-133.182c-.133-1.88 2.452-2.524 3.217-.802z" opacity="1" data-original="#f4dd45"></path><path fill="#dab72b" d="M213.199 68.707c7.472 5.663 20.966 14.494 35.728 22.416a14.976 14.976 0 0 0 14.159 0c14.758-7.92 28.253-16.751 35.728-22.416-22.801-16.053-62.821-16.048-85.615 0z" opacity="1" data-original="#dab72b"></path><path fill="#ecc32e" d="M310.826 55.27c-.545-14.179-24.174-29.513-54.82-29.515-30.646.002-54.275 15.336-54.82 29.515-.092 2.388 2.91 6.539 12.013 13.438 22.8-16.053 62.818-16.05 85.615 0 9.102-6.899 12.104-11.05 12.012-13.438z" opacity="1" data-original="#ecc32e"></path><path fill="#ac3345" d="M256 56.66h.013z" opacity="1" data-original="#ac3345"></path><path fill="#f4dd45" d="M263.086 91.123a14.976 14.976 0 0 1-14.159 0 323.655 323.655 0 0 1-5.827-3.202V512h25.812V87.922a326.271 326.271 0 0 1-5.826 3.201z" opacity="1" data-original="#f4dd45"></path><path fill="#f1d333" d="M243.1 491.396h25.812V512H243.1z" opacity="1" data-original="#f1d333"></path><path fill="#f4dd45" d="m348.253 417.809-15.652 6.483a4.545 4.545 0 0 1-5.938-2.46l-27.043-65.288a4.544 4.544 0 0 1 2.459-5.936l15.654-6.484a4.545 4.545 0 0 1 5.938 2.46l27.043 65.287a4.547 4.547 0 0 1-2.461 5.938z" opacity="1" data-original="#f4dd45"></path><path fill="#f1d333" d="m337.611 387.802 2.365 33.435 8.278-3.429a4.544 4.544 0 0 0 2.459-5.936l-12.878-31.091a34.26 34.26 0 0 0-.224 7.021z" opacity="1" data-original="#f1d333"></path><g fill="#f4dd45"><path d="m163.747 417.809 15.652 6.483a4.545 4.545 0 0 0 5.938-2.46l27.043-65.287a4.545 4.545 0 0 0-2.46-5.938l-15.652-6.483a4.545 4.545 0 0 0-5.938 2.46l-27.043 65.287a4.546 4.546 0 0 0 2.46 5.938zM143.856 148.051c-4.248-.302-7.951 2.905-8.253 7.162l-15.731 222.348 15.051 6.234 16.095-227.492a7.728 7.728 0 0 0-7.162-8.252zM167.355 78.974c7.003 10.754 20.259 22.313 39.402 34.357a7.725 7.725 0 0 0 10.654-2.425 7.726 7.726 0 0 0-2.425-10.654c-16.995-10.694-28.988-20.968-34.682-29.711a58.594 58.594 0 0 0-14.047 5.762 7.72 7.72 0 0 0 1.098 2.671zM305.243 113.332c19.142-12.044 32.398-23.604 39.401-34.357a7.716 7.716 0 0 0 1.098-2.671 58.668 58.668 0 0 0-14.047-5.762c-5.693 8.743-17.686 19.018-34.681 29.711a7.726 7.726 0 1 0 8.229 13.079z" fill="#f4dd45" opacity="1" data-original="#f4dd45"></path></g><path fill="#f9f6f6" d="M203.138 174.33a7.726 7.726 0 0 1-7.726-7.726v-63.399a7.726 7.726 0 1 1 15.452 0v63.399a7.726 7.726 0 0 1-7.726 7.726zM308.888 174.33a7.726 7.726 0 0 1-7.726-7.726v-63.399a7.726 7.726 0 1 1 15.452 0v63.399a7.725 7.725 0 0 1-7.726 7.726z" opacity="1" data-original="#f9f6f6"></path></g></svg>