<svg xmlns="http://www.w3.org/2000/svg" version="1.1" xmlns:xlink="http://www.w3.org/1999/xlink" width="512" height="512" x="0" y="0" viewBox="0 0 512 512" style="enable-background:new 0 0 512 512" xml:space="preserve"><g><g data-name="Fill out line"><path d="M168 488H88a80.015 80.015 0 0 1-64-32h128l15.78 31.57Z" style="" fill="#2676b3" data-original="#2676b3"></path><path d="M349.4 272.65a107.507 107.507 0 0 0 7.13 60.59 107.49 107.49 0 0 1 7.86 55.65L360 424l-51.16 7.97a95.16 95.16 0 0 0-52.92 16.06 94.678 94.678 0 0 1-52.54 15.95c-7.12 0 .56.01-5.98.02a54.685 54.685 0 0 1-38.85-16h-.41A54.57 54.57 0 0 0 120 432h-8l-88-8a65.613 65.613 0 0 1 56.25-54.29 139.108 139.108 0 0 0 120.21-153.72L187.66 104 184 72h200l-5.52 32Z" style="" fill="#529fe1" data-original="#529fe1"></path><path d="M360 424v32h-43.16A95.328 95.328 0 0 0 264 472a95.297 95.297 0 0 1-52.84 16h-36.53a53.883 53.883 0 0 1-6.74-.42c-.01.01-.01.01-.02 0A54.638 54.638 0 0 1 136 472a54.735 54.735 0 0 0-38.63-16H24v-32h97.37A54.635 54.635 0 0 1 160 440a54.642 54.642 0 0 0 38.63 16h4.53a95.343 95.343 0 0 0 48.07-13.02c1.62-.94 3.21-1.94 4.77-2.98a95.297 95.297 0 0 1 52.84-16ZM384 72l-5.52 32H187.66L184 72h200z" style="" fill="#4386c5" data-original="#4386c5"></path><path d="M352 72V40a16 16 0 0 1 16-16 16 16 0 0 1 16 16v32Z" style="" fill="#2676b3" data-original="#2676b3"></path><path d="M352 72V40a16 16 0 0 1 16-16h-32a16 16 0 0 0-16 16v32Z" style="" fill="#529fe1" data-original="#529fe1"></path><path d="M416 456h48v32h-48zM128 456a80 80 0 0 0 64 32h80l-16-32Z" style="" fill="#2676b3" data-original="#2676b3"></path><path d="M320 456h96v32h-96z" style="" fill="#236ba1" data-original="#236ba1"></path><path d="M453.4 272.65a107.507 107.507 0 0 0 7.13 60.59 107.49 107.49 0 0 1 7.86 55.65L464 424l-51.16 7.97a95.16 95.16 0 0 0-52.92 16.06 94.678 94.678 0 0 1-52.54 15.95c-7.12 0 .56.01-5.98.02a54.79 54.79 0 0 1-38.85-16.11l-.41-.4a53.259 53.259 0 0 0-37.74-15.61L128 424a65.613 65.613 0 0 1 56.25-54.29 139.108 139.108 0 0 0 120.21-153.72L291.66 104 288 72h200l-5.52 32Z" style="" fill="#529fe1" data-original="#529fe1"></path><path d="M464 424h-51.156A95.267 95.267 0 0 0 360 440a95.267 95.267 0 0 1-52.844 16h-4.529A54.627 54.627 0 0 1 264 440a54.627 54.627 0 0 0-38.627-16H128v32h73.373A54.627 54.627 0 0 1 240 472a54.627 54.627 0 0 0 38.627 16h36.529A95.267 95.267 0 0 0 368 472a95.267 95.267 0 0 1 52.844-16H464ZM488 72l-5.52 32H291.66L288 72h200z" style="" fill="#4386c5" data-original="#4386c5"></path><path d="M456 72V40a16 16 0 0 1 16-16 16 16 0 0 1 16 16v32Z" style="" fill="#2676b3" data-original="#2676b3"></path><path d="M456 72V40a16 16 0 0 1 16-16h-32a16 16 0 0 0-16 16v32Z" style="" fill="#529fe1" data-original="#529fe1"></path><path d="M39.133 464h58.24a46.91 46.91 0 0 1 5.655.344l1.944-15.881a62.681 62.681 0 0 0-7.599-.463H32v-16h72v-16H34.243a57.257 57.257 0 0 1 47.046-38.361A147.092 147.092 0 0 0 208.404 215.08L196.624 112H264V96h-69.205l-1.828-16H264V64h-80a8 8 0 0 0-7.948 8.908l16.456 143.99a131.093 131.093 0 0 1-113.29 144.875 73.637 73.637 0 0 0-63.11 60.912A8.022 8.022 0 0 0 16 424v32a8 8 0 0 0 .845 3.578A65.53 65.53 0 0 0 75.777 496H120v-16H75.777a49.591 49.591 0 0 1-36.644-16ZM328 40a8.01 8.01 0 0 1 8-8h9.371A23.89 23.89 0 0 0 344 40v8h16v-8a8 8 0 0 1 16 0v8h16v-8a24.027 24.027 0 0 0-24-24h-32a24.027 24.027 0 0 0-24 24v8h16Z" fill="#000000" opacity="1" data-original="#000000"></path><path d="M496 40a24.027 24.027 0 0 0-24-24h-32a24.027 24.027 0 0 0-24 24v24H288a8 8 0 0 0-7.948 8.908l16.456 143.99a131.093 131.093 0 0 1-113.29 144.875 73.637 73.637 0 0 0-63.11 60.912A8.022 8.022 0 0 0 120 424v32a8 8 0 0 0 .845 3.578A65.53 65.53 0 0 0 179.777 496H315.16a102.97 102.97 0 0 0 57.281-17.346A87.377 87.377 0 0 1 408 464.951V480h-24v16h80a8 8 0 0 0 8-8v-63.502l4.327-34.613a115.569 115.569 0 0 0-8.443-59.8 99.222 99.222 0 0 1-6.596-56.072l34.596-200.654a7.996 7.996 0 0 0 .104-1.359H496Zm-16 0v24h-16V40a8 8 0 0 1 16 0Zm-48 0a8.01 8.01 0 0 1 8-8h9.376A23.882 23.882 0 0 0 448 40v24h-16Zm46.503 40-2.759 16H298.795l-1.828-16ZM179.777 480a49.595 49.595 0 0 1-36.651-16h58.244a46.951 46.951 0 0 1 32.973 13.657q1.208 1.207 2.472 2.343ZM424 480v-23.87a8.001 8.001 0 0 0-8.401-7.99 103.239 103.239 0 0 0-52.036 17.203A87.011 87.011 0 0 1 315.16 480h-36.53a46.63 46.63 0 0 1-32.973-13.657A63.068 63.068 0 0 0 201.37 448H136v-16.008l88.41-.085h.05a44.99 44.99 0 0 1 32.026 13.266l.406.404a62.431 62.431 0 0 0 44.43 18.451h.09l2.362-.005c.153 0 .303-.004.45-.01.206-.001.96-.002 3.16-.003a102.335 102.335 0 0 0 56.977-17.302A86.978 86.978 0 0 1 412.845 432H456v48Zm21.52-208.706a115.195 115.195 0 0 0 7.657 65.095 99.538 99.538 0 0 1 7.273 51.511l-3.512 28.1h-44.093a102.937 102.937 0 0 0-57.375 17.405 86.379 86.379 0 0 1-48.096 14.605l-2.698.003c-.125 0-.25.002-.371.006l-.05-.001v.002l-.117.004-.001-.003c-.171.002-.825.004-2.747.007h-.068a46.54 46.54 0 0 1-33.116-13.764l-.405-.406a60.883 60.883 0 0 0-43.34-17.95h-.068l-86.147.082a57.257 57.257 0 0 1 47.043-38.351A147.092 147.092 0 0 0 312.404 215.08L300.624 112h172.362Z" fill="#000000" opacity="1" data-original="#000000"></path></g></g></svg>