<svg xmlns="http://www.w3.org/2000/svg" viewBox="0 0 64 64"><g><circle cx="32" cy="32" r="32" fill="#ffffff" opacity="1" data-original="#fff176" class=""></circle><path fill="#546e7a" d="m21.503 40.661-5.099-2.95s1.96 15.241 2.017 15.293c.578.548 1.538.611 2.454.557-1.742-4.223-1.508-8.876.628-12.9zM48.761 46.156s-.635.227-1.645.569a16.4 16.4 0 0 1-.208 4.092 40.318 40.318 0 0 0 1.734-1.012c.872-.667.119-3.649.119-3.649z" opacity="1" data-original="#546e7a" class=""></path><path fill="#455a64" d="M19.262 53.472c.755.246 1.738.11 2.46-.032.06-.012.291-8.765.591-8.628 3.358 1.53 7.783 5.479 9.281 7.54 1.249 1.249 6.13 3.716 15.735-1.767 1.699-.975.571-4.124-.756-3.677-4.303 1.439-13.488 4.309-13.967 2.73-1.155-1.296-6.812-6.497-6.812-6.497s-7.018-3.964-7.738-4.208c-.721-.238 1.206 14.539 1.206 14.539z" opacity="1" data-original="#455a64" class=""></path><path fill="#b388ff" d="M15.017 12.515c-.708 1.595 3.556 15.325 2.923 18.783-.914 3.21-2.126 4.87-1.461 7.969 1.866 2.208 3.763 1.86 10.141 6.29 6.465 4.871 5.048 6.376 8.414 7.084 3.366.709 13.143-2.629 13.728-5.135.414-1.773-.581-3.308-2.214-3.544-6.347-.826-8.06-3.808-8.06-3.808s-2.392-4.252-4.162-10.721c-1.772-6.467.708-14.083-.798-17.982-2.481-2.125-16.12-2.034-18.511 1.064z" opacity="1" data-original="#b388ff" class=""></path><path fill="#9575cd" d="M15.017 12.515c-.709 1.595 6.3 23.034 5.668 26.485-.913 3.214-4.871-2.832-4.206.267 1.866 2.208 3.763 1.86 10.141 6.29 6.465 4.871 5.048 6.376 8.414 7.084 2.806.591 10.068-1.629 12.745-3.839.535-.441.651-.876.628-1.296-.11-1.662-2.095-.886-3.808-1.065-6.348-.826-7.794-4.427-9.3-6.287-1.506-1.861-.621-4.252-2.392-10.721-1.771-6.467 2.125-14.083.62-17.982-2.48-2.125-16.119-2.034-18.51 1.064z" opacity="1" data-original="#9575cd" class=""></path></g></svg>