<svg xmlns="http://www.w3.org/2000/svg" version="1.1" xmlns:xlink="http://www.w3.org/1999/xlink" width="512" height="512" x="0" y="0" viewBox="0 0 511.999 511.999" style="enable-background:new 0 0 512 512" xml:space="preserve"><g><path d="M262.766 263.157c-11.386 64.748-40.605 139.099-117.196 212.261-40.788-22.863-31.688-40.925-67.949-59.124 76.683-59.764 103.89-119.208 114.864-174.765a286.978 286.978 0 0 0 70.281 21.628z" style="" fill="#ffd53e" data-original="#ffd53e"></path><path d="M426.419 57.07C365.237.37 277.672-10.559 231.626 47.925c-24.738 31.505-27.847 70.144-30.545 113.401a208.231 208.231 0 0 1-41.931-45.086c-22.863 9.145-27.161 27.436-63.422 36.581 17.33 38.684 53.545 69.138 96.756 88.937a286.978 286.978 0 0 0 70.281 21.628c39.645 6.859 79.929 5.35 113.858-5.99 95.111-32.054 108.692-145.729 49.796-200.326zm-63.422 131.874a169.654 169.654 0 0 1-93.327 5.396c1.92-51.716-1.966-91.452 11.98-109.743 27.161-36.581 86.057-18.29 108.737 4.573 26.979 27.024 20.211 82.398-27.39 99.774z" style="" fill="#ffd53e" data-original="#ffd53e"></path><path d="M269.679 203.489a9.058 9.058 0 0 1-2.026-.229c-26.265-5.935-51.264-17.97-72.284-34.793-3.946-3.155-4.582-8.912-1.427-12.854a9.146 9.146 0 0 1 12.854-1.427c18.871 15.103 41.309 25.904 64.895 31.236a9.15 9.15 0 0 1 6.905 10.938 9.16 9.16 0 0 1-8.917 7.129zM45.612 452.555a4.57 4.57 0 0 1-4.339-3.132 4.578 4.578 0 0 1 2.894-5.784c15.707-5.222 26.764-15.291 34.839-22.639 1.39-1.262 2.68-2.437 3.882-3.489a4.57 4.57 0 0 1 6.452.439 4.568 4.568 0 0 1-.439 6.447c-1.157 1.015-2.401 2.149-3.74 3.365-8.19 7.453-20.563 18.72-38.108 24.555-.476.16-.965.238-1.441.238zM114.197 511.999a4.501 4.501 0 0 1-1.921-.425 4.568 4.568 0 0 1-2.227-6.068 154.436 154.436 0 0 1 24.692-37.697c1.674-1.884 4.568-2.062 6.457-.384s2.058 4.568.38 6.457a145.549 145.549 0 0 0-23.233 35.465 4.562 4.562 0 0 1-4.148 2.652zM91.334 507.426a4.537 4.537 0 0 1-2.172-.553 4.569 4.569 0 0 1-1.843-6.196 173.483 173.483 0 0 1 33.627-43.719 4.57 4.57 0 0 1 6.466.192 4.568 4.568 0 0 1-.192 6.461 164.376 164.376 0 0 0-31.857 41.423 4.59 4.59 0 0 1-4.029 2.392zM59.335 470.845a4.573 4.573 0 0 1-2.268-8.546c13.645-7.773 23.736-17.262 32.644-25.639 2.689-2.529 5.249-4.934 7.741-7.147a4.586 4.586 0 0 1 6.457.393 4.577 4.577 0 0 1-.389 6.457c-2.428 2.149-4.925 4.495-7.54 6.955-9.273 8.725-19.79 18.611-34.381 26.928a4.578 4.578 0 0 1-2.264.599zM73.043 489.136a4.569 4.569 0 0 1-3.654-7.312c8.853-11.802 26.073-26.494 40.084-37.971a4.58 4.58 0 0 1 6.434.64 4.568 4.568 0 0 1-.64 6.434c-12.552 10.284-30.207 25.245-38.565 36.38a4.558 4.558 0 0 1-3.659 1.829zM103.369 154.969a4.573 4.573 0 0 1-3.736-1.93c-5.172-7.298-19.205-25.296-37.811-34.788a4.571 4.571 0 0 1-1.994-6.15 4.57 4.57 0 0 1 6.15-1.994c19.676 10.037 34.203 27.898 41.112 37.646a4.571 4.571 0 0 1-1.088 6.374c-.8.573-1.723.842-2.633.842zM152.515 123.967a4.581 4.581 0 0 1-4.371-3.233c-3.859-12.566-9.822-36.183-6.42-53.179a4.56 4.56 0 0 1 5.382-3.585 4.568 4.568 0 0 1 3.585 5.382c-3.004 15.026 2.593 36.96 6.196 48.698a4.579 4.579 0 0 1-4.372 5.917zM141.184 131.878a4.577 4.577 0 0 1-4.097-2.529 200.52 200.52 0 0 1-18.249-55.544 4.575 4.575 0 0 1 3.727-5.286 4.57 4.57 0 0 1 5.286 3.727 191.24 191.24 0 0 0 17.417 53.01 4.574 4.574 0 0 1-2.044 6.136 4.54 4.54 0 0 1-2.04.486zM119.967 147.653a4.567 4.567 0 0 1-3.759-1.962 253.694 253.694 0 0 0-41.592-46.353 4.574 4.574 0 0 1 6.004-6.9 263.148 263.148 0 0 1 43.092 48.026 4.572 4.572 0 0 1-1.143 6.365 4.491 4.491 0 0 1-2.602.824zM132.771 138.782a4.567 4.567 0 0 1-3.731-1.921c-11.752-16.516-27.001-39.96-32.9-57.825a4.574 4.574 0 0 1 2.908-5.775 4.57 4.57 0 0 1 5.775 2.908c4.381 13.288 15.337 32.443 31.665 55.393a4.577 4.577 0 0 1-1.075 6.379 4.562 4.562 0 0 1-2.642.841z" style="" fill="#34373e" data-original="#34373e"></path><path d="M224.493 374.043a377.754 377.754 0 0 1-37.13 56.106l-13.718-50.756 50.848-5.35z" style="" fill="#3dbada" data-original="#3dbada"></path><path d="M187.363 434.722a4.57 4.57 0 0 1-4.417-3.384l-13.718-50.761a4.555 4.555 0 0 1 .645-3.777 4.592 4.592 0 0 1 3.292-1.962l50.847-5.35c1.674-.188 3.333.594 4.28 2.003a4.582 4.582 0 0 1 .224 4.719 383.556 383.556 0 0 1-37.582 56.787 4.55 4.55 0 0 1-3.571 1.725zm-7.906-51.341 9.927 36.727a374.316 374.316 0 0 0 26.837-40.596l-36.764 3.869z" style="" fill="#34373e" data-original="#34373e"></path><path d="m205.654 310.804-46.503 17.422a248.945 248.945 0 0 0 21.674-44.857l24.829 27.435z" style="" fill="#fc9c5e" data-original="#fc9c5e"></path><path d="M159.15 332.798a4.571 4.571 0 0 1-3.895-6.964 244.481 244.481 0 0 0 21.276-44.034 4.585 4.585 0 0 1 3.42-2.922 4.539 4.539 0 0 1 4.266 1.422l24.829 27.436a4.548 4.548 0 0 1 1.052 4.147 4.578 4.578 0 0 1-2.84 3.201l-46.503 17.426a4.55 4.55 0 0 1-1.605.288zm23.284-40.833a253.657 253.657 0 0 1-12.931 27.504l28.24-10.581-15.309-16.923z" style="" fill="#34373e" data-original="#34373e"></path><path d="m260.525 68.456-48.881 18.29a117.81 117.81 0 0 1 19.982-38.776 99.857 99.857 0 0 1 9.74-10.746l19.159 31.232z" style="" fill="#fc9c5e" data-original="#fc9c5e"></path><path d="M211.644 91.319a4.578 4.578 0 0 1-3.123-1.23 4.582 4.582 0 0 1-1.262-4.65 121.753 121.753 0 0 1 20.76-40.28 104.17 104.17 0 0 1 10.192-11.239 4.577 4.577 0 0 1 7.056.92l19.159 31.231a4.576 4.576 0 0 1 .425 3.878 4.564 4.564 0 0 1-2.721 2.794l-48.881 18.29a4.714 4.714 0 0 1-1.605.286zm28.876-46.728a94.358 94.358 0 0 0-5.291 6.196 112.62 112.62 0 0 0-16.114 28.282l34.61-12.95-13.205-21.528z" style="" fill="#34373e" data-original="#34373e"></path><path d="M372.783 76.275a101.96 101.96 0 0 0-37.358-12.026l34.843-23.229 2.515 35.255z" style="" fill="#3dbada" data-original="#3dbada"></path><path d="M372.783 80.847a4.593 4.593 0 0 1-2.213-.572 96.896 96.896 0 0 0-35.68-11.486 4.572 4.572 0 0 1-1.999-8.345l34.843-23.229a4.577 4.577 0 0 1 4.55-.302 4.588 4.588 0 0 1 2.547 3.782l2.515 35.255a4.559 4.559 0 0 1-2.099 4.179 4.605 4.605 0 0 1-2.464.718zm-25.31-19.136a105.723 105.723 0 0 1 20.17 6.859l-1.381-19.388-18.789 12.529z" style="" fill="#34373e" data-original="#34373e"></path><path d="M442.744 206.731a118 118 0 0 1-35.895 35.941v-46.183l35.895 10.242z" style="" fill="#3dbada" data-original="#3dbada"></path><path d="M406.849 247.245a4.573 4.573 0 0 1-4.573-4.572V196.49a4.564 4.564 0 0 1 5.825-4.394l35.895 10.243a4.553 4.553 0 0 1 3.018 2.776 4.566 4.566 0 0 1-.421 4.079c-9.502 14.902-22.397 27.815-37.281 37.335a4.623 4.623 0 0 1-2.463.716zm4.572-44.698v31.382a114.493 114.493 0 0 0 23.992-24.532l-23.992-6.85z" style="" fill="#34373e" data-original="#34373e"></path><path d="m342.832 194.705-13.718 38.364-25.972-34.615c13.329.307 26.649-.95 39.69-3.749z" style="" fill="#fc9c5e" data-original="#fc9c5e"></path><path d="M329.114 237.642a4.576 4.576 0 0 1-3.658-1.829l-25.972-34.615a4.584 4.584 0 0 1-.411-4.838c.805-1.555 2.625-2.588 4.17-2.478 12.977.316 25.95-.933 38.625-3.649a4.575 4.575 0 0 1 4.399 1.459 4.564 4.564 0 0 1 .864 4.554l-13.718 38.364a4.575 4.575 0 0 1-4.299 3.032zm-16.85-34.646 15.405 20.531 8.162-22.836a176.308 176.308 0 0 1-23.567 2.305z" style="" fill="#34373e" data-original="#34373e"></path><path d="M191.936 196.489v44.766a234.828 234.828 0 0 1-49.339-30.271l49.339-14.495z" style="" fill="#3dbada" data-original="#3dbada"></path><path d="M191.936 245.827a4.561 4.561 0 0 1-1.893-.412 239.367 239.367 0 0 1-50.299-30.861 4.575 4.575 0 0 1 1.569-7.961l49.338-14.495a4.585 4.585 0 0 1 4.028.727 4.583 4.583 0 0 1 1.834 3.663v44.766a4.582 4.582 0 0 1-2.094 3.846 4.644 4.644 0 0 1-2.483.727zm-39.421-32.991a230.56 230.56 0 0 0 34.848 21.194v-31.432l-34.848 10.238z" style="" fill="#34373e" data-original="#34373e"></path><path d="M145.748 484.563a9.136 9.136 0 0 1-4.472-1.171c-22.232-12.46-30.966-23.951-38.675-34.093-6.877-9.045-12.812-16.859-28.867-24.811a9.143 9.143 0 0 1-1.559-15.41c34.647-26.965 61.332-55.754 79.317-85.576a240 240 0 0 0 20.719-43.239 267.101 267.101 0 0 0 11.285-40.614 9.13 9.13 0 0 1 4.797-6.388 9.157 9.157 0 0 1 7.988-.183 276.763 276.763 0 0 0 68.031 21.066c4.97.86 8.304 5.583 7.458 10.554a369.702 369.702 0 0 1-39.242 113.693 388.433 388.433 0 0 1-38.03 57.464 458.412 458.412 0 0 1-42.466 46.202 9.12 9.12 0 0 1-6.284 2.506zM93.963 415.06c11.432 7.691 17.399 15.529 23.206 23.174 6.475 8.514 12.63 16.617 27.248 25.771a440.268 440.268 0 0 0 35.804-39.562 370.272 370.272 0 0 0 36.229-54.748 351.291 351.291 0 0 0 35.68-99.244 295.262 295.262 0 0 1-53.051-16.219 285.915 285.915 0 0 1-9.662 32.278 257.99 257.99 0 0 1-22.269 46.476c-17.248 28.579-41.835 56.156-73.185 82.074z" style="" fill="#34373e" data-original="#34373e"></path><path d="M309.507 276.377c-15.771 0-32.022-1.395-48.301-4.211a295.013 295.013 0 0 1-72.512-22.319l-.85-.412c-18.007-8.18-35.25-18.761-50.957-31.304-20.943-16.118-38.094-37.404-49.471-61.442a9.15 9.15 0 0 1 6.026-12.781c19.452-4.906 28.295-12.346 37.66-20.22 6.845-5.757 13.924-11.715 24.601-15.986a9.147 9.147 0 0 1 10.942 3.324 198.969 198.969 0 0 0 26.581 31.304c1.678-21.377 4.097-40.175 9.676-58.278a126.33 126.33 0 0 1 21.514-41.661 109.092 109.092 0 0 1 10.636-11.738c49.247-47.45 134.202-39 197.583 19.708l.005.005c43.243 40.102 50.898 109.436 17.81 161.285-9.854 15.455-23.229 28.849-38.675 38.725a140.595 140.595 0 0 1-32.328 15.478c-20.908 6.984-44.823 10.523-69.94 10.523zM108.861 158.344c9.904 17.55 23.348 33.101 39.315 45.392a226.05 226.05 0 0 0 47.541 29.192l.855.421c21.372 9.731 44.263 16.777 67.734 20.796 39.302 6.799 78.132 4.788 109.368-5.647A122.627 122.627 0 0 0 401.873 235c13.261-8.482 24.71-19.946 33.151-33.183 28.41-44.51 22.031-103.849-14.824-138.033C364.053 11.764 289.909 3.2 247.713 43.855a91.025 91.025 0 0 0-8.88 9.795 108.128 108.128 0 0 0-18.423 35.717c-6.557 21.276-8.427 44.45-10.197 72.54a9.143 9.143 0 0 1-5.423 7.783 9.159 9.159 0 0 1-9.406-1.207 217.342 217.342 0 0 1-39.247-40.687c-4.797 2.78-8.811 6.159-13.256 9.9-8.35 7.008-17.623 14.809-34.02 20.648zm198.181 49.302c-1.372 0-2.739-.014-4.106-.046a181.622 181.622 0 0 1-35.447-4.335 9.146 9.146 0 0 1-7.138-9.264c.453-12.204.576-23.576.704-34.569.416-37.171.718-64.026 13.133-80.368 13.626-18.231 35.772-26.667 62.261-23.672 14.408 1.706 28.103 6.114 40.76 13.11a84.92 84.92 0 0 1 19.328 14.116c15.542 15.433 22.035 39.192 17.024 62.064-5.391 24.555-22.676 43.819-47.423 52.855-.005 0-.009.005-.018.005a160.087 160.087 0 0 1-21.391 6.109 180.06 180.06 0 0 1-37.687 3.995zm-28.167-20.755a163.077 163.077 0 0 0 24.477 2.419 161.288 161.288 0 0 0 37.564-3.548 141.94 141.94 0 0 0 18.949-5.414c18.748-6.845 31.807-21.272 35.826-39.59 3.69-16.818-.901-34.103-11.976-45.104a66.682 66.682 0 0 0-15.218-11.075c-10.709-5.917-22.15-9.602-34.148-11.02-13.956-1.591-33.225.009-45.557 16.512-8.802 11.582-9.086 37.171-9.447 69.563-.1 8.761-.205 17.75-.47 27.257z" style="" fill="#34373e" data-original="#34373e"></path></g></svg>