<svg xmlns="http://www.w3.org/2000/svg" version="1.1" xmlns:xlink="http://www.w3.org/1999/xlink" width="512" height="512" x="0" y="0" viewBox="0 0 512.013 512.013" style="enable-background:new 0 0 512 512" xml:space="preserve"><g><path fill="#eaacde" d="M413.173 108.123s-7.771-33.412-28.566-40.404-43.502-14.63-56.858-23.439H184.263c-13.356 8.81-36.063 16.447-56.858 23.439a59.988 59.988 0 0 0-38.566 40.404L17.163 359.302l36.938 31.834 78.591-168.338v200.938c6.832 26.019 84.431 70.771 123.314 70.771 55.094 0 113.314-50.752 113.314-56.624v-244.56l62.419 183.988 50.373 7.442z" opacity="1" data-original="#eaacde"></path><g fill="#da8bc1"><path d="M388.191 106.203c-5.333 11.943-8.863 34.588-8.863 64.911l-.008 267.057c0 11.584-58.77 66.336-123.314 66.336s-123.314-54.752-123.314-66.336v-14.436c14.326 18.346 74.116 60.771 123.314 60.771s103.314-44.752 103.314-50.624v-211.21c0-44.704 2.952-76.827 22.023-119.529a3.749 3.749 0 0 1 4.953-1.895 3.753 3.753 0 0 1 1.895 4.955zM423.172 108.123a59.986 59.986 0 0 0-38.566-40.404c8.057 8.048 14.549 26.324 18.566 40.404l78.939 276.63 12.737-25.451zM54.101 391.135l26.172-13.825 52.42-154.513v-51.683c0-3.84-.057-7.556-.167-11.143z" fill="#da8bc1" opacity="1" data-original="#da8bc1"></path><path d="m431.739 377.31 9.161 27.002 55.886-7.125-20.431-32.608z" fill="#da8bc1" opacity="1" data-original="#da8bc1"></path></g><path fill="#d273b3" d="m503.926 391.112-9.078-31.811-18.493 5.277 5.757 20.174a7.5 7.5 0 0 1-5.154 9.27l-36.058 10.29 1.717 5.061c2.57 7.574 10.63 11.8 18.321 9.605l32.68-9.326c7.966-2.273 12.581-10.574 10.308-18.54z" opacity="1" data-original="#d273b3"></path><path fill="#da8bc1" d="m9.588 385.849 48.909 23.975 2.191-38.103-43.524-12.42-7.576 26.548z" opacity="1" data-original="#da8bc1"></path><path fill="#d273b3" d="M54.101 391.135a7.5 7.5 0 0 1-9.16 4.803L9.588 385.849l-1.502 5.263c-2.273 7.966 2.342 16.267 10.308 18.54l32.68 9.326c7.691 2.195 15.751-2.031 18.321-9.605l10.878-32.063-19.585-5.589z" opacity="1" data-original="#d273b3"></path><path fill="#da8bc1" d="m317.496 34.11-10.772-10.96H191.73l-7.213 20.96c-5.393 17.001 5.92 39.929 24.921 61.804l46.569-32.52 21.647 31.128c38.96-26.574 45.949-51.162 39.842-70.412z" opacity="1" data-original="#da8bc1"></path><path fill="#d273b3" d="M209.437 105.914a206.829 206.829 0 0 0 7.425 8.103c3.279 3.394 8.854 2.934 11.548-.941l27.596-39.683-12.647-16.26zM327.496 44.11l-7.213-20.96h-13.559l3.772 10.96c6.107 19.25-9.203 46.097-32.843 70.412l5.949 8.555c2.695 3.875 8.269 4.336 11.548.941 23.361-24.181 38.411-50.792 32.346-69.908z" opacity="1" data-original="#d273b3"></path><path fill="#da8bc1" d="M307.659 14.008c-11.409-4.077-29.611-6.501-51.653-6.501-26.071 0-46.766 3.393-57.203 8.9 0 18.543 57.203 45.987 57.203 45.987s70.917-27.444 51.653-48.386z" opacity="1" data-original="#da8bc1"></path><path fill="#d273b3" d="M320.283 23.15c-1.221-3.548-5.658-6.653-12.624-9.142-.929 16.355-51.653 38.386-51.653 38.386s-40.242-19.408-57.203-35.987c-3.774 1.992-6.219 4.257-7.074 6.743-5.681 16.509 64.277 50.244 64.277 50.244s69.959-33.735 64.277-50.244z" opacity="1" data-original="#d273b3"></path><path d="M256.006 512.006c-38.965 0-73.122-18.846-90.014-30.079-19.651-13.067-40.8-32.335-40.8-43.757v-16.4c0-4.143 3.358-7.5 7.5-7.5s7.5 3.357 7.5 7.5v15.955c1.334 3.864 13.175 18.237 36.356 33.186 15.114 9.746 45.534 26.096 79.458 26.096s64.344-16.35 79.458-26.096c23.182-14.948 35.022-29.321 36.356-33.186V336.879c0-4.143 3.358-7.5 7.5-7.5s7.5 3.357 7.5 7.5V438.17c0 1.906 0 7.706-12.292 20.457-7.519 7.8-17.643 16.074-28.509 23.3-16.891 11.234-51.047 30.079-90.013 30.079zm0-66.773c-4.411 0-8-3.589-8-8s3.589-8 8-8 8 3.589 8 8-3.588 8-8 8zM55.213 427.061a22.54 22.54 0 0 1-6.197-.871l-32.681-9.326c-5.779-1.648-10.57-5.449-13.491-10.702S-.777 394.834.873 389.055L73.71 133.808a7.5 7.5 0 0 1 14.424 4.116l-61.7 216.223 49.031 13.991 49.728-146.579v-50.445c0-27.613-2.996-50.157-8.219-61.853a7.5 7.5 0 0 1 3.79-9.906c3.782-1.694 8.217.008 9.906 3.789 6.141 13.75 9.522 37.889 9.522 67.97v51.507c.003.116.003.232 0 .35v168.8c0 4.143-3.358 7.5-7.5 7.5s-7.5-3.357-7.5-7.5V268.249L76.498 411.782c-3.169 9.341-11.876 15.279-21.285 15.279zm-32.896-58.49-7.02 24.599c-.55 1.927-.316 3.952.657 5.703s2.57 3.018 4.497 3.567l32.681 9.326a7.491 7.491 0 0 0 9.16-4.803l8.347-24.604zm434.483 58.49c-9.41 0-18.116-5.938-21.285-15.279L386.82 268.249v41.817c0 4.143-3.358 7.5-7.5 7.5s-7.5-3.357-7.5-7.5V222.97a6.807 6.807 0 0 1 0-.35v-51.507c0-30.081 3.382-54.22 9.522-67.97 1.689-3.781 6.126-5.481 9.906-3.789a7.5 7.5 0 0 1 3.79 9.906c-5.223 11.695-8.219 34.239-8.219 61.853v50.445l49.729 146.58 49.03-13.992-69.617-243.966a52.485 52.485 0 0 0-33.745-35.354 7.5 7.5 0 0 1 4.782-14.217 67.475 67.475 0 0 1 43.387 45.454l80.754 282.99c1.649 5.779.949 11.854-1.971 17.107s-7.712 9.054-13.492 10.702l-32.679 9.326a22.467 22.467 0 0 1-6.197.873zm-15.426-44.7 8.347 24.603a7.496 7.496 0 0 0 9.161 4.803l32.68-9.326a7.448 7.448 0 0 0 4.497-3.567 7.446 7.446 0 0 0 .657-5.702l-7.02-24.6zm-185.368-12.128c-4.411 0-8-3.589-8-8s3.589-8 8-8 8 3.589 8 8-3.588 8-8 8zm0-75c-4.411 0-8-3.589-8-8s3.589-8 8-8 8 3.589 8 8-3.588 8-8 8zm0-75c-4.411 0-8-3.589-8-8s3.589-8 8-8 8 3.589 8 8-3.588 8-8 8zm0-75c-4.411 0-8-3.589-8-8s3.589-8 8-8 8 3.589 8 8-3.588 8-8 8zm-33.777-21.435a14.926 14.926 0 0 1-10.76-4.568c-13.454-13.926-33.475-38.291-35.644-61.763-13.538 6.437-30.552 12.156-46.03 17.36a52.481 52.481 0 0 0-33.744 35.354 7.5 7.5 0 0 1-14.424-4.118 67.477 67.477 0 0 1 43.387-45.454c19.004-6.39 40.421-13.59 53.26-21.414l6.362-18.486C191.067 2.023 236.688.006 256.005.006s64.951 2.054 71.381 20.739l6.349 18.45c5.787 3.525 13.858 7.251 24.575 11.347a7.5 7.5 0 0 1-5.356 14.012c-6.457-2.468-11.992-4.799-16.771-7.072-2.176 23.468-22.191 47.825-35.641 61.747a14.914 14.914 0 0 1-11.979 4.521 14.955 14.955 0 0 1-11.121-6.392l-21.438-30.827-21.438 30.828a14.96 14.96 0 0 1-12.337 6.439zm-30.589-77.34c-4.533 14.508 6.905 37.806 30.617 62.35l22.662-32.602c-6.774-3.51-17.036-9.052-27.158-15.385-10.935-6.841-19.104-12.954-24.68-18.548zm75.456 29.747 22.663 32.59c23.709-24.531 35.147-47.829 30.614-62.337l-1.44-4.185c-5.575 5.594-13.745 11.707-24.68 18.548-10.122 6.332-20.383 11.874-27.157 15.384zm-68.133-50.83c.441 1.405 3.858 8.746 29.191 24.238 11.219 6.861 22.475 12.699 27.852 15.409 5.377-2.71 16.633-8.548 27.852-15.409 25.43-15.551 28.776-22.889 29.196-24.254-2.489-3.706-21.162-10.353-57.048-10.353-35.76 0-54.428 6.601-57.043 10.369z" fill="#000000" opacity="1" data-original="#000000"></path></g></svg>