<svg xmlns="http://www.w3.org/2000/svg" version="1.1" xmlns:xlink="http://www.w3.org/1999/xlink" width="512" height="512" x="0" y="0" viewBox="0 0 64 64" style="enable-background:new 0 0 512 512" xml:space="preserve"><g><path fill="#322e63" d="M62.3 49.5c-1-1.3-2.2-2.6-3.6-3.8L46.2 35.6c-.4-.3-.9-.3-1.3 0-1.5 1.3-3.1 2-4.6 1.8C37.8 37.2 36 35 36 35 18.1 13 3.8 7.4 3.2 7.2c-.4-.2-1 0-1.2.4-.1.4-3.7 7.8-1 17.8.3.9.6 1.7 1 2.4v.1c1.2 1.9 2.1 4 2.9 6.2 1.3 4 1.5 11.5 1.5 11.6v10.2c0 .5.4 1 1 1h6.1c.5 0 1-.4 1-1V45.7c0-.1.2-7.6 1.5-11.6.3-.8.6-1.7 1-2.5 6.3 3.3 11.1 9.1 13.1 16.2l.2.6c.6 2 1.6 3.7 2.9 5 2.2 2.2 5.1 3.5 8.3 3.5h3.1c3.1 0 6.6 0 9.8-.1h5c2.4 0 3.8-.6 4.5-1.9.5-1.3 0-3.1-1.6-5.4zM12.5 55H8.4v-3.5c1.6 0 3.2-.1 4.1-.1zm1.6-21.5c-1.4 4.3-1.6 11.9-1.6 12.2v3.7c-.8 0-2.1 0-4.1.1v-3.8c0-.3-.1-8-1.6-12.2-.6-1.8-1.3-3.5-2.2-5.1 1.3.1 3.2.3 5.6.8 1.7.4 3.4.9 5 1.6-.4.9-.8 1.8-1.1 2.7zM62 54c-.3.5-1.3.8-2.8.8h-5c-4.2.1-9.1.2-12.9.2-2.6 0-5.1-1.1-6.9-2.9-1.1-1.1-1.9-2.5-2.4-4.2l-.2-.6c-2.3-7.9-7.8-14.3-15-17.8l-.1-.1h-.1c-1.9-.9-4-1.6-6.1-2.1-3.4-.7-6-.9-7.1-.9-.2-.4-.4-.9-.6-1.5-2-7.4-.3-13.4.5-15.5 3.3 1.6 16 8.3 31.1 26.8.1.1 2.3 2.9 5.7 3.2 1.9.2 3.7-.4 5.4-1.8l11.8 9.7c1.3 1.1 2.4 2.2 3.3 3.4 1.2 1.5 1.7 2.7 1.4 3.3z" opacity="1" data-original="#322e63"></path><path fill="#ffdc7b" d="M12.5 51.4V55H8.4v-3.5c1.6-.1 3.2-.1 4.1-.1z" opacity="1" data-original="#ffdc7b"></path><path fill="#9bb7cc" d="M15.2 30.8c-.4.9-.8 1.8-1.1 2.7-1.4 4.3-1.6 11.9-1.6 12.2v3.7c-.8 0-2.1 0-4.1.1v-3.8c0-.3-.1-8-1.6-12.2-.6-1.8-1.3-3.5-2.2-5.1 1.3.1 3.2.3 5.6.8 1.7.4 3.4.9 5 1.6z" opacity="1" data-original="#9bb7cc"></path><path fill="#b9d5ea" d="M62 54c-.3.5-1.3.8-2.8.8h-5c-4.2.1-9.1.2-12.9.2-2.6 0-5.1-1.1-6.9-2.9-1.1-1.1-1.9-2.5-2.4-4.2l-.2-.6c-2.3-7.9-7.8-14.3-15-17.8l-.1-.1h-.1c-1.9-.9-4-1.6-6.1-2.1-3.4-.7-6-.9-7.1-.9-.2-.4-.4-.9-.6-1.5-2-7.4-.3-13.4.5-15.5 3.3 1.6 16 8.3 31.1 26.8.1.1 2.3 2.9 5.7 3.2 1.9.2 3.7-.4 5.4-1.8l11.8 9.7c1.3 1.1 2.4 2.2 3.3 3.4 1.2 1.5 1.7 2.7 1.4 3.3z" opacity="1" data-original="#b9d5ea"></path><path fill="#9bb7cc" d="M62 54c-.3.5-1.3.8-2.8.8h-5c-4.2.1-9.1.2-12.9.2h-.2c1.8 0 3.5 0 5.2-.1h5c1.5 0 2.5-.3 2.8-.8.3-.6-.2-1.9-1.3-3.4-.9-1.2-2-2.3-3.3-3.4l-9.7-7.9h.3c1.9.2 3.7-.4 5.4-1.8l11.8 9.7c1.3 1.1 2.4 2.2 3.3 3.4 1.2 1.5 1.7 2.7 1.4 3.3z" opacity="1" data-original="#9bb7cc"></path></g></svg>