<svg xmlns="http://www.w3.org/2000/svg" version="1.1" xmlns:xlink="http://www.w3.org/1999/xlink" width="512" height="512" x="0" y="0" viewBox="0 0 512 512" style="enable-background:new 0 0 512 512" xml:space="preserve"><g><path d="M100 184.061V144a4 4 0 0 1 4-4h40.062A70.991 70.991 0 0 0 148 116.67V100h-41.292s-34.051 85.255-35.064 88A88.651 88.651 0 0 0 100 184.061z" fill="#000000" opacity="1" data-original="#000000"></path><path d="M140.733 148H108v32.733A71.786 71.786 0 0 0 140.733 148z" fill="#000000" opacity="1" data-original="#000000"></path><circle cx="80" cy="200" r="4" fill="#000000" opacity="1" data-original="#000000"></circle><path d="M204 68h48v24h-48zM268 80a12.013 12.013 0 0 1 12-12h-20v24h20a12.013 12.013 0 0 1-12-12zM188 68h8v40h-8z" fill="#000000" opacity="1" data-original="#000000"></path><circle cx="160" cy="104" r="4" fill="#000000" opacity="1" data-original="#000000"></circle><circle cx="280" cy="80" r="4" fill="#000000" opacity="1" data-original="#000000"></circle><path d="M108 68h72v24h-72zM291.3 76h4.7a4 4 0 0 1 0 8h-4.7a12.01 12.01 0 0 1-11.3 8h28V68h-28a12.01 12.01 0 0 1 11.3 8zM276 288V100h-16v207.6a20.035 20.035 0 0 0 16-19.6z" fill="#000000" opacity="1" data-original="#000000"></path><circle cx="432" cy="200" r="4" fill="#000000" opacity="1" data-original="#000000"></circle><path d="M332 68h72v24h-72zM457.513 256.7a325.858 325.858 0 0 0-13.732-58.952 12 12 0 1 1-22.541-3.029A79.444 79.444 0 0 1 356 116.67v-1.37a11.967 11.967 0 0 1-15.3-15.3H332v12a4 4 0 0 1-4 4h-16a4 4 0 0 1-4-4v-12h-24v188a28.039 28.039 0 0 1-24 27.71V376a4 4 0 0 1-8 0V100h-48v12a4 4 0 0 1-4 4h-16a4 4 0 0 1-4-4v-12h-8.7a11.967 11.967 0 0 1-15.3 15.3v1.37a79.444 79.444 0 0 1-65.24 78.052 12.008 12.008 0 1 1-22.525 2.98 325.95 325.95 0 0 0-13.748 59L36.372 420.846l40.045 8.581A467.774 467.774 0 0 0 213.4 438.2l23.639-1.97 15.166-45.5a4 4 0 0 1 7.59 0l15.166 45.5 23.639 1.97a467.868 467.868 0 0 0 136.983-8.776l40.045-8.581zm-333.568 39.958a4 4 0 0 1-3.94 3.342c-.219 0-48.662-8.054-48.662-8.054a4 4 0 0 1 1.314-7.892l48 8a4 4 0 0 1 3.288 4.604zM136 276H72a4 4 0 0 1 0-8h64a4 4 0 0 1 0 8zm-64.565-23.96 56-8a4 4 0 1 1 1.13 7.92S72.184 260 72 260a4 4 0 0 1-.56-7.96zM136 236H72a4 4 0 0 1 0-8h64a4 4 0 0 1 0 8zm140 140a4 4 0 0 1-8 0v-8a4 4 0 0 1 8 0zm0-24a4 4 0 0 1-8 0v-8a4 4 0 0 1 8 0zm0-24a4 4 0 0 1-8 0v-8a4 4 0 0 1 8 0zm44 4h96a4 4 0 0 1 0 8h-96a4 4 0 0 1 0-8zm-8.285 16.01 112-8a4 4 0 0 1 .57 7.98S312.092 356 312 356a4 4 0 0 1-.281-7.99zm108.271 11.658a4 4 0 0 1-3.654 4.318S320.106 372 320 372a4 4 0 0 1-.327-7.986l96-8a4.013 4.013 0 0 1 4.313 3.654zM416 396c-.1 0-104.311-8.012-104.311-8.012a4 4 0 0 1 .614-7.976l104 8A4 4 0 0 1 416 396zm8-16h-96a4 4 0 0 1 0-8h96a4 4 0 0 1 0 8z" fill="#000000" opacity="1" data-original="#000000"></path><path d="M364 116.67A71.411 71.411 0 0 0 435.33 188h5.026c-1.013-2.745-35.064-88-35.064-88H364z" fill="#000000" opacity="1" data-original="#000000"></path><circle cx="352" cy="104" r="4" fill="#000000" opacity="1" data-original="#000000"></circle><path d="M316 68h8v40h-8zM43.15 430.48l-7.82 11.74a4 4 0 1 1-6.66-4.44l6.07-9.1zM59.48 433.98l-7.9 15.81A4.007 4.007 0 0 1 48 452a4.116 4.116 0 0 1-1.79-.42 4.007 4.007 0 0 1-1.79-5.37l6.98-13.96zM78.61 438.06l-2.73 10.91A4 4 0 0 1 72 452a4.087 4.087 0 0 1-.97-.12 4 4 0 0 1-2.91-4.85l2.66-10.63s6.54 1.4 7.83 1.66zM100 441.95V456a4 4 0 0 1-8 0v-15.39c2.66.48 5.33.92 8 1.34zM116 444.21V456a4 4 0 0 1-8 0v-12.85q3.99.57 8 1.06zM132 445.91V456a4 4 0 0 1-8 0v-10.86q3.99.42 8 .77zM151.13 447.24l-3.34 10.02a3.994 3.994 0 1 1-7.58-2.52l2.65-7.97q4.125.27 8.27.47zM169.26 459.79a3.918 3.918 0 0 1-1.26.21 3.982 3.982 0 0 1-3.79-2.74l-3.21-9.64c2.82.09 5.65.14 8.48.17l2.31 6.95a3.984 3.984 0 0 1-2.53 5.05zM185.26 459.79a3.971 3.971 0 0 1-5.05-2.53l-3.16-9.46c2.8 0 5.59-.04 8.39-.11l2.35 7.05a3.984 3.984 0 0 1-2.53 5.05zM201.26 459.79a3.971 3.971 0 0 1-5.05-2.53l-3.26-9.8q4.155-.15 8.29-.39l2.55 7.67a3.984 3.984 0 0 1-2.53 5.05zM217.26 459.79a3.971 3.971 0 0 1-5.05-2.53l-3.55-10.66q2.7-.195 5.4-.42l2.8-.23 2.93 8.79a3.984 3.984 0 0 1-2.53 5.05zM233.26 459.79a3.971 3.971 0 0 1-5.05-2.53l-3.97-11.93 8.2-.68 3.35 10.09a3.984 3.984 0 0 1-2.53 5.05zM482.22 443.33a4.008 4.008 0 0 1-5.55-1.11l-7.82-11.74 8.41-1.8 6.07 9.1a4.007 4.007 0 0 1-1.11 5.55zM465.79 451.58a4.116 4.116 0 0 1-1.79.42 4.007 4.007 0 0 1-3.58-2.21l-7.9-15.81 8.08-1.73 6.98 13.96a4.007 4.007 0 0 1-1.79 5.37zM440.97 451.88a4.087 4.087 0 0 1-.97.12 4 4 0 0 1-3.88-3.03l-2.73-10.91q1.935-.39 3.87-.81l3.96-.85 2.66 10.63a4 4 0 0 1-2.91 4.85zM420 440.61V456a4 4 0 0 1-8 0v-14.05c2.67-.42 5.34-.86 8-1.34zM404 443.16V456a4 4 0 0 1-8 0v-11.79c2.67-.33 5.33-.68 8-1.05zM388 445.14V456a4 4 0 0 1-8 0v-10.08c2.67-.24 5.33-.5 8-.78zM369.26 459.79a3.971 3.971 0 0 1-5.05-2.53l-3.34-10.02c2.76-.13 5.51-.29 8.27-.47l2.65 7.97a3.984 3.984 0 0 1-2.53 5.05zM351 447.63l-3.21 9.63a3.994 3.994 0 1 1-7.58-2.52l2.31-6.95c2.83-.03 5.65-.08 8.48-.16zM334.95 447.8l-3.16 9.46a3.994 3.994 0 1 1-7.58-2.52l2.35-7.05q4.2.105 8.39.11zM319.05 447.46l-3.26 9.8a3.994 3.994 0 1 1-7.58-2.52l2.55-7.67q4.14.23 8.29.39zM303.34 446.59l-3.55 10.67a3.994 3.994 0 1 1-7.58-2.52l2.93-8.79 2.8.23c1.8.15 3.6.29 5.4.41zM287.76 445.33l-3.97 11.93a3.994 3.994 0 1 1-7.58-2.52l3.35-10.09z" fill="#000000" opacity="1" data-original="#000000"></path></g></svg>