<svg xmlns="http://www.w3.org/2000/svg" version="1.1" xmlns:xlink="http://www.w3.org/1999/xlink" width="512" height="512" x="0" y="0" viewBox="0 0 511.563 511.563" style="enable-background:new 0 0 512 512" xml:space="preserve"><g><path fill="#fe646f" d="m175.672 24.234-5.509 25.048-62.924-5.827-19.902 13.327a231.446 231.446 0 0 0-34.35 101.37l-26.89 286.92c-.13 1.34.76 2.57 2.08 2.88l52.71 12.21H162.133l26.26-426.599z" opacity="1" data-original="#fe646f"></path><path fill="#fe99a0" d="m485.457 443.552-26.75-285.4c-1.68-18-5.47-35.69-11.24-52.7a231.021 231.021 0 0 0-23.11-48.67l-33.225-24.64-244.139 7.254-3.196 17.386a231.46 231.46 0 0 0-34.36 101.37l-28.54 302.01h-.01l-3.64 38.56c-.27 2.86 1.99 5.34 4.87 5.34h112.58c49.23 0 98.25-4.68 146.38-13.92a777.561 777.561 0 0 0 141.13-41.28 5.212 5.212 0 0 0 3.25-5.31z" opacity="1" data-original="#fe99a0"></path><path fill="#fd8087" d="m144.881 50.888-1.084 5.894a231.46 231.46 0 0 0-34.36 101.37l-28.54 302.01h-.01l-3.64 38.56c-.27 2.86 1.99 5.34 4.87 5.34h92.937c-2.88 0-5.14-2.48-4.87-5.34l3.64-38.56h.01l28.54-302.01a231.46 231.46 0 0 1 34.36-101.37l1.084-5.894z" opacity="1" data-original="#fd8087"></path><g fill="#fae2c0"><circle cx="162.133" cy="187.294" r="15.691" fill="#fae2c0" opacity="1" data-original="#fae2c0"></circle><circle cx="162.133" cy="260.139" r="15.691" fill="#fae2c0" opacity="1" data-original="#fae2c0"></circle><circle cx="162.133" cy="332.984" r="15.691" fill="#fae2c0" opacity="1" data-original="#fae2c0"></circle><circle cx="162.133" cy="405.829" r="15.691" fill="#fae2c0" opacity="1" data-original="#fae2c0"></circle></g><path fill="#fae2c0" d="m152.857 7.502-9.06 49.28h-56.46l7.91-42.97a7.699 7.699 0 0 1 7.58-6.31h50.03z" opacity="1" data-original="#fae2c0"></path><path fill="#fdf6ec" d="m416.447 13.812 7.91 42.97h-280.56l9.06-49.28h256.01c3.72 0 6.91 2.65 7.58 6.31z" opacity="1" data-original="#fdf6ec"></path><path fill="#fef1da" d="M245.795 7.502h-92.938l-9.06 49.28h92.938z" opacity="1" data-original="#fef1da"></path><path d="m492.923 442.85-26.747-285.396c-3.423-36.511-15.415-72.242-34.701-103.429l-7.648-41.568A15.213 15.213 0 0 0 408.865 0H102.83a15.21 15.21 0 0 0-14.961 12.459L80.22 54.026c-19.286 31.187-31.279 66.919-34.7 103.429L18.63 444.371c-.474 5.059 2.902 9.739 7.853 10.887l46.329 10.735-3.026 32.019a12.408 12.408 0 0 0 3.168 9.5 12.412 12.412 0 0 0 9.161 4.05h112.58c99.862 0 197.53-18.753 290.291-55.738 5.193-2.07 8.458-7.406 7.937-12.974zm-75.357-90.31a7.5 7.5 0 0 0-7.5 7.5v18.702h-46.851v-71.214h46.851v20.55c0 4.142 3.357 7.5 7.5 7.5s7.5-3.358 7.5-7.5v-20.55h40.108l6.674 71.214h-46.782V360.04c0-4.143-3.357-7.5-7.5-7.5zM170.163 452.875a7.5 7.5 0 0 0-7.5 7.5v4.581H87.977l6.731-71.214h26.702c4.143 0 7.5-3.358 7.5-7.5s-3.357-7.5-7.5-7.5H96.126l6.731-71.214h18.553c4.143 0 7.5-3.358 7.5-7.5s-3.357-7.5-7.5-7.5h-17.135l6.731-71.214h10.405c4.143 0 7.5-3.358 7.5-7.5s-3.357-7.5-7.5-7.5h-8.987l4.486-47.459a222.511 222.511 0 0 1 3.556-23.755h42.198v7.137c0 4.142 3.357 7.5 7.5 7.5s7.5-3.358 7.5-7.5V135.1h46.851v71.214h-12.29c-4.143 0-7.5 3.358-7.5 7.5s3.357 7.5 7.5 7.5h12.29v71.214h-12.29c-4.143 0-7.5 3.358-7.5 7.5s3.357 7.5 7.5 7.5h12.29v71.214h-12.29c-4.143 0-7.5 3.358-7.5 7.5s3.357 7.5 7.5 7.5h12.29v71.214h-46.851v-4.581a7.501 7.501 0 0 0-7.501-7.5zM61.104 152.876l39.285 21.36-5.644 59.713-39.325-21.382s5.442-57.701 5.684-59.691zm32.106 97.312-6.338 67.051-39.261-21.348 6.286-67.078zm-7.873 83.291-5.238 55.412-39.207-21.318 5.195-55.435zm77.326-269.197v55.817h-38.609a225.037 225.037 0 0 1 23.962-55.817zm288.578 94.572 4.448 47.459h-30.623v-71.214h22.619a222.257 222.257 0 0 1 3.556 23.755zM301.365 378.741v-71.214h46.851v71.214zm46.851 15v71.214h-46.851v-71.214zm-61.851-15h-46.852v-71.214h46.852zm15-86.214V276.12c0-4.142-3.357-7.5-7.5-7.5s-7.5 3.358-7.5 7.5v16.407h-46.852v-71.214h46.852v22.845c0 4.142 3.357 7.5 7.5 7.5s7.5-3.358 7.5-7.5v-22.845h46.851v71.214zm-61.852-86.214v-71.214h46.852v71.214zm123.703 15h46.851v71.214h-46.851zm61.85 0h32.028l6.674 71.214h-38.702zm-15-15h-46.851v-20.319c0-4.142-3.357-7.5-7.5-7.5s-7.5 3.358-7.5 7.5v20.319h-46.851v-71.214h46.851v18.932c0 4.142 3.357 7.5 7.5 7.5s7.5-3.358 7.5-7.5v-18.932h46.851zm-46.85-86.214V64.282h46.851v55.817zm-15 0h-46.851V64.282h46.851zm-61.851 0h-46.852V64.282h46.852zm-61.852 0h-46.851V64.282h46.851zm15 273.642h46.852v71.214h-46.852zm46.852 86.214v11.163a768.283 768.283 0 0 1-46.852 4.15v-15.313zm15 0h46.851v1.183a762.177 762.177 0 0 1-46.851 8.033zm61.851-15v-71.214h46.851v71.214zm80.88-344.856h-19.03V72.897a225.538 225.538 0 0 1 19.03 47.202zM408.865 15c.103 0 .19.074.209.174l6.276 34.108H152.8L159.108 15zM102.83 15h41.026l-6.309 34.282H96.345l6.276-34.107a.212.212 0 0 1 .209-.175zM91.562 64.282h39.146c-15.788 28.658-25.68 60.6-28.732 93.167l-.052.548L63.6 137.159c4.997-25.669 14.491-50.473 27.962-72.877zm-57.606 377.31 5.414-57.772 39.194 21.311-4.328 45.794zm52.603 38.363h76.104v16.607H84.989zm91.104 16.608v-16.607h46.851v16.026c-9.917.38-46.851.581-46.851.581zm247.403-35.309v-67.513h48.188l4.572 48.788a775.042 775.042 0 0 1-52.76 18.725z" fill="#000000" opacity="1" data-original="#000000"></path><path d="M162.134 210.485c12.787 0 23.19-10.403 23.19-23.191s-10.403-23.191-23.19-23.191c-12.788 0-23.191 10.404-23.191 23.191s10.402 23.191 23.191 23.191zm0-31.382c4.517 0 8.19 3.675 8.19 8.191s-3.674 8.191-8.19 8.191-8.191-3.674-8.191-8.191 3.674-8.191 8.191-8.191zM162.134 283.33c12.787 0 23.19-10.403 23.19-23.191s-10.403-23.191-23.19-23.191c-12.788 0-23.191 10.404-23.191 23.191s10.402 23.191 23.191 23.191zm0-31.382c4.517 0 8.19 3.675 8.19 8.191s-3.674 8.191-8.19 8.191-8.191-3.674-8.191-8.191 3.674-8.191 8.191-8.191zM162.134 356.175c12.787 0 23.19-10.404 23.19-23.191s-10.403-23.191-23.19-23.191c-12.788 0-23.191 10.403-23.191 23.191s10.402 23.191 23.191 23.191zm0-31.382c4.517 0 8.19 3.674 8.19 8.191s-3.674 8.191-8.19 8.191-8.191-3.675-8.191-8.191 3.674-8.191 8.191-8.191zM185.324 405.829c0-12.788-10.403-23.191-23.19-23.191-12.788 0-23.191 10.404-23.191 23.191s10.403 23.191 23.191 23.191c12.787.001 23.19-10.403 23.19-23.191zm-23.19 8.192c-4.517 0-8.191-3.675-8.191-8.191s3.675-8.191 8.191-8.191 8.19 3.675 8.19 8.191-3.674 8.191-8.19 8.191z" fill="#000000" opacity="1" data-original="#000000"></path></g></svg>