<svg xmlns="http://www.w3.org/2000/svg" version="1.1" xmlns:xlink="http://www.w3.org/1999/xlink" width="512" height="512" x="0" y="0" viewBox="0 0 511.999 511.999" style="enable-background:new 0 0 512 512" xml:space="preserve"><g><path d="M213.711 228.414V412.57c0 50.012-40.919 90.931-90.931 90.931s-90.931-40.919-90.931-90.931V228.414h181.862zM478.801 228.414V412.57c0 50.012-40.919 90.931-90.931 90.931s-90.931-40.919-90.931-90.931V228.414h181.862z" style="" fill="#5697dc" data-original="#5697dc"></path><g style="opacity:0.25;"><path d="M404.972 491.551c-50.013 0-90.931-40.919-90.931-90.931V228.414H296.94V412.57c0 50.012 40.919 90.931 90.931 90.931 22.97 0 44.017-8.636 60.067-22.816a90.133 90.133 0 0 1-42.966 10.866z" style="" fill="#5374c2" data-original="#5374c2"></path></g><g style="opacity:0.25;"><path d="M139.887 491.551c-50.013 0-90.931-40.919-90.931-90.931V228.414H31.855V412.57c0 50.012 40.919 90.931 90.931 90.931 22.97 0 44.017-8.636 60.067-22.816a90.13 90.13 0 0 1-42.966 10.866z" style="" fill="#5374c2" data-original="#5374c2"></path></g><path d="M18.332 160.621c0-59.411 48.162-107.575 107.575-107.575s107.575 48.162 107.575 107.575-48.162 144.036-107.575 144.036S18.332 220.034 18.332 160.621zM280.97 160.621c0-59.411 48.162-107.575 107.575-107.575S496.12 101.209 496.12 160.621s-48.162 144.036-107.575 144.036S280.97 220.034 280.97 160.621z" style="" fill="#5374c2" data-original="#5374c2"></path><path d="M504.396 266.623V124.35c0-63.718-52.133-115.851-115.851-115.851-63.718 0-115.851 52.133-115.851 115.851v142.273l17.081-6.3a285.109 285.109 0 0 1 196.325-.37l18.296 6.67z" style="" fill="#5697dc" data-original="#5697dc"></path><g style="opacity:0.42;"><path d="M486.1 209.838a285.103 285.103 0 0 0-196.325.37l-17.081 6.454v49.961l17.081-6.3a285.109 285.109 0 0 1 196.325-.37l18.295 6.67v-50.075l-18.295-6.71z" style="" fill="#ffffff" data-original="#ffffff"></path></g><g style="opacity:0.25;"><path d="M389.144 8.5c-48.858 0-90.903 30.653-107.857 73.677 20.871-20.159 49.231-32.606 80.361-32.606 63.718 0 115.851 52.133 115.851 115.851v91.371a286.882 286.882 0 0 1 9.201 3.159l18.295 6.67V124.35c0-63.718-52.133-115.85-115.851-115.85z" style="" fill="#5374c2" data-original="#5374c2"></path></g><path d="M239.305 266.623V124.35c0-63.718-52.133-115.851-115.851-115.851C59.737 8.5 7.604 60.632 7.604 124.35v142.273l17.081-6.3a285.109 285.109 0 0 1 196.325-.37l18.295 6.67z" style="" fill="#5697dc" data-original="#5697dc"></path><g style="opacity:0.25;"><path d="M123.652 8.5c-48.858 0-90.903 30.653-107.857 73.677 20.871-20.159 49.231-32.606 80.361-32.606 63.718 0 115.851 52.133 115.851 115.851v91.371a286.882 286.882 0 0 1 9.201 3.159l18.295 6.67V124.35C239.502 60.632 187.37 8.5 123.652 8.5z" style="" fill="#5374c2" data-original="#5374c2"></path></g><g style="opacity:0.42;"><path d="M221.206 209.838a285.103 285.103 0 0 0-196.325.37L7.8 216.661v49.961l17.081-6.3a285.109 285.109 0 0 1 196.325-.37l18.295 6.67v-50.075l-18.295-6.709z" style="" fill="#ffffff" data-original="#ffffff"></path></g><path d="M123.455.895C55.381.895 0 56.277 0 124.351v142.272a7.604 7.604 0 0 0 10.236 7.133l14.009-5.167v143.979c0 54.333 44.203 98.535 98.535 98.535 54.333 0 98.535-44.202 98.535-98.535V268.157l15.385 5.61a7.602 7.602 0 0 0 10.209-7.144V124.351C246.909 56.277 191.528.895 123.455.895zm-.675 495.001c-45.946 0-83.327-37.38-83.327-83.327V263.302c54.149-17.167 112.43-17.29 166.654-.359v149.626c0 45.947-37.38 83.327-83.327 83.327zm100.835-243.087a292.728 292.728 0 0 0-100.263-17.686 292.74 292.74 0 0 0-101.3 18.066l-6.845 2.523v-33.906l12.108-4.466c61.569-22.712 129.432-22.839 191.09-.36l13.296 4.847v33.928l-8.086-2.946zm8.086-47.167-8.087-2.948c-65.036-23.712-136.619-23.576-201.563.38l-6.844 2.525V124.35c0-59.687 48.56-108.247 108.247-108.247s108.247 48.56 108.247 108.248v81.291zM388.544.895c-68.074 0-123.455 55.382-123.455 123.456v142.272a7.608 7.608 0 0 0 10.236 7.134l14.009-5.168v143.979c0 54.333 44.203 98.535 98.535 98.535s98.535-44.202 98.535-98.535V268.157l15.386 5.61a7.602 7.602 0 0 0 10.209-7.144V124.351C512 56.277 456.618.895 388.544.895zm.001 15.208c59.687 0 108.247 48.56 108.247 108.248v81.292l-8.088-2.948c-65.035-23.712-136.618-23.575-201.562.379l-6.846 2.525v-81.248c.002-59.688 48.561-108.248 108.249-108.248zm-.675 479.793c-45.947 0-83.327-37.38-83.327-83.327V263.303c54.149-17.167 112.431-17.29 166.655-.359V412.57c-.001 45.946-37.381 83.326-83.328 83.326zm100.835-243.087a292.722 292.722 0 0 0-100.262-17.686 292.758 292.758 0 0 0-101.3 18.065l-6.846 2.526v-33.906l12.109-4.467c61.569-22.71 129.433-22.838 191.089-.36l13.298 4.848v33.929l-8.088-2.949z" fill="#000000" opacity="1" data-original="#000000"></path></g></svg>