<svg xmlns="http://www.w3.org/2000/svg" version="1.1" xmlns:xlink="http://www.w3.org/1999/xlink" width="512" height="512" x="0" y="0" viewBox="0 0 512 512" style="enable-background:new 0 0 512 512" xml:space="preserve"><g><path d="M364.096 244.869c-59.363-31.317-113.779-71.86-160.78-119.772-15.659-13.33-28.892 18.58-32.217 28.769-3.505 10.742-5.211 22.793-3.444 34.053l187.83 61.612 8.611-4.662z" style="" fill="#e07f65" data-original="#e07f65"></path><path d="M501.111 308.536c0-24.119-13.34-46.041-38.136-51.35-49.128-4.803-97.649-9.072-144.858-24.829-32.046-10.696-62.216-25.446-91.035-42.989-7.374-4.489-14.624-9.386-22.205-13.518-5.634-3.071-11.76-4.316-18.045-2.435-7.109 2.126-11.266 8.1-16.768 12.613-27.457 22.524-68.567 21.172-94.558-2.985-4.313-4.997-8.812-12.395-16.534-10.608-7.126 1.649-8.153 8.68-9.77 14.621-5.017 18.433-10.627 36.636-11.61 55.859-1.145 22.363-.205 44.933-.205 67.325v42.53l440.574-7.809 23.15-36.425z" style="" fill="#f49e73" data-original="#f49e73"></path><path d="m497.018 314.975 4.093-6.44v-4.201c0-2.964-.276-5.873-.795-8.705l-41.738 49.677 13.153-.233 25.287-30.098zM91.868 304.82v-54.19c0-13.385 1.781-26.71 5.297-39.625l3.479-12.778a71.678 71.678 0 0 1-25.136-15.182l-6.229-7.218c-5.511-6.386-15.922-4.025-18.136 4.113l-8.457 31.064a150.852 150.852 0 0 0-5.297 39.625v102.143l54.48-.966V304.82z" style="" fill="#ef9067" data-original="#ef9067"></path><path d="M124.17 301.076v-10.549c0-17.292-14.024-31.31-31.323-31.31H37.388v54.253l86.781 3.824v-16.218z" style="" fill="#f2edec" data-original="#f2edec"></path><path d="M91.867 313.471V259.216H37.388V313.471l86.782 3.823v-2.293z" style="" fill="#e4dad8" data-original="#e4dad8"></path><path d="M477.034 325.429c-67.861 22.163-141.146 30.348-210.596 10.668-32.23-9.133-63.286-21.725-96.173-28.59-40.906-8.538-83.27-9.432-124.657-3.998-7.343.965-12.83 1.545-16.662 8.305-2.422 4.273-4.544 8.742-6.808 13.101L7.662 352.771c.152 20.637 16.786 36.419 37.057 37.025 6.726.201 13.488 0 20.216 0h81.518c3.424 0 7.144.409 10.55 0 2.283-.274 4.389-.526 5.969-2.548 2.899-3.711 1.164-11.677 8.885-10.112l37.767 6.577c12.143 2.114 24.759 5.558 37.111 6.083 26.06 1.109 52.403 0 78.482 0h46.938c9.135 0 17.74.16 26.68-2.401 26.824-7.683 53.8-15.304 80.37-23.82 10.385-3.329 18.847-10.076 22.923-20.425 3.331-8.459 2.374-18.089 2.374-27.022 0-4.758.007-9.221-6.219-8.58-6.371.656-13.429 6.815-17.228 11.558-5.415 6.76-8.607 15.634-12.409 23.356l-13.98 28.388" style="" fill="#e6e9ed" data-original="#e6e9ed"></path><path d="M503.88 337.169c.405-2.097.622-4.253.622-6.448v-19.063c0-3.035-2.969-5.181-5.853-4.232l-1.465.483a34.494 34.494 0 0 0-20.152 17.519c-34.353 11.219-65.191 17.431-92.689 20.208 32.347 3.5 71.992 2.491 119.537-8.467zM76.572 352.772l24.567-47.274a398.457 398.457 0 0 1 30.175-3.825c-20.035-1.847-40.221-2.007-60.293-.671a398.207 398.207 0 0 0-24.332 2.368c-6.768.871-13.032.927-17.055 7.12-8.526 13.127-14.749 28.381-21.973 42.281.118 15.935 10.509 30.408 25.759 35.277 7.832 2.5 16.536 1.748 24.659 1.748h55.534c-20.457.002-37.041-16.575-37.041-37.024z" style="" fill="#cfd2dc" data-original="#cfd2dc"></path><path d="M87.129 352.772H7.661c0 20.448 16.584 37.025 37.041 37.025h79.468c0-20.448-16.584-37.025-37.041-37.025z" style="" fill="#333f61" data-original="#333f61"></path><path d="M76.572 352.772H7.661c0 20.448 16.584 37.025 37.041 37.025h68.911c-20.457.001-37.041-16.576-37.041-37.025z" style="" fill="#253551" data-original="#253551"></path><path d="m263.748 368.464-21.316 20.963c1.412.246 2.842.37 4.275.37h124.348l-83.778-26.917a23.368 23.368 0 0 0-23.529 5.584z" style="" fill="#333f61" data-original="#333f61"></path><path d="M508.578 303.317c-.323-17.499-8.915-33.969-23.16-44.217a7.498 7.498 0 0 0-8.758 12.172c9.781 7.038 15.916 18.087 16.822 30.001-8.999 3.317-16.669 9.709-21.574 17.923-59.218 18.968-114.744 24.934-165.293 17.787l-42.856-9.287c-1.088-.301-2.179-.588-3.264-.897a408.707 408.707 0 0 1-8.132-2.404l-38.742-13.096a394.693 394.693 0 0 0-11.604-3.552c-.368-.107-.741-.208-1.11-.314l-42.229-9.735a354.769 354.769 0 0 0-21.937-3.037c-1.679-.177-3.378-.331-5.074-.485v-3.65c0-21.399-17.415-38.808-38.821-38.808h-47.96v-1.09c0-12.715 1.693-25.385 5.033-37.656l8.456-31.065c.416-1.528 1.592-2.008 2.256-2.159.666-.15 1.935-.225 2.971.977l6.228 7.218a7.498 7.498 0 0 0 11.352-9.797l-6.228-7.218a17.99 17.99 0 0 0-17.64-5.802 17.994 17.994 0 0 0-13.406 12.845l-8.456 31.065a158.392 158.392 0 0 0-5.56 41.595v48.968a18.09 18.09 0 0 0-6.77 7.168L1.07 349.197l-.003.006-.058.112c-.02.038-.033.08-.053.118-.1.2-.191.404-.273.613-.028.071-.053.143-.079.216-.069.195-.13.393-.183.594-.021.077-.042.153-.06.231a7.662 7.662 0 0 0-.114.626c-.01.071-.024.141-.032.213-2.766 24.458 21.609 45.37 44.488 45.37h113.089c3.753 0 7.409-1.536 10.03-4.215 2.254-2.304 3.588-5.235 3.828-8.369l11.435 1.991a7.498 7.498 0 0 0 2.573-14.772l-12.433-2.165a13.834 13.834 0 0 0-11.554 2.981 13.808 13.808 0 0 0-4.938 9.554h-25.71c-3.578-20.991-21.892-37.026-43.894-37.026h-67.12l16.419-31.594a3.07 3.07 0 0 1 1.492-1.39 7.43 7.43 0 0 0 1.914-.389c22.556-3.363 45.476-4.758 68.15-4.126 9.171.256 18.317.861 27.183 1.797 8.115.858 16.36 2.038 24.447 3.497 13.034 2.454 25.897 5.508 38.233 9.08 19.729 5.711 38.784 13.45 58.544 19.072a458.261 458.261 0 0 0 32.316 7.941l.041.009c53.134 10.455 111.556 6.582 173.884-11.472l-13.243 26.89-54.08 16.029a40.685 40.685 0 0 1-11.573 1.679H372.23l-82.66-26.559a30.772 30.772 0 0 0-31.079 7.378l-18.569 18.263-23.062-4.016c-4.076-.714-7.962 2.02-8.673 6.1a7.495 7.495 0 0 0 6.1 8.672l26.859 4.677c1.832.319 3.703.48 5.56.48H371.03a.14.14 0 0 0 .05 0h12.656c5.363 0 10.691-.773 15.834-2.297l57.155-16.941.14-.041 25.446-7.542C499.792 365.293 512 348.947 512 330.72v-19.063c-.001-3.137-1.262-6.126-3.422-8.34zM115.704 382.3H44.702c-13.699 0-25.247-9.368-28.575-22.031H87.13c13.698.001 25.246 9.369 28.574 22.031zm-70.818-86.251v-29.335h47.962c13.138 0 23.825 10.683 23.825 23.812v2.591c-23.949-1.196-48.013-.172-71.787 2.932zm240.098 73.97 38.226 12.282h-62.837l8.633-8.49a15.82 15.82 0 0 1 15.978-3.792zm212.02-39.298c0 11.634-7.794 22.069-18.954 25.377l-9.089 2.694 14.798-30.051c2.78-5.647 7.524-10.177 13.245-12.733v14.713z" fill="#000000" opacity="1" data-original="#000000"></path><path d="M98.157 205.317c29.735 10.427 62.85 2.297 84.365-20.711 4.673-4.996 12.292-6.052 18.147-2.534l-7.991 9.511a7.498 7.498 0 0 0 .918 10.564c3.099 2.604 7.971 2.166 10.563-.917l9.471-11.272 14.692 8.944c.582.354 1.17.699 1.752 1.05l-5.098 6.068a7.498 7.498 0 0 0 .918 10.564c3.099 2.604 7.971 2.166 10.563-.917l6.8-8.093a425.675 425.675 0 0 0 16.345 8.6l-3.38 4.023a7.498 7.498 0 0 0 .918 10.564c3.099 2.604 7.971 2.166 10.563-.917l5.891-7.012a434.432 434.432 0 0 0 88.333 29.203c.45.137.905.238 1.362.288a426.151 426.151 0 0 0 46.725 7.222l37.706 3.687a7.5 7.5 0 0 0 8.192-6.733 7.497 7.497 0 0 0-6.733-8.191l-37.706-3.687a411.243 411.243 0 0 1-44.895-6.929 645.198 645.198 0 0 1-69.561-42.738l.662-.788a7.498 7.498 0 0 0-.918-10.564 7.497 7.497 0 0 0-10.563.917l-1.373 1.634a644.039 644.039 0 0 1-14.363-10.958l.847-1.008a7.498 7.498 0 0 0-11.481-9.647l-1.047 1.247a643.335 643.335 0 0 1-14.5-12.308l.95-1.131a7.498 7.498 0 0 0-11.481-9.647l-.643.765a642.517 642.517 0 0 1-24.437-23.617 7.106 7.106 0 0 0-.492-.459c-7.989-6.8-19.877-6.121-27.06 1.548-4.553 4.857-8.85 11.475-12.775 19.668-8.92 18.619-9.181 35.599-8.619 43.701-16.534 10.792-37.427 13.585-56.602 6.862a7.497 7.497 0 0 0-9.556 4.595c-1.374 3.903.683 8.183 4.591 9.553zm210.77 15.81a418.238 418.238 0 0 1-25.309-10.229l3.717-4.424a652.099 652.099 0 0 0 21.592 14.653zm-33.768-23.474-5.623 6.694a414.162 414.162 0 0 1-16.443-8.483l7.717-9.185a663.621 663.621 0 0 0 14.349 10.974zm-26.025-20.387-9.29 11.057a420.966 420.966 0 0 1-3.724-2.23l-12.732-7.751 11.243-13.382a661 661 0 0 0 14.503 12.306zm-67.272-30.184c3.263-6.809 6.692-12.156 10.194-15.894 1.645-1.754 4.321-1.97 6.199-.542a657.845 657.845 0 0 0 25.193 24.311l-13.02 15.496-1.889-1.15c-10.572-6.435-24.005-5.462-33.55 1.96.744-6.808 2.612-15.285 6.873-24.181z" fill="#000000" opacity="1" data-original="#000000"></path></g></svg>