<svg xmlns="http://www.w3.org/2000/svg" version="1.1" xmlns:xlink="http://www.w3.org/1999/xlink" width="512" height="512" x="0" y="0" viewBox="0 0 128 128" style="enable-background:new 0 0 512 512" xml:space="preserve"><g><g fill="#0c0f13"><path d="M106 118.5h-7v-5.8c0-1.2-.7-2.3-1.8-2.7V60.5c0-1.7-1.3-3-3-3H65.7c-1.3 0-2.5.9-2.9 2.1l-.1 6.8 3 .9c1.6.5 2.5 2.1 2.1 3.7-.4 1.3-1.6 2.2-2.9 2.2-.3 0-.5 0-.8-.1l-3.2-.9-1.3 4.2v.1l3.4 1.7c1.5.7 2.1 2.5 1.3 4-.5 1-1.6 1.7-2.7 1.7-.5 0-.9-.1-1.3-.3L57 82c-.8 1.3-1.7 2.5-2.8 3.7l2.1 1.6c1.3 1 1.5 2.9.5 4.2-.6.8-1.5 1.1-2.4 1.1-.6 0-1.3-.2-1.9-.6l-3-2.4c-3 2-6.5 3.4-10.2 3.9l-2.2.3c-1.1.2-2.3.3-3.3.5-11.1 1.5-21.6 3-22.9 15.6-1.1.4-1.9 1.5-1.9 2.8v8.8c0 1.7 1.3 3 3 3h94c1.7 0 3-1.3 3-3s-1.3-3-3-3zM78.8 80.8c4.7 0 8.5 3.8 8.5 8.4s-3.8 8.4-8.5 8.4-8.5-3.8-8.5-8.4 3.8-8.4 8.5-8.4zm-17.9 22.3c1.7 0 3 1.3 3 3s-1.3 3-3 3-3-1.3-3-3 1.4-3 3-3zm-8.9 0c1.7 0 3 1.3 3 3s-1.3 3-3 3-3-1.3-3-3 1.3-3 3-3zm-17.3-2.9c.1 0 .3 0 .4-.1v9.5H17c1.1-6.8 6.4-7.8 17.7-9.4zM93 118.5H15v-2.8h78zM117.9 119.4c-.6.6-.9 1.3-.9 2.1s.3 1.6.9 2.1c.6.6 1.3.9 2.1.9s1.6-.3 2.1-.9c.6-.6.9-1.3.9-2.1s-.3-1.6-.9-2.1c-1.1-1.1-3.1-1.1-4.2 0z" fill="#0c0f13" opacity="1" data-original="#0c0f13"></path></g></g></svg>