<svg xmlns="http://www.w3.org/2000/svg" version="1.1" xmlns:xlink="http://www.w3.org/1999/xlink" width="512" height="512" x="0" y="0" viewBox="0 0 451.214 451.214" style="enable-background:new 0 0 512 512" xml:space="preserve" class=""><g><path d="M396.415 371.047c45.628 0 51.379-33.542 51.379-74.205v-35.165c7.69-56.661 4.063-122.968-28.063-172.448-.602-1.557-1.567-2.936-2.77-4.11-6.601-8.209-18.01-3.813-19.725 4.11-4.816 8.962-7.27 18.967-6.355 29.178.564 6.39 4.929 11.775 11.773 11.775 4.12 0 8.352-2.561 10.443-6.225 10.977 27.116 14.311 57.628 15.096 87.727-16.446-14.577-39.758-23.604-64.198-23.604h-41.309c-4.761 0-9.346.245-13.813.644-3.351-.383-6.741-.644-10.235-.644H157.332c-4.014 0-7.897.345-11.722.846-5.251-.563-10.722-.846-16.384-.846H87.918c-24.439 0-47.752 9.027-64.209 23.604.832-31.785 4.646-63.979 17.162-92.199 2.212 1.739 4.951 2.847 7.536 2.847 7.025 0 10.974-5.408 11.775-11.775 1.092-8.644-.855-17.23-5.536-24.586-3.02-4.769-8.8-6.987-14.03-5.175-3.073.385-6.067 1.963-8.263 5.175C-1.757 135.764-.62 203.782.324 261.677v35.165c0 40.663 7.646 74.205 53.273 74.205 159.039-4.608 154.933-124.266 154.933-124.266 0-10.632-2.344-19.673-6.562-27.293h47.967c-4.22 7.62-6.564 16.669-6.564 27.293 0-.007-5.996 119.65 153.044 124.266z" fill="#000000" opacity="1" data-original="#000000" class=""></path></g></svg>