<svg xmlns="http://www.w3.org/2000/svg" version="1.1" xmlns:xlink="http://www.w3.org/1999/xlink" width="512" height="512" x="0" y="0" viewBox="0 0 682.667 682.667" style="enable-background:new 0 0 512 512" xml:space="preserve" class=""><g><defs><clipPath id="a" clipPathUnits="userSpaceOnUse"><path d="M0 512h512V0H0Z" fill="#000000" opacity="1" data-original="#000000"></path></clipPath></defs><g clip-path="url(#a)" transform="matrix(1.33333 0 0 -1.33333 0 682.667)"><path d="M0 0c0 48.712 9.866 96.92 29.005 141.715a69.192 69.192 0 0 1-22.234 15.863l-75.984 29.759h-144.326l-75.983-29.759a69.181 69.181 0 0 1-22.234-15.863A360.71 360.71 0 0 0-282.751 0v-217.261c0-13.993 11.343-25.336 25.336-25.336h232.078C-11.344-242.597 0-231.254 0-217.261v.001z" style="fill-opacity:1;fill-rule:nonzero;stroke:none" transform="translate(397.38 279.19)" fill="#fba65c" data-original="#fba65c" class=""></path><path d="m0 0-75.983 29.76h-27.58C-100 19.533-94.715 4.38-94.658 4.354c7.269-3.284 28.116-12.96 45.691-21.137 15.574-7.245 24.113-24.282 20.532-41.083-6.819-31.998-13.334-73.777-13.334-99.712v-217.261c0-13.993-11.342-25.336-25.335-25.336h34.997a25.22 25.22 0 0 1 15.364 5.195c6.059 4.629 9.972 11.927 9.972 20.141v217.261A360.707 360.707 0 0 0 22.234-15.863 69.166 69.166 0 0 1 0 0" style="fill-opacity:1;fill-rule:nonzero;stroke:none" transform="translate(404.151 436.767)" fill="#fb9538" data-original="#fb9538" class=""></path><path d="M0 0c21.629-4.821 43.021-7.23 64.412-7.23 21.393 0 42.783 2.409 64.412 7.23 3.993.891 7.868-1.972 8.1-6.057.967-17.089 5.101-26.743 10.113-34.34 1.208-1.831.925-4.277-.704-5.744-21.922-19.753-54.967-26.544-81.921-26.544-26.936 0-60.261 7.088-81.917 26.544-1.631 1.467-1.914 3.915-.706 5.745C-13.2-32.798-9.066-23.144-8.099-6.057-7.868-1.972-3.993.891 0 0" style="fill-opacity:1;fill-rule:nonzero;stroke:none" transform="translate(191.595 504.337)" fill="#f0f0f3" data-original="#f0f0f3" class=""></path><path d="M0 0c0 48.712-9.867 67.323-29.005 112.118-6.622-7.063-11.935-15.445-15.01-24.844C-72.171 1.21-76.938-76.379-76.938-124.504v-159.905c0-9.321 7.556-16.877 16.876-16.877h42.283C-7.96-301.286 0-293.327 0-283.508z" style="fill-opacity:1;fill-rule:nonzero;stroke:none" transform="translate(114.63 308.786)" fill="#fcc89b" data-original="#fcc89b"></path><path d="M0 0c-6.623-7.063-11.935-15.445-15.01-24.844a637.224 637.224 0 0 1-4.09-12.974c8.679-22.54 13.108-41.664 13.108-74.3l-.001-283.508c0-9.819-7.959-17.778-17.778-17.778h34.997c9.819 0 17.778 7.959 17.778 17.778l.001 283.508C29.005-63.406 19.138-44.795 0 0" style="fill-opacity:1;fill-rule:nonzero;stroke:none" transform="translate(85.625 420.904)" fill="#fdb77e" data-original="#fdb77e"></path><path d="M0 0v-27.817c0-9.321 7.556-16.877 16.876-16.877h42.283c9.819 0 17.779 7.96 17.779 17.778V0Z" style="fill-opacity:1;fill-rule:nonzero;stroke:none" transform="translate(37.692 52.194)" fill="#f0f0f3" data-original="#f0f0f3" class=""></path><path d="M0 0v26.916h-34.997V0c0-9.819-7.96-17.778-17.778-17.778h34.997C-7.959-17.778 0-9.819 0 0" style="fill-opacity:1;fill-rule:nonzero;stroke:none" transform="translate(114.63 25.278)" fill="#e0dde2" data-original="#e0dde2"></path><path d="M0 0c0 48.712 9.866 67.323 29.005 112.118 6.622-7.063 11.934-15.445 15.01-24.844C72.171 1.21 76.938-76.379 76.938-124.504v-159.905c0-9.321-7.556-16.877-16.876-16.877H17.778C7.96-301.286 0-293.327 0-283.508Z" style="fill-opacity:1;fill-rule:nonzero;stroke:none" transform="translate(397.37 308.786)" fill="#fdb77e" data-original="#fdb77e"></path><path d="M0 0c-3.074 9.399-8.388 17.781-15.01 24.844-6.408-14.999-11.776-27.062-16.084-38.303C-6.687-94.116-2.407-166.175-2.407-211.778v-159.905c0-9.321-7.556-16.877-16.876-16.877h35.33c9.32 0 16.877 7.556 16.877 16.877v159.905C32.924-163.653 28.156-86.064 0 0" style="fill-opacity:1;fill-rule:nonzero;stroke:none" transform="translate(441.385 396.06)" fill="#fba65c" data-original="#fba65c" class=""></path><path d="M0 0v-26.916c0-9.818 7.96-17.778 17.778-17.778h42.284c9.32 0 16.876 7.556 16.876 16.877V0Z" style="fill-opacity:1;fill-rule:nonzero;stroke:none" transform="translate(397.37 52.194)" fill="#f0f0f3" data-original="#f0f0f3" class=""></path><path d="M0 0c0-9.321-7.556-16.877-16.876-16.877h35.33c9.32 0 16.877 7.556 16.877 16.877v27.817H0Z" style="fill-opacity:1;fill-rule:nonzero;stroke:none" transform="translate(438.978 24.377)" fill="#e0dde2" data-original="#e0dde2"></path><path d="M0 0c-21.629-4.821-43.02-7.23-64.412-7.23-21.392 0-42.783 2.409-64.412 7.23" style="fill-opacity:1;fill-rule:nonzero;stroke:none" transform="translate(320.419 504.337)" fill="#f0f0f3" data-original="#f0f0f3" class=""></path><path d="M0 0a307.795 307.795 0 0 0-24.772-4.479c.252-29.816 6.189-46.292 13.846-58.736 10.437 4.087 20.217 9.67 28.435 17.074 1.629 1.467 1.912 3.913.704 5.744C13.201-32.8 9.066-23.146 8.1-6.057 7.868-1.972 3.993.891 0 0" style="fill-opacity:1;fill-rule:nonzero;stroke:none" transform="translate(320.419 504.337)" fill="#e0dde2" data-original="#e0dde2"></path><path d="M0 0s-.056-36.036 12.964-60.104" style="stroke-width:15;stroke-linecap:round;stroke-linejoin:round;stroke-miterlimit:10;stroke-dasharray:none;stroke-opacity:1" transform="translate(291.147 499.27)" fill="none" stroke="#000000" stroke-width="15" stroke-linecap="round" stroke-linejoin="round" stroke-miterlimit="10" stroke-dasharray="none" stroke-opacity="" data-original="#000000" class=""></path><path d="M0 0s.056-36.036-12.964-60.104" style="stroke-width:15;stroke-linecap:round;stroke-linejoin:round;stroke-miterlimit:10;stroke-dasharray:none;stroke-opacity:1" transform="translate(220.87 499.27)" fill="none" stroke="#000000" stroke-width="15" stroke-linecap="round" stroke-linejoin="round" stroke-miterlimit="10" stroke-dasharray="none" stroke-opacity="" data-original="#000000" class=""></path><path d="M0 0v-65.454" style="stroke-width:15;stroke-linecap:round;stroke-linejoin:round;stroke-miterlimit:10;stroke-dasharray:none;stroke-opacity:1" transform="translate(256.007 497.106)" fill="none" stroke="#000000" stroke-width="15" stroke-linecap="round" stroke-linejoin="round" stroke-miterlimit="10" stroke-dasharray="none" stroke-opacity="" data-original="#000000" class=""></path><path d="m0 0-25.494-12.506a16.104 16.104 0 0 0-14.18 0l-38.82 19.043a16.103 16.103 0 0 1-14.181-.001l-38.812-19.041a16.1 16.1 0 0 0-14.181 0l-38.814 19.041a16.101 16.101 0 0 1-14.182 0l-38.811-19.041a16.1 16.1 0 0 0-14.181 0l-31.596 15.501c.2-4.89.305-9.788.305-14.692v-72.45l31.291-15.352a16.1 16.1 0 0 1 14.181 0l38.811 19.041a16.101 16.101 0 0 0 14.182 0l38.814-19.041a16.1 16.1 0 0 1 14.181 0l38.812 19.041a16.103 16.103 0 0 0 14.181.001l38.82-19.043a16.104 16.104 0 0 1 14.18 0l25.297 12.41v75.393C-.197-7.793-.126-3.895 0 0" style="fill-opacity:1;fill-rule:nonzero;stroke:none" transform="translate(397.577 290.885)" fill="#f0f0f3" data-original="#f0f0f3" class=""></path><path d="M0 0v75.394c0 3.902.071 7.801.197 11.695l-25.494-12.506a16.095 16.095 0 0 0-9.7-1.431v-86.993a16.103 16.103 0 0 1 9.7 1.432z" style="fill-opacity:1;fill-rule:nonzero;stroke:none" transform="translate(397.38 203.796)" fill="#e0dde2" data-original="#e0dde2"></path><path d="m0 0-64.834-25.393a69.17 69.17 0 0 1-22.234-15.863" style="stroke-width:15;stroke-linecap:round;stroke-linejoin:round;stroke-miterlimit:10;stroke-dasharray:none;stroke-opacity:1" transform="translate(172.693 462.16)" fill="none" stroke="#000000" stroke-width="15" stroke-linecap="round" stroke-linejoin="round" stroke-miterlimit="10" stroke-dasharray="none" stroke-opacity="" data-original="#000000" class=""></path><path d="m0 0 .007-.007L.011 0a69.186 69.186 0 0 1-22.235 15.863l-64.829 25.391" style="stroke-width:15;stroke-linecap:round;stroke-linejoin:round;stroke-miterlimit:10;stroke-dasharray:none;stroke-opacity:1" transform="translate(426.375 420.904)" fill="none" stroke="#000000" stroke-width="15" stroke-linecap="round" stroke-linejoin="round" stroke-miterlimit="10" stroke-dasharray="none" stroke-opacity="" data-original="#000000" class=""></path><path d="M0 0c-3.993.891-7.868-1.972-8.099-6.057-.967-17.087-5.101-26.741-10.112-34.339-1.208-1.83-.925-4.278.706-5.745C4.151-65.597 37.476-72.685 64.412-72.685c26.954 0 59.999 6.791 81.921 26.544 1.629 1.467 1.912 3.913.704 5.744-5.012 7.597-9.146 17.251-10.113 34.34-.232 4.085-4.107 6.948-8.1 6.057" style="stroke-width:15;stroke-linecap:round;stroke-linejoin:round;stroke-miterlimit:10;stroke-dasharray:none;stroke-opacity:1" transform="translate(191.595 504.337)" fill="none" stroke="#000000" stroke-width="15" stroke-linecap="round" stroke-linejoin="round" stroke-miterlimit="10" stroke-dasharray="none" stroke-opacity="" data-original="#000000" class=""></path><path d="M0 0c-21.629-4.821-43.02-7.23-64.412-7.23-21.392 0-42.783 2.409-64.412 7.23" style="stroke-width:15;stroke-linecap:round;stroke-linejoin:round;stroke-miterlimit:10;stroke-dasharray:none;stroke-opacity:1" transform="translate(320.419 504.337)" fill="none" stroke="#000000" stroke-width="15" stroke-linecap="round" stroke-linejoin="round" stroke-miterlimit="10" stroke-dasharray="none" stroke-opacity="" data-original="#000000" class=""></path><path d="M0 0v.006L-25.494-12.5a16.104 16.104 0 0 0-14.18 0l-38.82 19.043a16.1 16.1 0 0 1-14.181-.001l-38.812-19.041a16.1 16.1 0 0 0-14.181 0l-38.814 19.041a16.101 16.101 0 0 1-14.182 0l-38.811-19.041a16.106 16.106 0 0 0-14.181 0l-31.596 15.501" style="stroke-width:15;stroke-linecap:round;stroke-linejoin:round;stroke-miterlimit:10;stroke-dasharray:none;stroke-opacity:1" transform="translate(397.577 290.879)" fill="none" stroke="#000000" stroke-width="15" stroke-linecap="round" stroke-linejoin="round" stroke-miterlimit="10" stroke-dasharray="none" stroke-opacity="" data-original="#000000" class=""></path><path d="m0 0 31.291-15.352a16.1 16.1 0 0 1 14.181 0L84.284 3.689a16.1 16.1 0 0 0 14.181 0l38.814-19.041a16.1 16.1 0 0 1 14.181 0l38.812 19.041a16.103 16.103 0 0 0 14.181.001l38.82-19.043a16.104 16.104 0 0 1 14.18 0l25.297 12.41" style="stroke-width:15;stroke-linecap:round;stroke-linejoin:round;stroke-miterlimit:10;stroke-dasharray:none;stroke-opacity:1" transform="translate(114.63 206.74)" fill="none" stroke="#000000" stroke-width="15" stroke-linecap="round" stroke-linejoin="round" stroke-miterlimit="10" stroke-dasharray="none" stroke-opacity="" data-original="#000000" class=""></path><path d="M0 0c-6.456-42.393-7.987-79.14-7.987-106.42v-159.906c0-9.32 7.555-16.877 16.876-16.877h42.283c9.819 0 17.778 7.96 17.778 17.779v36.65" style="stroke-width:15;stroke-linecap:round;stroke-linejoin:round;stroke-miterlimit:10;stroke-dasharray:none;stroke-opacity:1" transform="translate(45.68 290.703)" fill="none" stroke="#000000" stroke-width="15" stroke-linecap="round" stroke-linejoin="round" stroke-miterlimit="10" stroke-dasharray="none" stroke-opacity="" data-original="#000000" class=""></path><path d="M0 0c-6.623-7.063-11.935-15.445-15.01-24.844-7.995-24.438-14.104-48.192-18.753-70.782" style="stroke-width:15;stroke-linecap:round;stroke-linejoin:round;stroke-miterlimit:10;stroke-dasharray:none;stroke-opacity:1" transform="translate(85.625 420.904)" fill="none" stroke="#000000" stroke-width="15" stroke-linecap="round" stroke-linejoin="round" stroke-miterlimit="10" stroke-dasharray="none" stroke-opacity="" data-original="#000000" class=""></path><path d="M0 0v-.001c0-.133-.008-.264-.01-.397v-36.253c0-9.819 7.96-17.779 17.779-17.779h42.283c9.32 0 16.877 7.556 16.877 16.877v159.906c0 48.125-4.768 125.713-32.924 211.777-3.073 9.396-8.384 17.775-15.003 24.837" style="stroke-width:15;stroke-linecap:round;stroke-linejoin:round;stroke-miterlimit:10;stroke-dasharray:none;stroke-opacity:1" transform="translate(397.38 61.93)" fill="none" stroke="#000000" stroke-width="15" stroke-linecap="round" stroke-linejoin="round" stroke-miterlimit="10" stroke-dasharray="none" stroke-opacity="" data-original="#000000" class=""></path><path d="M0 0v146.855A360.71 360.71 0 0 0 29.006 288.57a69.186 69.186 0 0 1-22.235 15.863l-64.846 25.398" style="stroke-width:15;stroke-linecap:round;stroke-linejoin:round;stroke-miterlimit:10;stroke-dasharray:none;stroke-opacity:1" transform="translate(397.38 132.334)" fill="none" stroke="#000000" stroke-width="15" stroke-linecap="round" stroke-linejoin="round" stroke-miterlimit="10" stroke-dasharray="none" stroke-opacity="" data-original="#000000" class=""></path><path d="m0 0-64.852-25.4a69.166 69.166 0 0 1-22.234-15.863 360.706 360.706 0 0 0 29.005-141.715v-217.259l-.001-.002c0-13.992 11.344-25.336 25.337-25.336h232.078c13.993 0 25.336 11.344 25.336 25.336V-364.894" style="stroke-width:15;stroke-linecap:round;stroke-linejoin:round;stroke-miterlimit:10;stroke-dasharray:none;stroke-opacity:1" transform="translate(172.71 462.167)" fill="none" stroke="#000000" stroke-width="15" stroke-linecap="round" stroke-linejoin="round" stroke-miterlimit="10" stroke-dasharray="none" stroke-opacity="" data-original="#000000" class=""></path><path d="M0 0h-76.938" style="stroke-width:15;stroke-linecap:round;stroke-linejoin:round;stroke-miterlimit:10;stroke-dasharray:none;stroke-opacity:1" transform="translate(114.63 52.194)" fill="none" stroke="#000000" stroke-width="15" stroke-linecap="round" stroke-linejoin="round" stroke-miterlimit="10" stroke-dasharray="none" stroke-opacity="" data-original="#000000" class=""></path><path d="M0 0h-76.938" style="stroke-width:15;stroke-linecap:round;stroke-linejoin:round;stroke-miterlimit:10;stroke-dasharray:none;stroke-opacity:1" transform="translate(474.309 52.194)" fill="none" stroke="#000000" stroke-width="15" stroke-linecap="round" stroke-linejoin="round" stroke-miterlimit="10" stroke-dasharray="none" stroke-opacity="" data-original="#000000" class=""></path></g></g></svg>