<svg xmlns="http://www.w3.org/2000/svg" version="1.1" width="512"
     height="512" x="0" y="0" viewBox="0 0 295.526 295.526" style="enable-background:new 0 0 512 512"
     xml:space="preserve"><g><path d="M147.763 44.074c12.801 0 23.858-8.162 27.83-20.169-7.578 2.086-17.237 3.345-27.83 3.345-10.592 0-20.251-1.259-27.828-3.345 3.97 12.006 15.026 20.169 27.828 20.169z" fill="#000000" opacity="1" ></path><path
        d="M295.158 58.839a6.771 6.771 0 0 0-3.521-3.873l-56.343-26.01a272.476 272.476 0 0 0-36.524-9.611 6.62 6.62 0 0 0-7.757 5.071c-4.502 19.82-22.047 34.659-43.251 34.659-21.203 0-38.749-14.838-43.25-34.659a6.628 6.628 0 0 0-7.758-5.071 273.519 273.519 0 0 0-36.542 9.611L3.889 54.965a6.63 6.63 0 0 0-3.511 3.873c-.599 1.726-.491 3.589.353 5.217l24.46 48.272a6.639 6.639 0 0 0 7.855 3.383l27.167-8.052v161.97c0 3.678 3.001 6.678 6.689 6.678h161.723c3.678 0 6.67-3.001 6.67-6.678V107.66l27.186 8.052a6.65 6.65 0 0 0 1.915.283 6.665 6.665 0 0 0 5.94-3.666l24.469-48.272a6.703 6.703 0 0 0 .353-5.218z"
        fill="#000000" opacity="1"></path></g></svg>
