<svg xmlns="http://www.w3.org/2000/svg" version="1.1" xmlns:xlink="http://www.w3.org/1999/xlink" width="512" height="512" x="0" y="0" viewBox="0 0 128 128" style="enable-background:new 0 0 512 512" xml:space="preserve"><g><path d="M85.813 70.359c2.309-11.383 5.8-28.586 5.379-37.919-.389-8.7-3.86-14.587-6.395-18.883l-.451-.767a28.63 28.63 0 0 1-2.926-8.875A3.588 3.588 0 0 0 77.874.881H50.126a3.588 3.588 0 0 0-3.546 3.034 28.63 28.63 0 0 1-2.926 8.875l-.451.767c-2.535 4.3-6.006 10.179-6.4 18.883-.418 9.333 3.07 26.536 5.379 37.918a14.917 14.917 0 0 1 .1 5.643c-2.994 16.458 1.674 43.761 2.64 49.067a2.5 2.5 0 0 0 2.46 2.051h6.83a2.5 2.5 0 0 0 2.5-2.353c.35-6.173 2.208-37.458 4.332-47.192.4-1.851 1.717-17.433 2.453-26.4a.5.5 0 0 1 1 0c.736 8.971 2.049 24.553 2.453 26.4 2.124 9.734 3.982 41.019 4.332 47.19a2.5 2.5 0 0 0 2.5 2.355h6.83a2.5 2.5 0 0 0 2.46-2.052c.966-5.3 5.634-32.608 2.64-49.066a14.911 14.911 0 0 1 .101-5.642zM49.641 6.96a.5.5 0 0 1-.485-.615c.159-.7.289-1.361.385-1.948a.6.6 0 0 1 .585-.516h27.748a.6.6 0 0 1 .585.515c.1.588.226 1.248.385 1.949a.5.5 0 0 1-.485.615z" fill="#000000" opacity="1" data-original="#000000"></path></g></svg>