<svg xmlns="http://www.w3.org/2000/svg" version="1.1" xmlns:xlink="http://www.w3.org/1999/xlink" width="512" height="512" x="0" y="0" viewBox="0 0 512 512" style="enable-background:new 0 0 512 512" xml:space="preserve"><g><path fill="#ffe07d" d="m62.501 140.035 12.957 3.582 14.863-3.582V12.409A4.91 4.91 0 0 0 85.412 7.5H77.43l-10.084.804a4.91 4.91 0 0 0-4.909 4.909zM423.29 140.035l12.957 3.582 14.863-3.582V12.409a4.91 4.91 0 0 0-4.909-4.909h-8.543l-9.524.804a4.91 4.91 0 0 0-4.909 4.909z" opacity="1" data-original="#ffe07d"></path><path fill="#ffd064" d="M437.659 7.5v132.53l-9.199 5.247-6.801-5.247V12.41c0-2.71 2.2-4.91 4.91-4.91z" opacity="1" data-original="#ffd064"></path><path fill="#ffe07d" d="m285.48 361.42-101.811 9.947L71.91 361.42l-6.92-28.365c-14.22-29.78-22.459-61.835-22.459-93.995 0-31.52 1.409-63.02 15.029-92.23l124.788 106.298z" opacity="1" data-original="#ffe07d"></path><path fill="#faf8f8" d="m454.31 146.58-85.687 96.31-93.468 77.394L255.99 296l165.67-155.99h29.45c1.11 2.18 2.18 4.37 3.2 6.57z" opacity="1" data-original="#faf8f8"></path><path fill="#ffe07d" d="M474.86 239.06a218.3 218.3 0 0 1-21.31 94.11l-13.48 28.25-53.805 9.947-60.615-9.777-49.36-46.47 178.02-168.54a218.292 218.292 0 0 1 20.55 92.48z" opacity="1" data-original="#ffe07d"></path><path fill="#f0e9e6" d="m287.93 304.1-8.976 13.762-15.193-8.642L255.99 296l11.67-10.99z" opacity="1" data-original="#f0e9e6"></path><path fill="#ffd064" d="m348.95 361.56-13.244 5.734-10.056-5.704-49.36-46.47 11.64-11.02z" opacity="1" data-original="#ffd064"></path><path fill="#faf8f8" d="m325.65 361.59-13.03 7.795-26.96-7.795-228.1-214.76 5.779-1.553-2.469-5.267h29.45z" opacity="1" data-original="#faf8f8"></path><path fill="#ffd064" d="M440.07 361.42v83.08l-182.745 12.959L80.41 444.5v-83.08z" opacity="1" data-original="#ffd064"></path><path fill="#ffe07d" d="M461.729 499.989 440.067 444.5H73.44l-20.518 52.991c-.865 2.216 1.07 4.497 3.404 4.032 7.229-1.438 7.757-5.711 12.954-6.724 3.406-2.4 7.43-4.299 13.8-4.299 17.295 0 17.295 14 34.589 14 17.292 0 17.292-14 34.584-14 17.293 0 17.293 14 34.585 14s17.292-14 34.584-14 17.292 14 34.583 14c17.29 0 17.29-14 34.579-14s17.289 14 34.578 14c17.292 0 17.292-14 34.583-14s17.291 14 34.583 14c17.29 0 17.29-14 34.581-14 15.371 0 17.077 11.065 29.415 13.521 2.334.464 4.27-1.816 3.405-4.032z" opacity="1" data-original="#ffe07d"></path><path fill="#ffd064" d="M77.43 7.5v132.53l-9.759 5.247-6.801-5.247V12.41c0-2.71 2.2-4.91 4.91-4.91zM88.91 361.42l-9.718 5.323-7.282-5.323-13.48-28.25a218.3 218.3 0 0 1-21.31-94.11c0-31.52 6.82-63.02 20.44-92.23l9.935 1.491 2.145 9.889a218.251 218.251 0 0 0-15.52 80.85 218.3 218.3 0 0 0 21.31 94.11z" opacity="1" data-original="#ffd064"></path><path fill="#ffc250" d="M88.91 361.42v83.08l-12.8 6.133-4.2-6.133v-83.08z" opacity="1" data-original="#ffc250"></path><path fill="#ffd064" d="m88.91 444.5-19.63 50.3c-4.82 3.39-8.4 7.78-15.63 9.22-2.33.47-4.26-1.82-3.4-4.03l21.66-55.49z" opacity="1" data-original="#ffd064"></path><path fill="#f0e9e6" d="m77.43 140.01-2.87 6.82a223.09 223.09 0 0 0-4.92 11.38l-12.08-11.38c1.05-2.29 2.16-4.56 3.31-6.82z" opacity="1" data-original="#f0e9e6"></path><path d="M458.611 138.262V12.409C458.611 5.566 453.044 0 446.202 0h-19.635c-6.842 0-12.409 5.566-12.409 12.409v50.08c0 4.143 3.358 7.5 7.5 7.5s7.5-3.357 7.5-7.5V15h14.452v117.522h-14.452V97.489c0-4.143-3.358-7.5-7.5-7.5s-7.5 3.357-7.5 7.5v39.293L256.011 285.675l-56.496-53.176a7.5 7.5 0 1 0-10.281 10.922l117.511 110.605H288.63L69.238 147.522h18.109l76.501 72.006a7.5 7.5 0 1 0 10.281-10.922l-76.308-71.824V12.409C97.822 5.566 92.255 0 85.413 0H65.778C58.936 0 53.37 5.566 53.37 12.409v125.874c-15.096 30.287-23.309 64.102-23.737 97.934-.436 34.448 7.181 69.092 22.021 100.174l12.76 26.828v79.87l-22.91 58.684A7.502 7.502 0 0 0 48.49 512c11.302 0 17.241-4.808 22.013-8.671C74.468 500.12 77.087 498 83.079 498s8.611 2.12 12.576 5.329c4.772 3.863 10.711 8.671 22.013 8.671 11.301 0 17.24-4.808 22.011-8.671 3.964-3.209 6.583-5.329 12.573-5.329s8.609 2.12 12.573 5.329c4.771 3.863 10.71 8.671 22.012 8.671 11.301 0 17.239-4.808 22.011-8.671 3.964-3.209 6.582-5.329 12.573-5.329s8.609 2.12 12.573 5.329c4.771 3.863 10.709 8.671 22.011 8.671 11.301 0 17.238-4.808 22.009-8.671 3.963-3.209 6.581-5.329 12.57-5.329s8.606 2.12 12.569 5.329c4.771 3.863 10.708 8.671 22.009 8.671 11.302 0 17.24-4.808 22.011-8.671 3.963-3.209 6.582-5.329 12.572-5.329s8.608 2.12 12.572 5.329c4.771 3.863 10.709 8.671 22.011 8.671 11.301 0 17.239-4.808 22.01-8.671 3.963-3.209 6.581-5.329 12.571-5.329 5.989 0 8.607 2.12 12.57 5.329 4.771 3.863 10.709 8.671 22.01 8.671a7.5 7.5 0 0 0 6.986-10.228l-22.91-58.684v-79.869c8.458-17.901 19.931-40.184 25.399-59.654a7.5 7.5 0 0 0-5.046-9.329 7.497 7.497 0 0 0-9.329 5.046c-4.592 16.851-15.767 38.973-23.262 54.744h-69.455c13.886-16.82 21.325-39.997 20.285-62.566a7.5 7.5 0 0 0-7.498-7.416h-.086a7.501 7.501 0 0 0-7.416 7.584c1.354 23.108-8.264 46.957-26.003 62.398H328.63l-41.673-39.224 164.856-155.217c13.787 33.795 18.548 70.409 13.763 106.909a7.5 7.5 0 1 0 14.873 1.949c5.874-44.811-1.682-89.781-21.838-130.181zm-118.19 230.764V437H171.56v-67.974zm15 0h77.146V437h-77.146zM82.822 15v117.522H68.37V15zm-22.63 144.607 206.553 194.419h-99.921c-17.587-15.184-27.233-38.851-26.003-62.398a7.5 7.5 0 0 0-7.416-7.584h-.086a7.5 7.5 0 0 0-7.498 7.416c-1.145 22.083 6.26 45.445 20.285 62.566H76.652l-11.457-24.089c-25.492-53.39-27.078-115.831-5.003-170.33zM428.91 483c-11.301 0-17.239 4.808-22.01 8.671-3.963 3.209-6.581 5.329-12.571 5.329s-8.609-2.12-12.572-5.329c-4.771-3.863-10.709-8.671-22.011-8.671s-17.239 4.808-22.011 8.671c-3.964 3.209-6.582 5.329-12.573 5.329-5.989 0-8.606-2.12-12.569-5.329-4.771-3.863-10.708-8.671-22.009-8.671s-17.238 4.808-22.009 8.671c-3.963 3.209-6.581 5.329-12.57 5.329-5.99 0-8.608-2.12-12.572-5.329-4.771-3.863-10.709-8.671-22.011-8.671s-17.24 4.808-22.011 8.671c-3.964 3.209-6.582 5.329-12.572 5.329-5.991 0-8.61-2.12-12.574-5.329-4.771-3.863-10.71-8.671-22.012-8.671s-17.24 4.808-22.012 8.671c-3.964 3.209-6.582 5.329-12.573 5.329-5.992 0-8.611-2.12-12.576-5.329-4.771-3.863-10.71-8.671-22.013-8.671-10.75 0-16.649 4.35-21.306 8.099L77.037 452H98.59c4.142 0 7.5-3.357 7.5-7.5s-3.358-7.5-7.5-7.5H79.414v-67.974h77.146V437h-22.97c-4.142 0-7.5 3.357-7.5 7.5s3.358 7.5 7.5 7.5h301.353l15.262 39.094C445.55 487.346 439.654 483 428.91 483zm-4.276-335.478h18.109l-166.729 156.98-9.06-8.528z" fill="#000000" opacity="1" data-original="#000000"></path></g></svg>