<svg xmlns="http://www.w3.org/2000/svg" version="1.1" xmlns:xlink="http://www.w3.org/1999/xlink" width="512" height="512" x="0" y="0" viewBox="0 0 48 48" style="enable-background:new 0 0 512 512" xml:space="preserve"><g><path fill="#6ee7ff" d="m35.841 7.246-6.134-1.227a.991.991 0 0 0-1.109.591c-.755 1.8-2.524 3.067-4.598 3.067S20.157 8.41 19.402 6.61a.99.99 0 0 0-1.109-.591l-6.134 1.227A4 4 0 0 0 9.21 9.732L1.065 33.026a1 1 0 0 0 .619 1.304l3.47 1.389a1 1 0 0 0 1.222-.526l6.623-14.192v20a1 1 0 0 0 1 1h20a1 1 0 0 0 1-1v-20l6.623 14.192c.215.46.741.686 1.222.526l3.47-1.389c.539-.18.82-.772.619-1.304L38.789 9.733a3.999 3.999 0 0 0-2.949-2.486z" opacity="1" data-original="#6ee7ff"></path><path fill="#47caf0" d="M16 34V16a2 2 0 0 0-2-2h-1v27a1 1 0 0 0 1 1h20a1 1 0 0 0 1-1v-3H20a4 4 0 0 1-4-4z" opacity="1" data-original="#47caf0"></path><path fill="#08105e" d="M47.878 32.696 39.723 9.374a4.974 4.974 0 0 0-3.686-3.108l-6.135-1.227a2.004 2.004 0 0 0-2.228 1.185 3.98 3.98 0 0 1-7.35 0 1.997 1.997 0 0 0-2.228-1.185l-6.134 1.227a4.984 4.984 0 0 0-3.696 3.137L.129 32.671a2.011 2.011 0 0 0 .063 1.567c.232.49.661.869 1.119 1.02l3.525 1.409a1.998 1.998 0 0 0 2.445-1.052l4.717-10.107V41c0 1.103.897 2 2 2h20c1.103 0 2-.897 2-2V25.508l4.717 10.107c.43.921 1.481 1.373 2.501 1.031l3.415-1.368c.514-.171.942-.55 1.174-1.04a1.995 1.995 0 0 0 .072-1.542zm-5.349 2.074L36 20.779v-5.778a1 1 0 0 0-2 0v26H13.999V15a1 1 0 0 0-2 0v5.78L5.525 34.79l-3.517-1.434 8.134-23.264a2.984 2.984 0 0 1 2.211-1.865l6.125-1.229c.937 2.235 3.104 3.68 5.52 3.68S28.581 9.233 29.509 7l6.134 1.227c1.014.203 1.841.9 2.201 1.836l8.098 23.339-3.415 1.368z" opacity="1" data-original="#08105e"></path></g></svg>