<svg xmlns="http://www.w3.org/2000/svg" version="1.1" xmlns:xlink="http://www.w3.org/1999/xlink" width="512" height="512" x="0" y="0" viewBox="0 0 80 80" style="enable-background:new 0 0 512 512" xml:space="preserve" class="hovered-paths"><g><path fill="#656563" d="M33.847 71.384c-3.799 0-7.098-2.7-7.843-6.419a1.816 1.816 0 0 1 .384-1.51 1.848 1.848 0 0 1 3.243.792 4.31 4.31 0 0 0 4.509 3.436c2.245-.148 4.004-2.109 4.004-4.464v-53.3c0-.89.574-1.657 1.395-1.865a1.86 1.86 0 0 1 1.755.488c.35.35.543.813.543 1.303v53.33c0 4.205-3.174 7.794-7.225 8.172a7.896 7.896 0 0 1-.765.037z" opacity="1" data-original="#656563"></path><path d="M41.837 9.845v53.33c0 4.205-3.176 7.794-7.227 8.175-.252.018-.511.031-.763.031a8.009 8.009 0 0 1-6.335-3.121 8.047 8.047 0 0 0 4.863 1.65c.252 0 .511-.012.763-.031 4.051-.382 7.227-3.971 7.227-8.175V8.374c0-.117-.012-.228-.031-.339.357.068.702.246.96.505.353.351.543.813.543 1.305z" opacity="1" fill="#00000015" data-original="#00000015"></path><path fill="#65271c" d="M33.847 71.884c-4.037 0-7.541-2.869-8.333-6.821a2.315 2.315 0 0 1 .488-1.926 2.351 2.351 0 0 1 4.118 1.01 3.793 3.793 0 0 0 3.987 3.038c1.982-.131 3.536-1.873 3.536-3.965V9.919c0-1.12.729-2.086 1.772-2.35a2.346 2.346 0 0 1 2.231.619c.444.443.689 1.032.689 1.657v53.33c0 4.46-3.373 8.269-7.678 8.67-.27.026-.542.039-.81.039zm-6.021-8.609a1.36 1.36 0 0 0-1.053.497 1.318 1.318 0 0 0-.279 1.096c.745 3.717 4.2 6.342 8.072 5.981 3.796-.354 6.771-3.725 6.771-7.674V9.845a1.353 1.353 0 0 0-1.681-1.305c-.594.15-1.012.718-1.012 1.379v53.299c0 2.617-1.964 4.797-4.471 4.963a4.793 4.793 0 0 1-5.033-3.837 1.346 1.346 0 0 0-1.314-1.069z" opacity="1" data-original="#65271c"></path><path fill="#e64d3c" d="M69.506 40.592H69.5a5.903 5.903 0 0 0-11.806 0 5.903 5.903 0 1 0-11.806 0 5.903 5.903 0 0 0-11.799-.265l-.001.265h-.006a5.903 5.903 0 0 0-11.799-.265l-.001.265h-.006a5.902 5.902 0 1 0-11.804 0c0-16.3 13.214-29.515 29.515-29.515 16.304-.001 29.519 13.214 29.519 29.515z" opacity="1" data-original="#e64d3c" class="hovered-path"></path><path fill="#fff" d="M42.139 11.156c-13.346.954-24.236 10.792-26.797 23.627a5.904 5.904 0 0 0-4.863 5.504c.16-16.154 13.309-29.211 29.512-29.211.72 0 1.44.025 2.148.08z" opacity=".3"></path><path d="M69.506 40.589H69.5a5.903 5.903 0 0 0-4.863-5.805c-2.561-12.835-13.445-22.673-26.791-23.627.708-.055 1.428-.08 2.148-.08 16.295-.001 29.512 13.217 29.512 29.512z" opacity=".15"></path><path fill="#71d5e3" d="M57.695 40.592a5.903 5.903 0 1 0-11.806 0 5.903 5.903 0 0 0-11.799-.265l-.001.265h-.006a5.903 5.903 0 0 0-11.799-.265c.084-16.178 7.979-29.25 17.704-29.25 9.78-.001 17.707 13.214 17.707 29.515z"></path><path fill="#fff" d="M41.991 11.267c-7.689 1.459-13.888 11.136-15.353 23.627-2.432.659-4.241 2.826-4.352 5.43.086-16.172 7.978-29.248 17.705-29.248.677 0 1.342.062 2 .191z" opacity=".3"></path><path d="M57.695 40.287a5.907 5.907 0 0 0-4.346-5.387c-1.465-12.509-7.67-22.193-15.372-23.633a11.016 11.016 0 0 1 2.019-.191c9.721 0 17.607 13.051 17.699 29.211z" opacity=".15"></path><path fill="#e64d3c" d="M45.89 40.592a5.903 5.903 0 0 0-11.799-.265c.028-16.178 2.657-29.25 5.899-29.25 3.259-.001 5.9 13.214 5.9 29.515z"></path><path fill="#fff" d="M42.219 13.268c-.012-.006-.031-.006-.043-.006-2.783 0-5.11 9.64-5.731 22.611a5.88 5.88 0 0 0-2.352 4.451c.024-16.172 2.653-29.248 5.897-29.248.795 0 1.546.782 2.229 2.192z" opacity=".3"></path><path fill="#65271c" d="M69.506 41.092H69.5a.5.5 0 0 1-.5-.5c0-2.979-2.424-5.403-5.402-5.403s-5.402 2.424-5.402 5.403a.5.5 0 0 1-1 0c0-2.979-2.424-5.403-5.403-5.403s-5.402 2.424-5.402 5.403a.5.5 0 0 1-1 0 5.41 5.41 0 0 0-5.402-5.403 5.39 5.39 0 0 0-5.396 5.16l-.001.243c0 .276-.224.5-.5.5s-.506-.224-.506-.5a5.41 5.41 0 0 0-5.403-5.403 5.39 5.39 0 0 0-5.396 5.16l-.001.243c0 .276-.224.5-.5.5s-.506-.224-.506-.5c0-2.979-2.423-5.403-5.401-5.403s-5.402 2.424-5.402 5.403a.5.5 0 0 1-1 0c0-16.551 13.465-30.016 30.015-30.016 16.551 0 30.016 13.465 30.016 30.016a.503.503 0 0 1-.502.5zm0-.5h.01zm-17.714-6.403a6.412 6.412 0 0 1 5.903 3.922 6.399 6.399 0 0 1 11.065-1.302C66.9 22.591 54.707 11.576 39.99 11.576c-14.714 0-26.904 11.009-28.768 25.223a6.396 6.396 0 0 1 5.155-2.61 6.41 6.41 0 0 1 5.9 3.92 6.385 6.385 0 0 1 5.903-3.92 6.412 6.412 0 0 1 5.902 3.92 6.384 6.384 0 0 1 5.903-3.92 6.411 6.411 0 0 1 5.902 3.922 6.418 6.418 0 0 1 5.905-3.922z"></path><path fill="#65271c" d="M57.695 41.092a.5.5 0 0 1-.5-.5c0-2.979-2.424-5.403-5.403-5.403s-5.402 2.424-5.402 5.403a.5.5 0 0 1-1 0 5.41 5.41 0 0 0-5.402-5.403 5.39 5.39 0 0 0-5.396 5.16l-.001.243c0 .276-.224.5-.5.5s-.506-.224-.506-.5a5.41 5.41 0 0 0-5.403-5.403 5.39 5.39 0 0 0-5.396 5.16.501.501 0 0 1-.5.478h-.013a.5.5 0 0 1-.487-.502c.086-16.403 8.253-29.748 18.204-29.748 10.038 0 18.205 13.465 18.205 30.016a.5.5 0 0 1-.5.499zm-17.708-6.903a6.411 6.411 0 0 1 5.902 3.922 6.412 6.412 0 0 1 5.902-3.922 6.402 6.402 0 0 1 5.269 2.768c-1.063-14.291-8.313-25.381-17.07-25.381-8.722 0-15.993 11.096-17.067 25.354a6.387 6.387 0 0 1 5.259-2.742 6.412 6.412 0 0 1 5.902 3.92 6.386 6.386 0 0 1 5.903-3.919z"></path><path fill="#65271c" d="M45.89 41.092a.5.5 0 0 1-.5-.5 5.41 5.41 0 0 0-5.402-5.403 5.39 5.39 0 0 0-5.396 5.16c-.013.272-.273.458-.512.478a.5.5 0 0 1-.488-.501c.024-14.422 2.275-29.75 6.398-29.75 4.156 0 6.399 15.465 6.399 30.016a.499.499 0 0 1-.499.5zm-5.903-6.903a6.403 6.403 0 0 1 5.362 2.907c-.354-15.206-2.983-25.52-5.359-25.52-2.365 0-5 10.314-5.357 25.496a6.386 6.386 0 0 1 5.354-2.883z"></path><circle cx="10.475" cy="40.592" r="1.62" fill="#656563"></circle><path d="M12.097 40.589c0 .899-.726 1.625-1.625 1.625a1.607 1.607 0 0 1-1.459-.93c.209.105.449.16.696.16a1.62 1.62 0 0 0 1.619-1.619c0-.252-.055-.486-.16-.696.548.253.929.813.929 1.46z" opacity=".15"></path><path fill="#65271c" d="M10.476 42.711c-1.169 0-2.12-.951-2.12-2.12s.951-2.12 2.12-2.12 2.12.951 2.12 2.12-.951 2.12-2.12 2.12zm0-3.239c-.617 0-1.12.502-1.12 1.12 0 .617.503 1.12 1.12 1.12s1.12-.502 1.12-1.12-.503-1.12-1.12-1.12z"></path><circle cx="22.285" cy="40.592" r="1.62" fill="#656563"></circle><path d="M23.907 40.589c0 .899-.726 1.625-1.625 1.625a1.607 1.607 0 0 1-1.459-.93c.209.105.449.16.696.16a1.62 1.62 0 0 0 1.619-1.619c0-.252-.055-.486-.16-.696.548.253.929.813.929 1.46z" opacity=".15"></path><path fill="#65271c" d="M22.285 42.711c-1.169 0-2.12-.951-2.12-2.12s.951-2.12 2.12-2.12 2.12.951 2.12 2.12-.951 2.12-2.12 2.12zm0-3.239c-.617 0-1.12.502-1.12 1.12 0 .617.503 1.12 1.12 1.12s1.12-.502 1.12-1.12-.503-1.12-1.12-1.12z"></path><circle cx="34.095" cy="40.592" r="1.62" fill="#656563"></circle><path d="M35.717 40.589c0 .899-.726 1.625-1.625 1.625a1.607 1.607 0 0 1-1.459-.93c.209.105.449.16.696.16a1.62 1.62 0 0 0 1.619-1.619c0-.252-.055-.486-.16-.696.548.253.929.813.929 1.46z" opacity=".15"></path><path fill="#65271c" d="M34.095 42.711c-1.169 0-2.119-.951-2.119-2.12s.95-2.12 2.119-2.12 2.12.951 2.12 2.12-.951 2.12-2.12 2.12zm0-3.239a1.12 1.12 0 1 0 .003 2.241 1.12 1.12 0 0 0-.003-2.241z"></path><circle cx="45.905" cy="40.592" r="1.62" fill="#656563"></circle><path d="M47.527 40.589c0 .899-.726 1.625-1.625 1.625a1.607 1.607 0 0 1-1.459-.93c.209.105.449.16.696.16a1.62 1.62 0 0 0 1.619-1.619c0-.252-.055-.486-.16-.696.547.253.929.813.929 1.46z" opacity=".15"></path><path fill="#65271c" d="M45.905 42.711c-1.169 0-2.12-.951-2.12-2.12s.951-2.12 2.12-2.12 2.119.951 2.119 2.12-.95 2.12-2.119 2.12zm0-3.239c-.617 0-1.12.502-1.12 1.12a1.12 1.12 0 1 0 1.12-1.12z"></path><circle cx="57.715" cy="40.592" r="1.62" fill="#656563"></circle><path d="M59.337 40.589c0 .899-.726 1.625-1.625 1.625a1.607 1.607 0 0 1-1.459-.93c.209.105.449.16.696.16a1.62 1.62 0 0 0 1.619-1.619c0-.252-.055-.486-.16-.696.547.253.929.813.929 1.46z" opacity=".15"></path><path fill="#65271c" d="M57.715 42.711c-1.169 0-2.12-.951-2.12-2.12s.951-2.12 2.12-2.12 2.12.951 2.12 2.12-.951 2.12-2.12 2.12zm0-3.239c-.617 0-1.12.502-1.12 1.12 0 .617.503 1.12 1.12 1.12s1.12-.502 1.12-1.12-.503-1.12-1.12-1.12z"></path><circle cx="69.525" cy="40.592" r="1.62" fill="#656563"></circle><path d="M71.147 40.589c0 .899-.726 1.625-1.625 1.625a1.607 1.607 0 0 1-1.459-.93c.209.105.449.16.696.16a1.62 1.62 0 0 0 1.619-1.619c0-.252-.055-.486-.16-.696.547.253.929.813.929 1.46z" opacity=".15"></path><path fill="#65271c" d="M69.524 42.711c-1.169 0-2.119-.951-2.119-2.12s.95-2.12 2.119-2.12 2.12.951 2.12 2.12-.951 2.12-2.12 2.12zm0-3.239a1.12 1.12 0 1 0 .003 2.241 1.12 1.12 0 0 0-.003-2.241z"></path><path fill="#dededf" d="M33.847 71.999c-4.092 0-7.645-2.908-8.447-6.914a2.434 2.434 0 0 1 .512-2.023 2.464 2.464 0 0 1 4.321 1.06 3.696 3.696 0 0 0 3.865 2.946c1.924-.127 3.43-1.818 3.43-3.85v-7.97h4.925v7.927c0 4.519-3.419 8.378-7.783 8.785a8.814 8.814 0 0 1-.823.039z"></path><path d="M42.453 55.246v7.929c0 4.519-3.417 8.378-7.781 8.785a8.636 8.636 0 0 1-7.511-3.152 8.61 8.61 0 0 0 6.243 1.89c4.365-.406 7.787-4.266 7.787-8.785v-6.667z" opacity=".15"></path><path fill="#65271c" d="M33.847 72.5c-4.33 0-8.088-3.077-8.937-7.316a2.964 2.964 0 0 1 5.812-1.16 3.191 3.191 0 0 0 3.343 2.547c1.661-.109 2.963-1.582 2.963-3.351v-7.97a.5.5 0 0 1 .5-.5h4.925a.5.5 0 0 1 .5.5v7.927c0 4.774-3.618 8.852-8.236 9.283-.293.026-.583.04-.87.04zm-6.021-9.84a1.97 1.97 0 0 0-1.526.72 1.934 1.934 0 0 0-.409 1.608c.805 4.023 4.523 6.861 8.732 6.474 4.11-.383 7.33-4.023 7.33-8.287v-7.427h-3.925v7.47c0 2.294-1.712 4.205-3.897 4.349a4.186 4.186 0 0 1-4.389-3.346 1.96 1.96 0 0 0-1.916-1.561z"></path></g></svg>