<svg xmlns="http://www.w3.org/2000/svg" version="1.1" xmlns:xlink="http://www.w3.org/1999/xlink" width="512" height="512" x="0" y="0" viewBox="0 0 512 512" style="enable-background:new 0 0 512 512" xml:space="preserve"><g><path fill="#91def5" d="m329.57 11.07-8.36 117.48c-2.44 34.31-30.99 60.9-65.39 60.9-17.23 0-32.99-6.67-44.74-17.65-11.74-10.97-19.48-26.24-20.65-43.43L181.29 10h.09c3.34 17.72 12.55 33.55 25.59 44.94 13.05 11.39 29.93 18.35 48.63 18.35 37.02 0 66.88-27.28 73.97-62.22z" opacity="1" data-original="#91def5"></path><path fill="#e3f7f7" d="M433.82 222.56c-4.28 20.82-7.42 48.29-9.74 77.88h-76.699l-36.386 22.991-36.424-22.991H86.47c-1.95-27.61-4.62-52.93-8.29-71.9C139.43 167.3 132.22 106.83 133.09 10h48.2l9.14 118.37c1.17 17.19 8.91 32.46 20.65 43.43 11.75 10.98 27.51 17.65 44.74 17.65 34.4 0 62.95-26.59 65.39-60.9l8.36-117.48v-.02c.08-.35.14-.7.21-1.05h48.29c.44 48.42-.93 86.24 5.24 119.62s19.89 62.32 50.51 92.94z" opacity="1" data-original="#e3f7f7"></path><path fill="#91def5" d="M424.08 300.44c-2.57 32.78-4.12 68.16-5.04 99.99H90.74c-.33-14.53-.76-29.76-1.36-45.09-.72-18.52-1.67-37.18-2.91-54.9z" opacity="1" data-original="#91def5"></path><path fill="#e3f7f7" d="M417.67 502H91.45s.52-45.54-.71-101.57h328.3c-1.66 56.34-1.37 101.57-1.37 101.57z" opacity="1" data-original="#e3f7f7"></path><path d="M440.89 215.484c-52.455-52.454-52.548-100.006-52.7-178.787-.017-8.59-.034-17.472-.118-26.787-.05-5.487-4.513-9.91-10-9.91H329.78a10 10 0 0 0-9.827 8.147c-6.025 31.95-33.089 55.139-64.351 55.139-31.285 0-58.365-23.189-64.391-55.139a9.996 9.996 0 0 0-8.645-8.069l-.03-.004a9.844 9.844 0 0 0-.791-.058c-.094-.004-.186-.011-.28-.012-.027 0-.054-.004-.081-.004h-48.292c-5.487 0-9.95 4.422-10 9.91-.093 10.263-.095 20.08-.097 29.573-.019 78.364-.03 130.135-51.885 181.988a10.001 10.001 0 0 0-2.747 8.969c15.105 78.132 13.107 269.522 13.086 271.446A9.996 9.996 0 0 0 91.448 512h326.225a10.002 10.002 0 0 0 10-10.064c-.013-1.938-1.037-194.669 15.941-277.37a10 10 0 0 0-2.724-9.082zM255.601 83.286c23.423 0 45.016-9.879 60.661-26.096l-5.028 70.651c-2.059 28.94-26.399 51.61-55.415 51.61-14.127 0-27.591-5.312-37.913-14.957-10.327-9.649-16.542-22.719-17.507-36.893l-5.432-70.349c15.649 16.179 37.228 26.034 60.634 26.034zM142.995 39.487c.001-6.342.003-12.831.031-19.487h29.006l8.421 109.049c1.304 19.158 9.756 36.935 23.8 50.057 14.038 13.119 32.353 20.344 51.567 20.344 39.461 0 72.564-30.832 75.364-70.19L338.96 20h29.18c.028 5.715.039 11.284.05 16.735.153 79.269.261 132.233 54.803 189.059-3.42 18.227-6.08 40.599-8.15 64.646H351c-5.522 0-10 4.477-10 10s4.478 10 10 10h62.277c-1.884 26.518-3.144 54.183-3.983 79.99H100.54c-.654-25.971-1.702-53.704-3.361-79.99H271c5.522 0 10-4.477 10-10s-4.478-10-10-10H95.769c-1.724-21.954-3.948-42.196-6.816-58.61 54.009-56.473 54.023-113.742 54.042-192.343zM101.527 492c.084-15.199.12-45.648-.55-81.57h307.735c-.926 36.075-1.066 66.434-1.065 81.57z" fill="#000000" opacity="1" data-original="#000000"></path><circle cx="310.995" cy="299.995" r="10.005" fill="#000000" opacity="1" data-original="#000000"></circle></g></svg>