<svg xmlns="http://www.w3.org/2000/svg" version="1.1" xmlns:xlink="http://www.w3.org/1999/xlink" width="512" height="512" x="0" y="0" viewBox="0 0 60 60" style="enable-background:new 0 0 512 512" xml:space="preserve"><g><path fill="#00bcd4" d="M8 54v4a1 1 0 0 1-1 1H3a1 1 0 0 1-1-1v-4zM58 54v4a1 1 0 0 1-1 1h-4a1 1 0 0 1-1-1v-4z" opacity="1" data-original="#00bcd4"></path><path fill="#0377bc" d="M55 54v4a1 1 0 0 1-1 1h3a1 1 0 0 0 1-1v-4z" opacity="1" data-original="#0377bc"></path><path fill="#ffdf00" d="M30 39v4H14V33z" opacity="1" data-original="#ffdf00"></path><path fill="#60a917" d="M30 29v10l-16-6v-4zM20 43h10v11H20z" opacity="1" data-original="#60a917"></path><path fill="#ffdf00" d="M46 43v10a1 1 0 0 1-1 1H34l8-11z" opacity="1" data-original="#ffdf00"></path><path fill="#60a917" d="M37 29h9v14h-9z" opacity="1" data-original="#60a917"></path><path fill="#e91e63" d="M20 43v11h-5a1 1 0 0 1-1-1V43z" opacity="1" data-original="#e91e63"></path><path fill="#00bcd4" d="M30 54v5H16a1 1 0 0 1-1-1v-4zM45 54v4a1 1 0 0 1-1 1H30v-5z" opacity="1" data-original="#00bcd4"></path><path fill="#e91e63" d="M21 7.33V29h-7c0-.96-.04-1.89-.11-2.79a33.918 33.918 0 0 0-4.22-14.13 6.966 6.966 0 0 1 2.99-1.97z" opacity="1" data-original="#e91e63"></path><path fill="#00bcd4" d="M45.52 9.5 34 29h-4V11c5.72 0 7.57-3.06 8-4z" opacity="1" data-original="#00bcd4"></path><path fill="#00bcd4" d="M38 7c-.43.94-2.28 4-8 4V5c4.23 0 5.6-2.15 5.92-2.81a1.906 1.906 0 0 1 .41.63z" opacity="1" data-original="#00bcd4"></path><path fill="#0377bc" d="M36.33 2.82a1.906 1.906 0 0 0-.41-.63 4.6 4.6 0 0 1-2.051 1.98L35 7a7.023 7.023 0 0 1-5 3.666V11c5.72 0 7.57-3.06 8-4z" opacity="1" data-original="#0377bc"></path><path fill="#00bcd4" d="M30 5v6c-5.72 0-7.57-3.06-8-4l1.67-4.18a1.906 1.906 0 0 1 .41-.63C24.4 2.85 25.77 5 30 5z" opacity="1" data-original="#00bcd4"></path><path fill="#3f51b5" d="M35.92 2.19C35.6 2.85 34.23 5 30 5s-5.6-2.15-5.92-2.81a1.887 1.887 0 0 1 .86-.54A18 18 0 0 1 30 1a18 18 0 0 1 5.06.65 1.887 1.887 0 0 1 .86.54z" opacity="1" data-original="#3f51b5"></path><path fill="#e91e63" d="M50.33 12.08a33.918 33.918 0 0 0-4.22 14.13c-.07.9-.11 1.83-.11 2.79H34L45.52 9.5l1.82.61a6.966 6.966 0 0 1 2.99 1.97z" opacity="1" data-original="#e91e63"></path><path fill="#ad1457" d="m47.34 10.11-1.82-.61-.52.88a6.944 6.944 0 0 1 2.33 1.7 33.918 33.918 0 0 0-4.22 14.13c-.07.9-.11 1.83-.11 2.79h3c0-.96.04-1.89.11-2.79a33.918 33.918 0 0 1 4.22-14.13 6.966 6.966 0 0 0-2.99-1.97z" opacity="1" data-original="#ad1457"></path><path fill="#ffdf00" d="m55.51 21.4-7.02 9.57-2.38-4.76a33.918 33.918 0 0 1 4.22-14.13 6.9 6.9 0 0 1 .98 1.4z" opacity="1" data-original="#ffdf00"></path><path fill="#fec108" d="M51.31 13.48a6.9 6.9 0 0 0-.98-1.4 28.607 28.607 0 0 0-1.349 2.665L52.51 21.4l-5.236 7.138 1.216 2.432 7.02-9.57z" opacity="1" data-original="#fec108"></path><path fill="#e91e63" d="M59 30.48V38h-8.8l-.12-2.32a7.98 7.98 0 0 0-.83-3.18l-.76-1.53 7.02-9.57 2.33 4.4A10.069 10.069 0 0 1 59 30.48z" opacity="1" data-original="#e91e63"></path><path fill="#ad1457" d="m57.84 25.8-2.33-4.4-1.742 2.375L54.84 25.8A10.069 10.069 0 0 1 56 30.48V38h3v-7.52a10.069 10.069 0 0 0-1.16-4.68z" opacity="1" data-original="#ad1457"></path><path fill="#00bcd4" d="M59 38v4.33l-8.31 5.54L50.2 38z" opacity="1" data-original="#00bcd4"></path><path fill="#0377bc" d="M56 38v4.33l-5.406 3.604.096 1.936L59 42.33V38z" opacity="1" data-original="#0377bc"></path><path fill="#e91e63" d="M59 42.33V53a1 1 0 0 1-1 1h-6.05a1.007 1.007 0 0 1-1-.95l-.26-5.18z" opacity="1" data-original="#e91e63"></path><path fill="#ad1457" d="M56 44.33V53a1 1 0 0 1-1 1h3a1 1 0 0 0 1-1V42.33z" opacity="1" data-original="#ad1457"></path><path fill="#ffdf00" d="m13.89 26.21-2.38 4.76-7.02-9.57 4.2-7.92a6.9 6.9 0 0 1 .98-1.4 33.918 33.918 0 0 1 4.22 14.13z" opacity="1" data-original="#ffdf00"></path><path fill="#e91e63" d="m11.51 30.97-.76 1.53a7.98 7.98 0 0 0-.83 3.18L9.8 38H1v-7.52a10.069 10.069 0 0 1 1.16-4.68l2.33-4.4z" opacity="1" data-original="#e91e63"></path><path fill="#00bcd4" d="m9.8 38-.49 9.87L1 42.33V38z" opacity="1" data-original="#00bcd4"></path><path fill="#ffdf00" d="m9.31 47.87-.26 5.18a1.007 1.007 0 0 1-1 .95H2a1 1 0 0 1-1-1V42.33z" opacity="1" data-original="#ffdf00"></path><path fill="#60a917" d="M30 11v18h-9V7.33L22 7c.43.94 2.28 4 8 4zM42 43l-8 11h-4V43z" opacity="1" data-original="#60a917"></path><path fill="#00bcd4" d="M30 29h7v14h-7z" opacity="1" data-original="#00bcd4"></path><path d="M52.194 13.012a7.864 7.864 0 0 0-1.117-1.6 7.979 7.979 0 0 0-3.421-2.255l-8.9-2.957-1.5-3.745A2.975 2.975 0 0 0 35.35.7 18.608 18.608 0 0 0 30 0a18.608 18.608 0 0 0-5.35.7 2.979 2.979 0 0 0-1.909 1.756L21.244 6.2l-8.9 2.964a8.062 8.062 0 0 0-4.535 3.85L1.274 25.335A11.141 11.141 0 0 0 0 30.48V53a1.993 1.993 0 0 0 1 1.722V58a2 2 0 0 0 2 2h4a2 2 0 0 0 2-2v-3.25a2 2 0 0 0 1.048-1.65l.871-17.374a6.93 6.93 0 0 1 .726-2.779L13 30.232V53a1.993 1.993 0 0 0 1 1.722V58a2 2 0 0 0 2 2h28a2 2 0 0 0 2-2v-3.278A1.993 1.993 0 0 0 47 53V30.232l1.354 2.712a6.961 6.961 0 0 1 .728 2.786l.87 17.376A2 2 0 0 0 51 54.75V58a2 2 0 0 0 2 2h4a2 2 0 0 0 2-2v-3.278A1.993 1.993 0 0 0 60 53V30.48a11.139 11.139 0 0 0-1.276-5.148zM58 53h-6.051l-.231-4.613L58 44.2zm-6.752-14H58v2.8l-6.4 4.266zm3.083-17.684-5.68 7.745-1.518-3.041a33.831 33.831 0 0 1 3.313-12.035zm-5.244-9.059a35 35 0 0 0-3.974 13.876A36.91 36.91 0 0 0 45.02 28h-9.268l10.216-17.293 1.053.351a6 6 0 0 1 2.066 1.199zM35.964 53l6.545-9H45v9zM29 30v7.557l-14-5.25V30zM24.254 4.056A7.547 7.547 0 0 0 29 5.957v4.005c-3.772-.273-5.333-2.065-5.9-3.018zm11.491 0L36.9 6.942c-.566.952-2.127 2.746-5.9 3.02v-4a7.541 7.541 0 0 0 4.745-1.906zM31 42V30h5v12zm0-14V11.965c4.47-.282 6.574-2.412 7.462-3.757l5.565 1.853L33.429 28zm-2-16.035V28h-7V8.828c1.079 1.3 3.169 2.896 7 3.137zm0 27.728V42H15v-7.557zM15 53v-9h4v9zm6-9h8v9h-8zm10 0h9.036l-6.545 9H31zm7-2V30h7v12zM34.461 2.524C33.8 3.2 32.489 4 30 4s-3.8-.8-4.461-1.476A17.132 17.132 0 0 1 30 2a17.169 17.169 0 0 1 4.461.524zm-21.485 8.535L20 8.72V28h-5.02a36.91 36.91 0 0 0-.093-1.867 35.035 35.035 0 0 0-3.974-13.876 6 6 0 0 1 2.063-1.198zm-3.422 2.926a33.831 33.831 0 0 1 3.313 12.035l-1.518 3.041-5.68-7.745zM2 44.2l6.281 4.187L8.05 53H2zm6.4 1.86L2 41.8V39h6.752zM3 58v-3h4v3zm6.854-25.944a8.93 8.93 0 0 0-.933 3.574L8.853 37H2v-6.52a9.117 9.117 0 0 1 1.044-4.212l1.584-2.989 5.717 7.794zM16 58v-3h13v3zm15 0v-3h13v3zm18.655-26.927 5.717-7.794 1.582 2.985A9.122 9.122 0 0 1 58 30.48V37h-6.853l-.068-1.365a8.944 8.944 0 0 0-.934-3.582zM57 58h-4v-3h4z" fill="#000000" opacity="1" data-original="#000000"></path></g></svg>